<?xml version="1.0" encoding="UTF-8" standalone="no"?>
<!-- Created with Sodipodi ("http://www.sodipodi.com/") -->

<svg
   xmlns:dc="http://purl.org/dc/elements/1.1/"
   xmlns:cc="http://creativecommons.org/ns#"
   xmlns:rdf="http://www.w3.org/1999/02/22-rdf-syntax-ns#"
   xmlns:svg="http://www.w3.org/2000/svg"
   xmlns="http://www.w3.org/2000/svg"
   xmlns:xlink="http://www.w3.org/1999/xlink"
   xmlns:sodipodi="http://sodipodi.sourceforge.net/DTD/sodipodi-0.dtd"
   xmlns:inkscape="http://www.inkscape.org/namespaces/inkscape"
   id="svg602"
   sodipodi:version="0.34"
   width="38.599998"
   height="28.542252"
   xml:space="preserve"
   sodipodi:docname="link2.svg"
   version="1.1"
   inkscape:version="0.48.2 r9819"><metadata
     id="metadata20"><rdf:RDF><cc:Work
         rdf:about=""><dc:format>image/svg+xml</dc:format><dc:type
           rdf:resource="http://purl.org/dc/dcmitype/StillImage" /><dc:title></dc:title></cc:Work></rdf:RDF></metadata><defs
     id="defs604"><linearGradient
       id="linearGradient606"><stop
         style="stop-color:#000;stop-opacity:1;"
         offset="0"
         id="stop607" /><stop
         style="stop-color:#fff;stop-opacity:1;"
         offset="1"
         id="stop608" /></linearGradient><radialGradient
       xlink:href="#linearGradient606"
       id="radialGradient609" /><linearGradient
       xlink:href="#linearGradient606"
       id="linearGradient620" /><linearGradient
       xlink:href="#linearGradient606"
       id="linearGradient621" /><radialGradient
       xlink:href="#linearGradient606"
       id="radialGradient622" /></defs><sodipodi:namedview
     id="base"
     showgrid="false"
     fit-margin-top="0"
     fit-margin-left="0"
     fit-margin-right="0"
     fit-margin-bottom="0"
     inkscape:zoom="16.68772"
     inkscape:cx="15.987295"
     inkscape:cy="12.428455"
     inkscape:window-width="1280"
     inkscape:window-height="974"
     inkscape:window-x="-8"
     inkscape:window-y="-8"
     inkscape:window-maximized="1"
     inkscape:current-layer="svg602" /><g
     id="g2997"
     transform="matrix(0.05321921,0.05542029,-0.05391916,0.06027555,19.622694,-4.6712821)"><path
       sodipodi:nodetypes="cccccc"
       id="path618"
       d="M 100.3548,182.4996 C 39.23959,234.0358 83.80418,293.5382 147.0402,245.93 212.872,187.5087 161.261,131.1088 100.3548,182.4996 z M 76.42869,145.1112 C 187.2139,50.6036 296.6428,191.6575 170.3999,288.2157 40.92031,376.3687 -30.43438,242.5933 76.42869,145.1112 z"
       style="font-size:12px;fill:#000000;fill-opacity:0.1935;fill-rule:evenodd;stroke:#000000;stroke-width:0;stroke-linejoin:round;stroke-dasharray:none"
       inkscape:connector-curvature="0" /><path
       sodipodi:nodetypes="cscccssscsc"
       id="path619"
       d="M 131.7992,115.3711 C 165.4926,41.1437 251.2244,9.899189 296.1039,68.93446 322.4146,103.8989 317.3254,163.8573 254.204,212.1365 189.4641,256.213 101.2809,243.288 121.5828,168.6995 c 11.9881,-7.3855 44.902,-9.5479 41.1641,1.9316 -1.4107,8.0321 -0.5088,12.103 5.7294,18.0441 9.0721,5.8316 31.9127,6.1945 62.3679,-18.8245 34.0786,-27.9957 37.6339,-56.701 25.0561,-71.98356 -12.5778,-15.28253 -36.799,-19.21715 -67.252,6.47836 -12.8772,15.4332 -6.5913,16.3119 -15.0459,13.3497 -10.727,-4.6357 -27.8688,-3.6243 -41.8032,-2.3241 z"
       style="font-size:12px;fill:#000000;fill-opacity:0.1935;fill-rule:evenodd;stroke:#000000;stroke-width:0;stroke-linejoin:round;stroke-dasharray:none"
       inkscape:connector-curvature="0" /><path
       sodipodi:nodetypes="cccccc"
       id="path605"
       d="M 91.92607,160.2238 C 30.8109,211.76 75.37549,271.2624 138.6115,223.6542 204.4433,165.2329 152.8323,108.833 91.92607,160.2238 z M 68,122.8354 C 178.7852,28.32777 288.2141,169.3817 161.9712,265.9399 32.49162,354.0929 -38.86307,220.3175 68,122.8354 z"
       style="font-size:12px;fill:#b3b3b3;fill-rule:evenodd;stroke:#000000;stroke-width:5.847188;stroke-linejoin:round"
       inkscape:connector-curvature="0" /><path
       sodipodi:nodetypes="cscccssscsc"
       id="path611"
       d="m 123.3705,93.09527 c 33.6934,-74.2274 119.4252,-105.47191 164.3047,-46.43664 26.3107,34.96443 21.2215,94.92287 -41.8999,143.20207 -64.7399,44.0765 -152.92305,31.1515 -132.6212,-43.437 11.9881,-7.3855 44.902,-9.5479 41.1641,1.9316 -1.4107,8.0321 -0.5088,12.103 5.7294,18.0441 9.0721,5.8316 31.9127,6.1945 62.3679,-18.8245 34.0786,-27.9957 37.6339,-56.70106 25.0561,-71.98359 -12.5778,-15.28253 -36.799,-19.21715 -67.252,6.4784 -12.8772,15.43314 -6.5913,16.31185 -15.0459,13.34968 -10.727,-4.63573 -27.8688,-3.62433 -41.8032,-2.32412 z"
       style="font-size:12px;fill:#b3b3b3;fill-rule:evenodd;stroke:#000000;stroke-width:5.847188;stroke-linejoin:round"
       inkscape:connector-curvature="0" /><path
       sodipodi:nodetypes="cccc"
       id="path614"
       d="m 49.21984,158.4666 c 28.43353,-46.8004 71.83206,-62.47729 89.79006,-59.4802 11.7226,0.92214 9.2283,12.2188 -9.7273,13.141 -33.42185,4.3803 -56.36818,21.9016 -80.06276,46.3392 z"
       style="fill:#ffffff;fill-opacity:0.5613;fill-rule:evenodd;stroke:none"
       inkscape:connector-curvature="0" /><path
       sodipodi:nodetypes="cccc"
       id="path615"
       d="m 211.2068,169.1783 c 50.6317,-26.2819 67.592,-66.3965 64.3495,-82.99567 -0.9976,-10.83555 -13.2191,-8.53004 -14.2167,8.99127 -4.7389,30.8928 -23.6946,52.1029 -50.1328,74.0044 z"
       style="fill:#ffffff;fill-opacity:0.5613;fill-rule:evenodd;stroke:none"
       inkscape:connector-curvature="0" /><path
       sodipodi:nodetypes="cccc"
       id="path616"
       d="m 68.34258,287.8799 c 58.06192,0.8434 94.55972,-25.9303 100.79582,-41.7823 5.0378,-9.8274 -6.7783,-13.5206 -17.1805,1.1558 -20.916,24.4904 -48.8445,34.0001 -83.61532,40.6265 z"
       style="fill:#000000;fill-opacity:0.5613;fill-rule:evenodd;stroke:none"
       inkscape:connector-curvature="0" /><path
       sodipodi:nodetypes="cccc"
       id="path617"
       d="m 249.9593,63.69327 c -14.0826,-31.80331 -86.7165,-0.74214 -90.174,15.8198 -3.3003,10.43818 8.9976,12.36516 16.7692,-3.64249 20.9716,-24.46302 56.6585,-28.23706 73.4048,-12.17731 z"
       style="fill:#000000;fill-opacity:0.5613;fill-rule:evenodd;stroke:none"
       inkscape:connector-curvature="0" /></g></svg>