<?xml version="1.0" encoding="UTF-8" standalone="no"?>
<!-- Created with Inkscape (http://www.inkscape.org/) -->

<svg
   xmlns:dc="http://purl.org/dc/elements/1.1/"
   xmlns:cc="http://creativecommons.org/ns#"
   xmlns:rdf="http://www.w3.org/1999/02/22-rdf-syntax-ns#"
   xmlns:svg="http://www.w3.org/2000/svg"
   xmlns="http://www.w3.org/2000/svg"
   xmlns:sodipodi="http://sodipodi.sourceforge.net/DTD/sodipodi-0.dtd"
   xmlns:inkscape="http://www.inkscape.org/namespaces/inkscape"
   width="27.299999"
   height="28.35"
   id="svg12727"
   version="1.1"
   inkscape:version="0.48.2 r9819"
   sodipodi:docname="paste.svg">
  <defs
     id="defs12729" />
  <sodipodi:namedview
     id="base"
     pagecolor="#ffffff"
     bordercolor="#666666"
     borderopacity="1.0"
     inkscape:pageopacity="0.0"
     inkscape:pageshadow="2"
     inkscape:zoom="11.313708"
     inkscape:cx="3.6487085"
     inkscape:cy="11.345186"
     inkscape:document-units="px"
     inkscape:current-layer="g7949"
     showgrid="false"
     inkscape:window-width="1280"
     inkscape:window-height="974"
     inkscape:window-x="-8"
     inkscape:window-y="-8"
     inkscape:window-maximized="1"
     fit-margin-top="0"
     fit-margin-left="0"
     fit-margin-right="0"
     fit-margin-bottom="0"
     inkscape:snap-smooth-nodes="true"
     showborder="true" />
  <metadata
     id="metadata12732">
    <rdf:RDF>
      <cc:Work
         rdf:about="">
        <dc:format>image/svg+xml</dc:format>
        <dc:type
           rdf:resource="http://purl.org/dc/dcmitype/StillImage" />
        <dc:title />
      </cc:Work>
    </rdf:RDF>
  </metadata>
  <g
     inkscape:label="Layer 1"
     inkscape:groupmode="layer"
     id="layer1"
     transform="translate(-134.02924,-355.963)">
    <g
       id="g7949">
      <rect
         y="361.67786"
         x="137.80223"
         height="20.131826"
         width="19.754013"
         id="rect4416"
         style="fill:#f57c3f;fill-opacity:1;fill-rule:nonzero;stroke:#f56e3c;stroke-width:0.48899999;stroke-linecap:round;stroke-linejoin:round;stroke-miterlimit:4;stroke-opacity:1;stroke-dasharray:none" />
      <g
         style="fill:#ececec;stroke:#545956;stroke-width:1.07661736000000000;stroke-miterlimit:4;stroke-opacity:1;stroke-dasharray:none"
         transform="matrix(0.84408189,3.9752761e-4,-0.00405376,-1.0221002,48.324464,790.86649)"
         id="g13565">
        <path
           style="fill:#ececec;fill-opacity:1;fill-rule:nonzero;stroke:#545956;stroke-width:1.07661736000000000;stroke-linecap:round;stroke-linejoin:miter;stroke-miterlimit:4;stroke-opacity:1;stroke-dasharray:none;stroke-dashoffset:10"
           d="m 127.45933,417.04247 0.0156,-12.74999 c -0.0129,-0.0109 -0.0192,-0.0195 -0.0312,-0.0312 -0.0125,-0.0121 -0.0187,-0.0503 -0.0311,-0.0625 -0.0185,-0.003 -0.0403,-0.0159 -0.0625,-0.0313 -0.0192,-0.0134 -0.0131,-0.0147 -0.0312,-0.0312 -0.004,-0.003 0.005,-0.0264 3e-5,-0.0312 -0.005,-0.005 -0.0269,0.004 -0.0312,-4e-5 -0.006,-0.003 0.007,-0.0273 4e-5,-0.0312 -0.0118,-0.0102 -0.0509,0.0102 -0.0625,-7e-5 -0.0202,0.004 -0.0397,0.0109 -0.0625,-8e-5 0.005,10e-4 -0.005,-0.0315 4e-5,-0.0312 0,0 0.0312,-0.0312 0.0312,-0.0312 -0.005,-0.005 -0.0265,0.006 -0.0312,-4e-5 -0.007,-0.006 0.004,-0.0225 4e-5,-0.0312 -0.008,-0.0175 0.002,-0.0266 4e-5,-0.0312 -0.003,-0.005 -0.0288,0.006 -0.0312,-4e-5 0.005,0.02 -0.004,0.0436 -8e-5,0.0625 -0.0221,-0.008 -0.044,-0.017 -0.0625,-0.0313 -0.0178,-0.0137 -0.0222,-0.042 -0.0311,-0.0625 -0.009,-0.0215 -5.2e-4,-0.0219 4e-5,-0.0312 5.6e-4,-0.009 -0.007,-0.0277 4e-5,-0.0312 -0.005,-0.005 -0.0266,0.005 -0.0312,-4e-5 -0.007,-0.009 0.007,-0.0217 4e-5,-0.0312 -0.0244,-0.0197 -0.0243,-0.0184 -0.0312,-0.0312 -0.004,-0.004 -0.0271,0.004 -0.0312,-4e-5 -0.005,-0.006 0.007,-0.0274 3e-5,-0.0312 -0.002,-0.002 -0.0296,0.003 -0.0312,-4e-5 -0.006,-0.004 0.004,-0.0218 4e-5,-0.0312 -0.003,-0.002 0.003,-0.0282 4e-5,-0.0312 -0.006,-0.005 -0.0274,0.004 -0.0312,-3e-5 -0.005,-0.003 -0.0269,0.003 -0.0312,-4e-5 -0.006,-0.006 0.003,-0.0264 4e-5,-0.0312 -0.005,-0.005 -0.027,0.005 -0.0312,-4e-5 0.003,10e-4 0.002,-0.0292 4e-5,-0.0312 -0.004,-0.004 -0.0272,0.004 -0.0312,-4e-5 -0.006,-0.005 0.003,-0.0261 4e-5,-0.0312 -0.005,-0.005 -0.0225,0.0105 -0.0312,-4e-5 -0.003,6.8e-4 -4.6e-4,-0.0324 3e-5,-0.0312 -0.005,-0.002 -0.0274,0.003 -0.0312,-3e-5 -0.006,-0.006 0.004,-0.0275 4e-5,-0.0312 -0.005,-0.005 -0.0264,0.005 -0.0312,-4e-5 -0.003,-0.003 -0.0288,0.003 -0.0312,-4e-5 -0.007,-0.003 -0.0249,0.005 -0.0312,-4e-5 -0.0329,-0.0267 -0.0138,-0.0498 4e-5,-0.0312 -0.0111,-0.009 -0.024,-0.0498 -0.0311,-0.0625 -0.002,4e-4 -0.0254,0.005 -0.0312,-4e-5 -0.003,-0.002 0.003,-0.0292 3e-5,-0.0312 -0.006,-0.007 -0.0276,0.002 -0.0312,-3e-5 -0.006,-0.003 -0.0259,0.005 -0.0312,-4e-5 -0.004,-0.002 0.007,-0.0176 4e-5,-0.0312 -0.009,-0.006 -0.0241,0.008 -0.0312,-4e-5 -0.004,-0.003 0.004,-0.0276 4e-5,-0.0312 -0.0161,-0.009 -0.0187,-0.0187 -0.0312,-0.0312 -9.1e-4,-9e-4 -0.0306,5.6e-4 -0.0312,-4e-5 -0.003,-0.003 0.003,-0.0282 4e-5,-0.0312 -0.009,-0.007 -0.0216,0.009 -0.0312,-3e-5 -0.005,-0.006 0.005,-0.0273 4e-5,-0.0312 -0.004,-0.003 -0.0273,0.004 -0.0312,-4e-5 -0.005,-0.005 -0.026,0.005 -0.0312,-4e-5 -0.006,-0.006 0.006,-0.0254 3e-5,-0.0312 -0.002,-0.002 0.001,-0.0286 4e-5,-0.0312 -0.008,-0.009 -0.0225,-0.0234 -0.0312,-0.0312 -0.006,-0.006 -0.0272,0.003 -0.0312,-4e-5 -0.001,-0.003 -9.6e-4,-0.0334 4e-5,-0.0312 -0.009,-0.007 -0.0238,-0.0235 -0.0312,-0.0312 -0.005,-0.005 -0.0261,0.005 -0.0312,-3e-5 -0.005,-0.007 0.005,-0.0236 4e-5,-0.0312 -0.003,-0.003 -0.0282,0.002 -0.0312,-4e-5 -0.0127,-0.004 -0.0183,-0.0255 -0.0312,-0.0312 -0.0112,-0.007 -0.0212,0.009 -0.0312,-4e-5 -0.004,-0.003 0.004,-0.0283 4e-5,-0.0312 -0.007,-0.006 -0.0252,-0.0243 -0.0312,-0.0312 -0.008,-0.005 -0.0238,0.006 -0.0312,-3e-5 -0.006,-0.002 10e-4,-0.0192 4e-5,-0.0312 -0.007,-0.007 -0.024,0.007 -0.0312,-4e-5 -0.006,-0.006 0.006,-0.0249 4e-5,-0.0312 -0.006,-0.006 -0.0242,0.005 -0.0312,-4e-5 -9.5e-4,-10e-4 10e-4,-0.0292 3e-5,-0.0312 -0.009,-0.008 -0.0235,0.009 -0.0312,-4e-5 -0.007,-0.006 0.002,-0.028 4e-5,-0.0312 -0.009,-0.01 -0.048,-0.0197 -0.0312,-4e-5 -0.006,-0.007 -0.003,-0.0403 4e-5,-0.0312 -0.006,-0.004 -0.0255,0.007 -0.0312,-4e-5 -0.007,-0.002 0.006,-0.0292 4e-5,-0.0312 -0.0155,-0.006 -0.0185,-0.0207 -0.0312,-0.0312 -0.005,-0.005 -0.026,0.005 -0.0312,-4e-5 -0.005,-0.003 0.004,-0.0272 4e-5,-0.0312 -0.004,-0.004 -0.0275,0.004 -0.0312,-4e-5 -0.008,-0.006 -0.0222,-0.0332 -0.0312,-0.0312 -0.006,-0.003 -0.0254,0.003 -0.0312,-4e-5 -0.005,-0.003 0.004,-0.0269 4e-5,-0.0312 -0.007,-0.006 -0.0254,0.007 -0.0312,-3e-5 -0.003,-0.003 -0.004,-0.0318 4e-5,-0.0312 -0.019,-0.0211 -0.0273,-0.0348 -0.0312,-0.0312 -0.002,-0.002 -0.0262,0.005 -0.0312,-4e-5 -0.007,-0.004 0.007,-0.0272 4e-5,-0.0312 -0.01,-0.006 -0.0227,-0.0195 -0.0312,-0.0312 0.002,0.005 -0.0273,0.003 -0.0312,-4e-5 0.0174,0.0133 0.0192,-0.007 4e-5,-0.0312 -0.006,-0.007 -0.0247,0.007 -0.0312,-3e-5 -0.005,-0.006 0.003,-0.0242 4e-5,-0.0312 -0.0341,-0.009 0.002,0.0116 -0.0312,-4e-5 -0.006,-0.006 0.003,-0.028 4e-5,-0.0312 -0.002,-1.4e-4 -0.0241,0.005 -0.0312,-4e-5 -0.0107,-0.007 -0.0225,0.009 -0.0312,-4e-5 -0.006,-0.006 0.004,-0.0245 4e-5,-0.0312 -0.003,-0.0121 0.001,-0.0251 4e-5,-0.0312 -7.4e-4,-4.3e-4 -0.0304,0.002 -0.0312,-4e-5 -0.007,-0.003 0.007,-0.0282 3e-5,-0.0312 -0.0131,-0.006 -0.0518,0.009 -0.0625,-7e-5 -0.005,-0.004 0.006,-0.0277 4e-5,-0.0312 -0.003,-0.005 -0.004,-0.0346 4e-5,-0.0312 -0.0128,-0.01 -0.0503,0.0105 -0.0625,-8e-5 -0.007,-0.007 0.002,-0.0292 4e-5,-0.0312 -0.009,-0.003 -0.0225,-0.0272 -0.0312,-0.0312 -0.007,-0.005 -0.0257,0.006 -0.0312,-4e-5 -0.0183,-0.0193 -0.0211,-0.0407 -0.0311,-0.0625 l -12.59374,-0.0154 -0.0182,14.87499 14.87499,0.0182 z"
           id="rect12743-6"
           inkscape:connector-curvature="0" />
        <path
           style="fill:#ececec;stroke:#545956;stroke-width:1.07661736000000000;stroke-linecap:butt;stroke-linejoin:miter;stroke-miterlimit:4;stroke-opacity:1;stroke-dasharray:none"
           d="m 127.38122,404.26112 -0.21852,-0.18777 c 0.005,10e-4 -0.005,-0.0315 4e-5,-0.0312 l -0.0312,-4e-5 c -0.002,-0.01 0.002,-0.0217 4e-5,-0.0312 -0.0221,-0.008 -0.044,-0.017 -0.0625,-0.0313 l -1.90415,-1.72108 -0.002,2 2.21875,0.003 z"
           id="path12763"
           inkscape:connector-curvature="0" />
      </g>
      <path
         inkscape:connector-curvature="0"
         id="path13573"
         d="m 143.79185,376.93119 7.75913,0.004"
         style="fill:#ececec;fill-opacity:1;stroke:#000000;stroke-width:0.92883509px;stroke-linecap:butt;stroke-linejoin:miter;stroke-opacity:1" />
      <path
         inkscape:connector-curvature="0"
         id="path13573-9"
         d="m 143.63153,374.13053 7.75913,0.004"
         style="fill:#ececec;fill-opacity:1;stroke:#000000;stroke-width:0.92883509px;stroke-linecap:butt;stroke-linejoin:miter;stroke-opacity:1" />
      <path
         inkscape:connector-curvature="0"
         id="path13573-5"
         d="m 143.69646,371.69133 7.75913,0.004"
         style="fill:#ececec;fill-opacity:1;stroke:#000000;stroke-width:0.92883509px;stroke-linecap:butt;stroke-linejoin:miter;stroke-opacity:1" />
      <path
         inkscape:connector-curvature="0"
         id="path13573-57"
         d="m 143.83528,369.0715 7.75913,0.004"
         style="fill:#ececec;fill-opacity:1;stroke:#000000;stroke-width:0.92883509px;stroke-linecap:butt;stroke-linejoin:miter;stroke-opacity:1" />
      <path
         inkscape:connector-curvature="0"
         id="path13573-4"
         d="m 143.75065,366.54189 7.75913,0.004"
         style="fill:#ececec;fill-opacity:1;stroke:#000000;stroke-width:0.92883509px;stroke-linecap:butt;stroke-linejoin:miter;stroke-opacity:1" />
      <path
         sodipodi:nodetypes="cccssssscc"
         inkscape:connector-curvature="0"
         id="path4349-5"
         d="m 144.18182,363.86717 -0.19702,-1.32503 -0.0297,-0.90086 c 0,0 0.0592,-0.76305 0.3955,-1.06792 0.30667,-0.27782 0.81113,-0.81245 1.26847,-1.03604 0.57602,-0.28187 1.21852,-0.3575 1.80104,-0.38325 0.60737,-0.0292 1.56195,0.24562 2.17553,0.51668 0.52134,0.23011 0.92043,0.58013 1.21327,0.93229 0.27439,0.33015 0.31751,1.11642 0.31751,1.11642 l 0.20291,1.85479"
         style="fill:#ffffff;fill-opacity:1;stroke:#212121;stroke-width:1.86020541;stroke-linecap:butt;stroke-linejoin:miter;stroke-miterlimit:4;stroke-opacity:1;stroke-dasharray:none" />
      <path
         inkscape:connector-curvature="0"
         id="path4349"
         d="m 139.46463,363.22339 16.6731,0"
         style="fill:#b3b3b3;stroke:#212121;stroke-width:2.6639924px;stroke-linecap:butt;stroke-linejoin:miter;stroke-opacity:1" />
    </g>
  </g>
</svg>
