<?xml version="1.0" encoding="UTF-8" standalone="no"?>
<!-- Created with Inkscape (http://www.inkscape.org/) -->

<svg
   xmlns:dc="http://purl.org/dc/elements/1.1/"
   xmlns:cc="http://creativecommons.org/ns#"
   xmlns:rdf="http://www.w3.org/1999/02/22-rdf-syntax-ns#"
   xmlns:svg="http://www.w3.org/2000/svg"
   xmlns="http://www.w3.org/2000/svg"
   xmlns:sodipodi="http://sodipodi.sourceforge.net/DTD/sodipodi-0.dtd"
   xmlns:inkscape="http://www.inkscape.org/namespaces/inkscape"
   width="22.133146"
   height="22.111803"
   id="svg5149"
   version="1.1"
   inkscape:version="0.48.2 r9819"
   sodipodi:docname="save.svg">
  <defs
     id="defs5151" />
  <sodipodi:namedview
     id="base"
     pagecolor="#ffffff"
     bordercolor="#666666"
     borderopacity="1.0"
     inkscape:pageopacity="0.0"
     inkscape:pageshadow="2"
     inkscape:zoom="11.2"
     inkscape:cx="2.9196809"
     inkscape:cy="9.0755931"
     inkscape:document-units="px"
     inkscape:current-layer="layer1"
     showgrid="false"
     fit-margin-top="0"
     fit-margin-left="0"
     fit-margin-right="0"
     fit-margin-bottom="0"
     inkscape:window-width="1280"
     inkscape:window-height="974"
     inkscape:window-x="-8"
     inkscape:window-y="-8"
     inkscape:window-maximized="1" />
  <metadata
     id="metadata5154">
    <rdf:RDF>
      <cc:Work
         rdf:about="">
        <dc:format>image/svg+xml</dc:format>
        <dc:type
           rdf:resource="http://purl.org/dc/dcmitype/StillImage" />
        <dc:title></dc:title>
      </cc:Work>
    </rdf:RDF>
  </metadata>
  <g
     inkscape:label="Layer 1"
     inkscape:groupmode="layer"
     id="layer1"
     transform="translate(-359.25976,-244.39336)">
    <path
       style="opacity:0.5;fill:#000000;fill-opacity:1;fill-rule:nonzero;stroke:#000000;stroke-width:0.17857143;stroke-linecap:round;stroke-linejoin:round;stroke-miterlimit:4;stroke-opacity:1;stroke-dasharray:none"
       d=""
       id="path5726"
       inkscape:connector-curvature="0" />
    <path
       style="opacity:0.5;fill:#000000;fill-opacity:1;fill-rule:nonzero;stroke:#000000;stroke-width:0.17857143;stroke-linecap:round;stroke-linejoin:round;stroke-miterlimit:4;stroke-opacity:1;stroke-dasharray:none"
       d=""
       id="path5728"
       inkscape:connector-curvature="0" />
    <path
       style="opacity:0.5;fill:#000000;fill-opacity:1;fill-rule:nonzero;stroke:#000000;stroke-width:0.08928572;stroke-linecap:round;stroke-linejoin:round;stroke-miterlimit:4;stroke-opacity:1;stroke-dasharray:none"
       d=""
       id="path5734"
       inkscape:connector-curvature="0" />
    <g
       id="g5929">
      <g
         style="fill:#000000;fill-opacity:1;stroke:#000000;stroke-width:8.50782681;stroke-linecap:round;stroke-linejoin:round;stroke-miterlimit:4;stroke-opacity:1;stroke-dasharray:none"
         transform="matrix(0.12065574,0,0,0.11450244,343.46248,202.35926)"
         id="g5209">
        <path
           style="fill:#000000;fill-opacity:1;stroke:#000000;stroke-width:8.50782681;stroke-linecap:round;stroke-linejoin:round;stroke-miterlimit:4;stroke-opacity:1;stroke-dasharray:none"
           d="m 136.37059,371.51937 0,183.84776 172.73609,0 0,-160.61425"
           id="path5201"
           inkscape:connector-curvature="0" />
        <path
           style="fill:#000000;fill-opacity:1;stroke:#000000;stroke-width:8.50782681;stroke-linecap:round;stroke-linejoin:round;stroke-miterlimit:4;stroke-opacity:1;stroke-dasharray:none"
           d="m 135.36044,373.53967 159.6041,0 15.15229,11.11168"
           id="path5205"
           inkscape:connector-curvature="0" />
        <path
           style="fill:#000000;fill-opacity:1;stroke:#000000;stroke-width:8.50782681;stroke-linecap:round;stroke-linejoin:round;stroke-miterlimit:4;stroke-opacity:1;stroke-dasharray:none"
           d="m 309.10668,401.82394 -1.01015,-19.19289"
           id="path5207"
           inkscape:connector-curvature="0" />
      </g>
      <path
         inkscape:connector-curvature="0"
         id="path5722"
         d="m 359.64158,266.1504 c -0.14626,-0.17622 -0.18917,-3.15556 -0.1558,-10.81531 l 0.0461,-10.57208 9.86883,0.0174 9.86884,0.0174 0.84545,0.57473 c 0.465,0.31611 0.89948,0.64974 0.96552,0.74141 0.066,0.0917 0.12918,4.57997 0.14032,9.974 0.0149,7.19538 -0.0348,9.87369 -0.18657,10.05654 -0.30426,0.36661 -21.08854,0.37242 -21.39266,0.006 l 0,0 z m 20.69384,-19.02062 c 0,-0.28261 -0.10044,-0.59522 -0.22321,-0.69469 -0.25811,-0.20911 -12.6868,-0.98632 -14.41964,-0.9017 -0.88858,0.0434 0.66049,0.29258 6.60714,1.06287 4.27232,0.55342 7.82812,1.01547 7.90179,1.02679 0.0737,0.0113 0.13392,-0.21065 0.13392,-0.49327 z"
         style="opacity:0.5;fill:#000000;fill-opacity:1;fill-rule:nonzero;stroke:#000000;stroke-width:0.17857143;stroke-linecap:round;stroke-linejoin:round;stroke-miterlimit:4;stroke-opacity:1;stroke-dasharray:none" />
      <path
         inkscape:connector-curvature="0"
         id="path5724"
         d="m 376.5106,246.9281 c -2.50523,-0.31531 -3.58064,-0.51871 -3.63703,-0.68788 -0.0861,-0.25829 1.44173,-0.20689 5.22971,0.17594 1.8265,0.18459 2.13321,0.29322 2.02568,0.71743 -0.0504,0.19889 -0.69729,0.16215 -3.61836,-0.20549 z"
         style="opacity:0.5;fill:#000000;fill-opacity:1;fill-rule:nonzero;stroke:#000000;stroke-width:0.17857143;stroke-linecap:round;stroke-linejoin:round;stroke-miterlimit:4;stroke-opacity:1;stroke-dasharray:none" />
      <path
         inkscape:connector-curvature="0"
         id="path5730"
         d="m 359.64158,266.1504 c -0.14626,-0.17622 -0.18917,-3.15629 -0.1558,-10.81815 l 0.0461,-10.57492 9.89125,0.0216 9.89125,0.0216 0.82304,0.57337 c 0.45267,0.31536 0.87706,0.64838 0.9431,0.74005 0.066,0.0917 0.12918,4.57997 0.14032,9.974 0.0149,7.19538 -0.0348,9.87369 -0.18657,10.05654 -0.30426,0.36661 -21.08854,0.37242 -21.39266,0.006 l 0,0 z m 20.69384,-19.02062 c 0,-0.28261 -0.10044,-0.59466 -0.22321,-0.69344 -0.32865,-0.26443 -4.41964,-0.48675 -4.41964,-0.24018 0,0.10985 0.29222,0.18588 0.66964,0.17422 0.97098,-0.03 3.61607,0.39391 3.61607,0.57951 0,0.14523 -0.67147,0.24069 -1.20536,0.17136 -0.12276,-0.0159 -0.22321,0.0503 -0.22321,0.14714 0,0.0969 0.34152,0.2069 0.75893,0.24449 0.41741,0.0376 0.81919,0.0824 0.89286,0.0996 0.0737,0.0172 0.13392,-0.20004 0.13392,-0.48266 z m -2.5,-0.0219 c 0,-0.0982 -0.26116,-0.17734 -0.58035,-0.17584 -0.4404,0.002 -0.51576,0.0445 -0.3125,0.17584 0.35098,0.22682 0.89285,0.22682 0.89285,0 z m -1.33928,-0.17857 c -0.0607,-0.0982 -0.22616,-0.17857 -0.36768,-0.17857 -0.14153,0 -0.25732,0.0804 -0.25732,0.17857 0,0.0982 0.16546,0.17857 0.36768,0.17857 0.20222,0 0.31802,-0.0804 0.25732,-0.17857 z m -1.49303,-0.38577 c 0.18402,-0.21218 0.29152,-0.42884 0.23889,-0.48147 -0.13826,-0.13825 -7.01212,-0.544 -9.01372,-0.53206 -1.58812,0.009 -1.37721,0.0532 3.30357,0.68501 2.75,0.37119 5.03076,0.68375 5.06834,0.69459 0.0376,0.0108 0.2189,-0.1539 0.40292,-0.36607 z"
         style="opacity:0.5;fill:#000000;fill-opacity:1;fill-rule:nonzero;stroke:#000000;stroke-width:0.17857143;stroke-linecap:round;stroke-linejoin:round;stroke-miterlimit:4;stroke-opacity:1;stroke-dasharray:none" />
      <path
         inkscape:connector-curvature="0"
         id="path5732"
         d="m 359.64158,266.1504 c -0.14626,-0.17622 -0.18917,-3.15629 -0.1558,-10.81815 l 0.0461,-10.57492 9.89125,0.0216 9.89125,0.0216 0.82304,0.57337 c 0.45267,0.31536 0.87706,0.64838 0.9431,0.74005 0.066,0.0917 0.12918,4.57997 0.14032,9.974 0.0149,7.19538 -0.0348,9.87369 -0.18657,10.05654 -0.30426,0.36661 -21.08854,0.37242 -21.39266,0.006 l 0,0 z m 20.68987,-18.81927 c -0.002,-0.17187 -0.14281,-0.48403 -0.3125,-0.69368 -0.26177,-0.32342 -0.57237,-0.39947 -2.0496,-0.50185 -1.13118,-0.0784 -1.74107,-0.0576 -1.74107,0.0594 0,0.099 -0.28188,0.15276 -0.6264,0.11938 -0.34452,-0.0334 -0.67328,0.0151 -0.73056,0.10783 -0.0587,0.0949 -0.54353,0.12108 -1.10982,0.0599 -0.55311,-0.0597 -0.94119,-0.0438 -0.8624,0.0354 0.0788,0.0792 1.72393,0.35503 3.65586,0.61301 1.93194,0.25798 3.57287,0.47896 3.64654,0.49107 0.0737,0.0121 0.13214,-0.1186 0.12995,-0.29048 z m -7.6746,-1.1155 c 0,-0.073 0.34152,-0.11575 0.75893,-0.0949 0.41741,0.0208 0.91283,-0.0164 1.10092,-0.0827 0.37636,-0.13268 -8.40953,-0.61945 -9.27056,-0.51361 -0.29464,0.0362 0.70982,0.23575 2.23214,0.44342 2.78426,0.37981 5.17857,0.49436 5.17857,0.24775 z"
         style="opacity:0.5;fill:#000000;fill-opacity:1;fill-rule:nonzero;stroke:#000000;stroke-width:0.17857143;stroke-linecap:round;stroke-linejoin:round;stroke-miterlimit:4;stroke-opacity:1;stroke-dasharray:none" />
      <path
         inkscape:connector-curvature="0"
         id="path5736"
         d="m 359.68312,266.27996 c -0.16944,-0.12388 -0.17431,-0.36395 -0.21796,-10.73661 -0.0405,-9.62246 -0.0313,-10.63067 0.0982,-10.83311 0.17034,-0.26612 0.45333,-0.32999 0.61246,-0.13824 0.10225,0.12321 1.14526,0.13824 9.5904,0.13826 l 9.47568,2e-5 0.91872,0.63353 c 0.91868,0.63349 1.24828,0.9686 1.13422,1.15317 -0.0334,0.054 -0.0551,4.43453 -0.0484,9.73455 0.0125,9.77969 0.009,9.90112 -0.29917,10.10681 -0.054,0.0361 -4.82159,0.0662 -10.59457,0.067 -8.92492,10e-4 -10.52227,-0.0176 -10.66964,-0.12534 l 0,0 z m 20.539,-19.27061 c -0.0353,-0.30692 -0.10759,-0.5855 -0.16069,-0.61907 -0.1314,-0.0831 -1.2819,-0.18498 -1.6677,-0.14772 l -0.3125,0.0302 0.3125,0.15125 c 0.17188,0.0832 0.55781,0.19776 0.85764,0.25461 0.89069,0.16889 1.00086,0.38033 0.25635,0.49198 -0.51967,0.0779 -0.50909,0.19255 0.0244,0.26443 0.23326,0.0314 0.46428,0.0709 0.51339,0.0877 0.21633,0.0741 0.23716,0.0135 0.1766,-0.51336 l 0,0 z m -1.29267,0.29017 c 0,-0.0491 -0.0402,-0.0893 -0.0893,-0.0893 -0.0491,0 -0.0893,0.0402 -0.0893,0.0893 0,0.0491 0.0402,0.0893 0.0893,0.0893 0.0491,0 0.0893,-0.0402 0.0893,-0.0893 z m -0.75893,-0.0893 c -0.0303,-0.0491 -0.0729,-0.0893 -0.0946,-0.0893 -0.0217,0 -0.0394,0.0402 -0.0394,0.0893 0,0.0491 0.0426,0.0893 0.0946,0.0893 0.052,0 0.0697,-0.0402 0.0394,-0.0893 z m 0.41853,0.0283 c -0.0645,-0.0258 -0.14147,-0.0226 -0.17113,0.007 -0.0297,0.0297 0.0231,0.0508 0.11718,0.0469 0.10402,-0.004 0.12517,-0.0254 0.0539,-0.054 l 0,0 z m -0.66443,-0.0807 c -0.1189,-0.1189 -0.69061,-0.18647 -1.01443,-0.1199 l -0.34681,0.0713 0.33003,-0.0138 c 0.18152,-0.008 0.35897,0.0151 0.39434,0.0505 0.0354,0.0354 0.20494,0.0643 0.37682,0.0643 0.17187,0 0.28889,-0.0236 0.26005,-0.0524 l 0,0 z m -1.45499,-0.20795 c -0.1535,-0.14806 -0.5759,-0.15354 -0.5759,-0.007 0,0.0491 0.14866,0.0893 0.33036,0.0893 0.20234,0 0.29749,-0.0317 0.24554,-0.0818 z m -0.66518,-0.042 c 0,-0.019 -0.12054,-0.0522 -0.26786,-0.0738 -0.14732,-0.0216 -0.26786,-0.006 -0.26786,0.0345 0,0.0406 0.12054,0.0738 0.26786,0.0738 0.14732,0 0.26786,-0.0155 0.26786,-0.0345 z m -0.78125,-0.11779 c -0.11049,-0.0213 -0.20089,-0.0771 -0.20089,-0.12398 0,-0.18082 0.53611,-0.27337 1.67081,-0.28842 0.89944,-0.0119 1.15401,-0.0403 1.07143,-0.11946 -0.14474,-0.13871 -8.8267,-0.66118 -10.73332,-0.64591 l -1.42857,0.0114 1.25,0.17056 c 0.6875,0.0938 1.35463,0.1516 1.48252,0.12844 0.12788,-0.0232 0.28093,0.006 0.34011,0.0647 0.0838,0.0831 0.0932,0.069 0.0426,-0.0639 -0.0629,-0.16504 -0.0197,-0.16865 1.31167,-0.10947 2.49278,0.11079 2.86576,0.15302 2.7383,0.31002 -0.0934,0.11502 -0.0872,0.12832 0.0381,0.0814 0.0832,-0.0311 0.19678,6.6e-4 0.25565,0.0716 0.0583,0.0702 0.13343,0.11065 0.16704,0.0899 0.0336,-0.0208 0.11946,-2.4e-4 0.19078,0.0456 0.10512,0.0676 0.10752,0.0977 0.0127,0.15894 -0.0804,0.0519 -0.0385,0.0799 0.13392,0.0895 0.138,0.008 0.47188,0.049 0.74197,0.0919 0.49439,0.0785 1.29953,0.11127 0.91518,0.0372 l 0,0 z m -1.95576,-0.27181 c 0.0228,-0.0368 -0.13175,-0.067 -0.34335,-0.067 -0.2116,0 -0.36611,0.0301 -0.34335,0.067 0.0228,0.0368 0.17727,0.067 0.34335,0.067 0.16608,0 0.32059,-0.0301 0.34335,-0.067 z m -0.92371,-0.0565 c 0,-0.0188 -0.10044,-0.0534 -0.22321,-0.0769 -0.12277,-0.0235 -0.22321,-0.008 -0.22321,0.0342 0,0.0423 0.10044,0.0769 0.22321,0.0769 0.12277,0 0.22321,-0.0154 0.22321,-0.0342 z m -0.89285,-0.18301 c -0.17188,-0.0629 -0.43304,-0.0962 -0.58036,-0.0741 -0.38541,0.0579 -0.39208,0.11033 -0.0122,0.096 0.17905,-0.007 0.35214,0.0144 0.38466,0.0469 0.0325,0.0325 0.16292,0.0561 0.28978,0.0523 0.20975,-0.006 0.20234,-0.0171 -0.0818,-0.12116 z m 0.99888,-0.0223 c -0.0644,-0.0258 -0.14146,-0.0226 -0.17113,0.007 -0.0297,0.0297 0.0231,0.0508 0.11719,0.0469 0.10401,-0.004 0.12517,-0.0254 0.0539,-0.0539 l 0,0 z m -1.98103,-0.0628 c 0,-0.019 -0.12053,-0.0522 -0.26785,-0.0738 -0.14732,-0.0216 -0.26786,-0.006 -0.26786,0.0345 0,0.0406 0.12054,0.0738 0.26786,0.0738 0.14732,0 0.26785,-0.0155 0.26785,-0.0345 z"
         style="opacity:0.5;fill:#000000;fill-opacity:1;fill-rule:nonzero;stroke:#000000;stroke-width:0.08928572;stroke-linecap:round;stroke-linejoin:round;stroke-miterlimit:4;stroke-opacity:1;stroke-dasharray:none" />
      <path
         inkscape:connector-curvature="0"
         id="path5738"
         d="m 359.68312,266.27996 c -0.16944,-0.12388 -0.17431,-0.36395 -0.21796,-10.73661 -0.0405,-9.62246 -0.0313,-10.63067 0.0982,-10.83311 0.17034,-0.26612 0.45333,-0.32999 0.61246,-0.13824 0.10225,0.1232 1.1445,0.13824 9.58278,0.13824 l 9.46805,0 0.8809,0.59207 c 0.94337,0.63407 1.27201,0.96357 1.1845,1.18758 -0.0301,0.077 -0.05,4.46883 -0.0443,9.75963 0.0105,9.75599 0.007,9.88374 -0.30044,10.08882 -0.054,0.0361 -4.82159,0.0662 -10.59457,0.067 -8.92492,10e-4 -10.52227,-0.0176 -10.66964,-0.12534 l 0,0 z m 20.47338,-18.91235 c 0.0113,-0.15063 -0.005,-0.16815 -0.0644,-0.0712 -0.0437,0.0707 -0.0596,0.16059 -0.0354,0.19976 0.0674,0.10899 0.0835,0.0882 0.0998,-0.12854 z m -0.34048,-0.0564 c 0.0491,-0.0917 0.0663,-0.18983 0.0382,-0.21796 -0.0763,-0.0763 -0.38902,0.14264 -0.38902,0.27235 0,0.17233 0.25029,0.13354 0.35086,-0.0544 z m -1.04282,-0.0709 c -0.0614,-0.0248 -0.16183,-0.0248 -0.22322,0 -0.0614,0.0248 -0.0112,0.045 0.11161,0.045 0.12277,0 0.17299,-0.0203 0.11161,-0.045 z m -0.78125,-0.11944 c -0.24812,-0.10662 -0.49107,-0.10662 -0.49107,0 0,0.0491 0.15067,0.0865 0.33482,0.083 0.26859,-0.005 0.2995,-0.0214 0.15625,-0.083 z m -0.95982,-0.0615 c -0.0859,-0.0225 -0.22657,-0.0225 -0.3125,0 -0.0859,0.0224 -0.0156,0.0408 0.15625,0.0408 0.17187,0 0.24218,-0.0184 0.15625,-0.0408 z m -0.60268,-0.11703 c 0,-0.0491 -0.0502,-0.0905 -0.11161,-0.0921 -0.6358,-0.0158 -1.27657,-0.0993 -1.29991,-0.16929 -0.017,-0.0509 -0.10967,-0.057 -0.2239,-0.0148 -0.10721,0.0396 -0.25521,0.0522 -0.32887,0.0279 -0.0737,-0.0242 -0.10213,-0.0101 -0.0633,0.0314 0.0389,0.0415 0.42055,0.12229 0.84821,0.17957 1.03174,0.13819 1.17936,0.14286 1.17936,0.0373 z m 3.5973,-0.17857 c -0.0257,-0.0982 -0.0621,-0.17857 -0.0809,-0.17857 -0.0188,0 -0.0342,0.0804 -0.0342,0.17857 0,0.0982 0.0364,0.17857 0.0809,0.17857 0.0445,0 0.0599,-0.0804 0.0342,-0.17857 l 0,0 z m -0.42522,-0.0853 c -0.0253,-0.041 0.014,-0.0976 0.0874,-0.12573 0.21545,-0.0827 0.15352,-0.21215 -0.12074,-0.2524 -0.22552,-0.0331 -0.25319,-0.0111 -0.24554,0.1956 0.006,0.15514 0.0614,0.23693 0.1668,0.24498 0.087,0.007 0.13746,-0.0215 0.11212,-0.0624 z m -6.25911,-0.2826 c -0.10093,-0.16331 -1.96295,-0.25526 -2.20315,-0.10879 -0.0368,0.0225 -0.067,0.005 -0.067,-0.0391 0,-0.0439 -0.16739,-0.0865 -0.37197,-0.0945 -0.58081,-0.0228 -0.31396,0.10864 0.44486,0.21905 0.71311,0.10376 2.25706,0.12014 2.19722,0.0233 l 0,0 z m 5.63693,-0.031 c 0.15871,-0.12004 0.12818,-0.13141 -0.3624,-0.13491 -0.29464,-0.002 -0.69643,-0.0301 -0.89286,-0.0623 -0.32076,-0.0525 -0.34511,-0.0439 -0.23905,0.0849 0.20819,0.25282 1.20908,0.32806 1.49431,0.11232 z m -3.41059,-0.22605 c 0.17975,0 0.32497,0.0445 0.32497,0.0997 0,0.0587 0.0806,0.0786 0.19625,0.0484 0.10794,-0.0282 0.25627,-0.003 0.32964,0.0565 0.10517,0.0851 0.1192,0.0843 0.0663,-0.004 -0.0435,-0.0724 -0.0103,-0.11359 0.0945,-0.11726 0.14323,-0.005 0.1413,-0.0138 -0.017,-0.0771 -0.0982,-0.0393 -0.78125,-0.0959 -1.51786,-0.12572 -1.38269,-0.056 -1.60568,-0.0266 -0.56335,0.0744 0.50382,0.0488 0.59007,0.0813 0.55075,0.20759 -0.0416,0.13372 -0.0329,0.13302 0.0821,-0.007 0.0796,-0.0966 0.25278,-0.15625 0.45372,-0.15625 l 0,0 z m -5.52324,0 c 0.0344,-0.0557 -0.12315,-0.0853 -0.41884,-0.0787 -0.40326,0.009 -0.43404,0.0207 -0.20616,0.0787 0.3938,0.10021 0.56307,0.10021 0.625,0 z m 3.02993,-0.18793 c -0.0665,-0.10756 -0.37196,-0.10178 -0.44001,0.008 -0.0313,0.0506 0.005,0.0656 0.084,0.0351 0.0762,-0.0293 0.13857,-0.01 0.13857,0.0429 0,0.0528 0.06,0.073 0.13342,0.0448 0.0734,-0.0282 0.11118,-0.0872 0.084,-0.13113 z m -4.18593,0.017 c -0.0278,-0.0449 0,-0.102 0.0617,-0.12687 0.0627,-0.0253 0.0335,-0.0516 -0.0664,-0.0597 -0.0982,-0.008 -0.26828,-0.0245 -0.37792,-0.0367 -0.15231,-0.0169 -0.17712,0.005 -0.10513,0.0914 0.0518,0.0624 0.18171,0.13056 0.28864,0.15137 0.10692,0.0208 0.20682,0.0433 0.222,0.05 0.0152,0.007 0.005,-0.0246 -0.0229,-0.0695 l 0,0 z m 2.91381,-0.0686 c -0.0645,-0.0258 -0.14146,-0.0226 -0.17113,0.007 -0.0297,0.0297 0.0231,0.0508 0.11719,0.0469 0.10401,-0.004 0.12517,-0.0254 0.0539,-0.0539 l 0,0 z m -4.72656,-0.16223 c 0.0135,-0.0539 -0.29584,-0.0939 -0.78125,-0.10097 l -0.80357,-0.0117 0.71428,0.11147 c 0.80394,0.12546 0.83946,0.12551 0.87054,0.001 l 0,0 z m 2.22656,0.0729 c -0.0645,-0.0258 -0.14146,-0.0226 -0.17113,0.007 -0.0297,0.0297 0.0231,0.0508 0.11719,0.0469 0.10401,-0.004 0.12517,-0.0254 0.0539,-0.0539 l 0,0 z m 1.43415,0.002 c -0.0614,-0.0248 -0.16183,-0.0248 -0.22321,0 -0.0614,0.0248 -0.0112,0.045 0.11161,0.045 0.12276,0 0.17299,-0.0203 0.1116,-0.045 z"
         style="opacity:0.5;fill:#000000;fill-opacity:1;fill-rule:nonzero;stroke:#000000;stroke-width:0.08928572;stroke-linecap:round;stroke-linejoin:round;stroke-miterlimit:4;stroke-opacity:1;stroke-dasharray:none" />
      <path
         inkscape:connector-curvature="0"
         id="path5740"
         d="m 359.68312,266.27996 c -0.16944,-0.12388 -0.17431,-0.36395 -0.21796,-10.73661 -0.0469,-11.14234 -0.0532,-10.92834 0.32766,-11.0745 0.0763,-0.0293 0.25089,0.0131 0.38804,0.0941 0.22746,0.13436 1.07518,0.1473 9.65415,0.1473 l 9.4048,0 0.86704,0.58279 c 0.92854,0.62413 1.27308,0.97204 1.18525,1.19686 -0.0301,0.077 -0.05,4.46883 -0.0443,9.75963 0.0105,9.75599 0.007,9.88374 -0.30044,10.08882 -0.054,0.0361 -4.82159,0.0662 -10.59457,0.067 -8.92492,10e-4 -10.52227,-0.0176 -10.66964,-0.12534 l 0,0 z m 20.53338,-19.27061 c -0.0321,-0.25782 -0.10447,-0.51821 -0.16081,-0.57866 -0.1044,-0.11202 -4.42159,-0.43679 -4.63722,-0.34884 -0.0578,0.0236 0.003,0.046 0.13517,0.0499 0.30761,0.009 0.40532,0.15942 0.14053,0.21628 -0.11122,0.0239 0.11088,0.0288 0.49355,0.0108 0.80123,-0.0375 1.95582,0.0734 2.9203,0.28057 1.08062,0.23212 1.15881,0.45815 0.1889,0.5461 -0.9382,0.0851 -0.63339,0.22686 0.59542,0.27697 l 0.38254,0.0156 -0.0584,-0.46875 z m -1.91205,0.20089 c -0.17311,-0.11187 -0.26786,-0.11187 -0.26786,0 0,0.0491 0.0904,0.0887 0.20089,0.0879 0.16245,-10e-4 0.17527,-0.0179 0.067,-0.0879 z m -0.37983,-0.0524 c -0.0866,-0.0866 -0.6916,-0.20173 -0.6916,-0.1316 0,0.13042 0.12574,0.18405 0.43155,0.18405 0.17187,0 0.28889,-0.0236 0.26005,-0.0524 z m -0.84785,-0.096 c -0.0614,-0.0248 -0.16183,-0.0248 -0.22321,0 -0.0614,0.0248 -0.0112,0.045 0.1116,0.045 0.12277,0 0.17299,-0.0203 0.11161,-0.045 z m -0.64732,-0.11944 c 0,-0.0491 -0.0603,-0.0893 -0.13393,-0.0893 l -0.20089,0 c -0.0368,0 -0.0804,0.0402 -0.0967,0.0893 -0.0164,0.0491 0.074,0.0893 0.20089,0.0893 0.12686,0 0.23066,-0.0402 0.23066,-0.0893 z m -0.71429,-0.0893 c -0.31915,-0.10222 -0.44643,-0.10222 -0.44643,0 0,0.0491 0.15067,0.0853 0.33483,0.0804 0.29881,-0.008 0.31081,-0.0166 0.1116,-0.0804 z m -0.58943,-0.0894 c -0.12955,-0.12954 -0.80771,-0.20735 -1.08913,-0.12496 -0.2235,0.0654 -0.21179,0.0748 0.16071,0.12908 0.66706,0.0971 1.02806,0.0955 0.92842,-0.004 l 0,0 z m -1.58323,-0.23799 c -0.0677,-0.0677 -0.3069,-0.1008 -0.80702,-0.11156 -0.31545,-0.007 -0.33515,-0.0211 -0.22475,-0.16369 0.0927,-0.11972 0.073,-0.11525 -0.0842,0.0191 -0.19054,0.16285 -0.19362,0.17992 -0.0431,0.23926 0.20641,0.0814 1.23859,0.0964 1.15906,0.0169 z m -1.47131,-0.0907 c -0.0645,-0.0258 -0.14146,-0.0226 -0.17113,0.007 -0.0297,0.0297 0.0231,0.0508 0.11719,0.0469 0.10401,-0.004 0.12517,-0.0254 0.0539,-0.0539 l 0,0 z m -0.625,-0.0893 c -0.0645,-0.0258 -0.14146,-0.0226 -0.17113,0.007 -0.0297,0.0297 0.0231,0.0508 0.11719,0.0469 0.10401,-0.004 0.12517,-0.0254 0.0539,-0.0539 l 0,0 z m 3.82254,-0.21642 c 0,-0.0439 -0.0603,-0.0797 -0.13392,-0.0797 -0.0737,0 -0.13393,0.059 -0.13393,0.13113 0,0.0799 0.0523,0.11104 0.13393,0.0797 0.0737,-0.0283 0.13392,-0.0873 0.13392,-0.13112 z m -0.40178,-0.0797 c -0.0305,-0.0494 -0.36228,-0.0822 -0.74188,-0.0735 l -0.68669,0.0158 0.625,0.0577 c 0.34375,0.0318 0.67759,0.0649 0.74187,0.0735 0.0643,0.009 0.092,-0.0244 0.0617,-0.0735 z m -6.35803,-0.17869 c 0.0257,-0.0983 0.0103,-0.15618 -0.0342,-0.12866 -0.0445,0.0275 -0.081,0.10793 -0.081,0.1787 0,0.18479 0.0607,0.15844 0.11519,-0.05 l 0,0 z m -0.93848,-0.10368 c -0.043,-0.12914 -0.31901,-0.17679 -0.38698,-0.0668 -0.0276,0.0447 -0.11053,0.0813 -0.18419,0.0813 -0.0737,0 -0.11412,-0.032 -0.0899,-0.0712 0.0242,-0.0392 -0.28481,-0.0758 -0.6867,-0.0815 l -0.73071,-0.0103 0.71428,0.11359 c 0.96602,0.15362 1.40756,0.16491 1.36421,0.0349 z m 1.86839,-0.0187 c 0.0353,-0.0353 -0.0823,-0.0544 -0.26144,-0.0423 -0.17913,0.0121 -0.31113,0.0455 -0.29334,0.0743 0.0445,0.072 0.4757,0.0471 0.55478,-0.032 l 0,0 z"
         style="opacity:0.5;fill:#000000;fill-opacity:1;fill-rule:nonzero;stroke:#000000;stroke-width:0.08928572;stroke-linecap:round;stroke-linejoin:round;stroke-miterlimit:4;stroke-opacity:1;stroke-dasharray:none" />
      <path
         inkscape:connector-curvature="0"
         id="path5742"
         d="m 359.68312,266.27996 c -0.16944,-0.12388 -0.17431,-0.36395 -0.21796,-10.73661 -0.0469,-11.14996 -0.0535,-10.92823 0.32953,-11.07521 0.0773,-0.0297 0.22564,2.8e-4 0.32962,0.0666 0.15464,0.0985 1.91943,0.12752 9.69177,0.15913 l 9.5027,0.0387 0.8098,0.56124 c 1.05481,0.73106 1.25155,0.94156 1.17289,1.25497 -0.0333,0.13265 -0.0683,4.59792 -0.0779,9.92283 -0.017,9.47026 -0.0211,9.68442 -0.19066,9.80841 -0.26013,0.19023 -21.08959,0.19027 -21.3498,4e-5 l 0,0 z m 20.08238,-18.93528 c -0.0281,-0.0734 -0.0872,-0.11119 -0.13112,-0.084 -0.12607,0.0779 -0.0932,0.21744 0.0512,0.21744 0.0796,0 0.11102,-0.0524 0.0799,-0.13342 l 0,0 z m -0.65748,-0.0452 c 0,-0.0491 -0.0603,-0.0893 -0.13393,-0.0893 -0.0737,0 -0.13393,0.0402 -0.13393,0.0893 0,0.0491 0.0603,0.0893 0.13393,0.0893 0.0737,0 0.13393,-0.0402 0.13393,-0.0893 z m -1.47321,-0.17857 c 0.0303,-0.0491 -0.007,-0.0893 -0.084,-0.0893 -0.0766,0 -0.1392,0.0402 -0.1392,0.0893 0,0.0491 0.0378,0.0893 0.084,0.0893 0.0462,0 0.10885,-0.0402 0.1392,-0.0893 z m 2.36607,-0.005 c 0,-0.052 -0.0402,-0.0697 -0.0893,-0.0394 -0.0491,0.0303 -0.0893,0.0729 -0.0893,0.0946 0,0.0216 0.0402,0.0394 0.0893,0.0394 0.0491,0 0.0893,-0.0426 0.0893,-0.0946 l 0,0 z m -2.79018,-0.0563 c -0.0859,-0.0225 -0.22656,-0.0225 -0.3125,0 -0.0859,0.0224 -0.0156,0.0408 0.15625,0.0408 0.17187,0 0.24219,-0.0184 0.15625,-0.0408 z m -0.87054,-0.11703 c 0,-0.0491 -0.0603,-0.0893 -0.13393,-0.0893 -0.0737,0 -0.13392,0.0402 -0.13392,0.0893 0,0.0491 0.0603,0.0893 0.13392,0.0893 0.0737,0 0.13393,-0.0402 0.13393,-0.0893 z m -0.84821,-0.0893 c -0.0303,-0.0491 -0.0729,-0.0893 -0.0946,-0.0893 -0.0216,0 -0.0394,0.0402 -0.0394,0.0893 0,0.0491 0.0426,0.0893 0.0946,0.0893 0.052,0 0.0697,-0.0402 0.0394,-0.0893 z m 0.41853,0.0283 c -0.0645,-0.0258 -0.14147,-0.0226 -0.17114,0.007 -0.0297,0.0297 0.0231,0.0508 0.11719,0.0469 0.10401,-0.004 0.12517,-0.0254 0.0539,-0.0539 l 0,0 z m -0.798,-0.12036 c -0.22954,-0.0923 -0.26976,-0.26508 -0.0617,-0.26508 0.0794,0 0.11284,-0.0426 0.0779,-0.0993 -0.0337,-0.0546 -0.007,-0.13277 0.0591,-0.17372 0.0663,-0.041 0.10049,-0.0944 0.0761,-0.11884 -0.13016,-0.13016 -9.48464,-0.60311 -9.36745,-0.47361 0.026,0.0287 1.95457,0.29653 4.28571,0.59511 2.33115,0.29858 4.31881,0.55644 4.41702,0.57301 0.0982,0.0166 0.29911,0.0331 0.44643,0.0366 0.24636,0.006 0.25173,2e-5 0.067,-0.0743 l 0,0 z m 4.79911,-0.39263 c 0,-0.0281 -0.0804,-0.051 -0.17857,-0.051 -0.16933,0 -0.24252,0.17414 -0.1233,0.29337 0.0547,0.0547 0.30187,-0.1438 0.30187,-0.24235 z m 0.18965,0.10374 c -0.0882,-0.0875 -0.0984,-0.0773 -0.05,0.05 0.0335,0.0881 0.0834,0.1376 0.11094,0.11011 0.0275,-0.0275 6e-5,-0.0995 -0.061,-0.1601 z m -1.52893,-0.0655 c 0,-0.0491 0.0804,-0.0893 0.17857,-0.0893 0.0982,0 0.17857,0.0316 0.17857,0.0703 0,0.0954 0.3422,0.11541 0.39911,0.0233 0.068,-0.11009 -0.55707,-0.1797 -2.07154,-0.2307 -0.74795,-0.0252 -1.4186,-0.0683 -1.49032,-0.0958 -0.0717,-0.0275 -0.20305,-0.0312 -0.29186,-0.008 -0.11366,0.0294 -0.094,0.0449 0.0662,0.0522 0.12522,0.006 0.27237,0.0551 0.327,0.10969 0.058,0.058 0.51244,0.10863 1.0919,0.12166 0.54592,0.0123 1.01818,0.0479 1.04948,0.0792 0.0921,0.0921 0.56287,0.0651 0.56287,-0.0324 z"
         style="opacity:0.5;fill:#000000;fill-opacity:1;fill-rule:nonzero;stroke:#000000;stroke-width:0.08928572;stroke-linecap:round;stroke-linejoin:round;stroke-miterlimit:4;stroke-opacity:1;stroke-dasharray:none" />
      <path
         inkscape:connector-curvature="0"
         id="path5744"
         d="m 359.68312,266.27996 c -0.16944,-0.12388 -0.17431,-0.36395 -0.21796,-10.73661 -0.0469,-11.14996 -0.0535,-10.92823 0.32953,-11.07521 0.0773,-0.0297 0.22564,2.8e-4 0.32962,0.0666 0.15464,0.0985 1.91943,0.12752 9.69177,0.15913 l 9.5027,0.0387 0.8098,0.56124 c 1.05481,0.73106 1.25155,0.94156 1.17289,1.25497 -0.0333,0.13265 -0.0683,4.59792 -0.0779,9.92283 -0.017,9.47026 -0.0211,9.68442 -0.19066,9.80841 -0.26013,0.19023 -21.08959,0.19027 -21.3498,4e-5 l 0,0 z m 20.5526,-19.00276 c -0.0296,-0.11049 -0.0544,-0.33006 -0.055,-0.48793 -0.002,-0.4694 0.33695,-0.41999 -5.09051,-0.74207 -0.81027,-0.0481 -1.77455,-0.10938 -2.14285,-0.13622 -0.51569,-0.0376 -0.63286,-0.0258 -0.50966,0.0514 0.14928,0.0935 0.14496,0.11203 -0.0645,0.27676 -0.17573,0.13823 -0.29769,0.16331 -0.56178,0.11555 -0.18552,-0.0335 -0.31302,-0.0347 -0.28331,-0.003 0.0297,0.0321 1.31542,0.22108 2.85714,0.41989 1.54173,0.1988 3.34555,0.43436 4.00849,0.52346 0.66295,0.0891 1.36072,0.16664 1.5506,0.17232 0.31635,0.009 0.34073,-0.006 0.29139,-0.19057 l 0,0 z m -9.63216,-1.11065 c -0.0859,-0.0225 -0.22657,-0.0225 -0.3125,0 -0.0859,0.0225 -0.0156,0.0408 0.15625,0.0408 0.17187,0 0.24218,-0.0184 0.15625,-0.0408 z m -1.07313,-0.0896 c -0.0869,-0.0226 -0.20741,-0.0212 -0.26786,0.003 -0.0605,0.0245 0.0106,0.043 0.15795,0.0412 0.14732,-0.002 0.19678,-0.0218 0.10991,-0.0445 l 0,0 z m 1.9883,-0.20599 c 0.0943,-0.0609 -0.0247,-0.0851 -0.40178,-0.0816 -0.38102,0.003 -0.48415,0.0271 -0.35714,0.0816 0.24356,0.10467 0.59697,0.10467 0.75892,0 z m -1.42857,-0.10842 c 0,-0.0386 -0.10282,-0.0701 -0.22848,-0.0701 -0.12567,0 -0.20897,0.0316 -0.18513,0.0701 0.0238,0.0386 0.12667,0.0702 0.22849,0.0702 0.10182,0 0.18512,-0.0316 0.18512,-0.0702 z m 0.37947,0.0493 c -0.0614,-0.0248 -0.16183,-0.0248 -0.22322,0 -0.0614,0.0248 -0.0112,0.045 0.11161,0.045 0.12277,0 0.17299,-0.0203 0.11161,-0.045 z m -3.38219,-0.12216 c -0.0609,-0.0609 -0.16499,-0.0628 -0.30804,-0.006 -0.20298,0.0811 -0.19743,0.0867 0.092,0.092 0.21143,0.004 0.27918,-0.0232 0.21603,-0.0864 l 0,0 z m 1.18959,-0.0294 c 0.0314,-0.0314 -0.10786,-0.0572 -0.30957,-0.0572 -0.20172,0 -0.38827,0.0348 -0.41456,0.0773 -0.0541,0.0875 0.63572,0.0683 0.72413,-0.0202 z m -1.95919,-0.0294 c -0.0859,-0.0224 -0.22656,-0.0224 -0.3125,0 -0.0859,0.0225 -0.0156,0.0408 0.15625,0.0408 0.17188,0 0.24219,-0.0184 0.15625,-0.0408 z"
         style="opacity:0.5;fill:#000000;fill-opacity:1;fill-rule:nonzero;stroke:#000000;stroke-width:0.08928572;stroke-linecap:round;stroke-linejoin:round;stroke-miterlimit:4;stroke-opacity:1;stroke-dasharray:none" />
      <path
         inkscape:connector-curvature="0"
         id="path5746"
         d="m 359.64373,266.2281 c -0.17648,-0.17649 -0.17858,-0.29829 -0.17955,-10.42411 -5.4e-4,-5.63505 -0.0247,-10.38918 -0.0538,-10.56474 -0.0427,-0.25817 -0.0101,-0.36892 0.17078,-0.57915 0.21238,-0.24691 0.23916,-0.25431 0.53414,-0.14764 0.23822,0.0861 2.51191,0.12536 9.76323,0.16841 l 9.45269,0.0561 0.80358,0.55878 c 1.04606,0.72741 1.24507,0.9405 1.1674,1.24996 -0.0329,0.13102 -0.0679,4.5963 -0.0779,9.92284 -0.0177,9.47274 -0.0219,9.68739 -0.19141,9.81136 -0.14737,0.10777 -1.74786,0.12675 -10.69197,0.12675 -10.3996,0 -10.52067,-0.002 -10.69722,-0.17857 z m 20.552,-19.19643 c -0.0382,-0.59554 -0.18486,-0.67823 -1.32762,-0.74869 -0.531,-0.0327 -1.30697,-0.0809 -1.72438,-0.10709 -1.05453,-0.0661 -0.74119,0.0928 0.44643,0.22637 2.18456,0.24574 3.07929,0.64416 1.75379,0.78097 -0.27708,0.0286 -0.50379,0.0842 -0.50379,0.12365 0,0.0775 0.56852,0.14936 1.07015,0.1353 l 0.31121,-0.009 -0.0258,-0.40178 z m -2.47164,0.0893 c -0.0714,-0.11552 -0.22321,-0.11552 -0.22321,0 0,0.0491 0.0626,0.0893 0.1392,0.0893 0.0765,0 0.11436,-0.0402 0.084,-0.0893 z m -0.38504,-0.061 c -0.0645,-0.0258 -0.14147,-0.0226 -0.17113,0.007 -0.0297,0.0297 0.0231,0.0508 0.11718,0.0469 0.10402,-0.004 0.12517,-0.0254 0.0539,-0.0539 l 0,0 z m -0.99889,-0.11758 c 0,-0.0491 -0.0603,-0.0893 -0.13393,-0.0893 -0.0737,0 -0.13392,0.0402 -0.13392,0.0893 0,0.0491 0.0603,0.0893 0.13392,0.0893 0.0737,0 0.13393,-0.0402 0.13393,-0.0893 z m -1.39391,-0.28401 c -0.0316,-0.0512 -0.0162,-0.11874 0.0343,-0.15008 0.0505,-0.0313 0.10587,-0.13684 0.12305,-0.23444 0.028,-0.15919 -0.0377,-0.18483 -0.6384,-0.24905 -0.3683,-0.0394 -0.85044,-0.0504 -1.07143,-0.0244 -0.22098,0.026 -0.50022,0.0557 -0.62053,0.066 -0.12031,0.0104 -0.29418,0.0943 -0.38637,0.18644 -0.0922,0.0922 -0.22478,0.14568 -0.29464,0.11887 -0.0699,-0.0268 -0.12703,-0.0169 -0.12703,0.022 0,0.0757 2.85539,0.45425 2.97021,0.3938 0.0376,-0.0198 0.0425,-0.0779 0.0109,-0.12912 l 0,0 z m -3.08552,-0.29661 c -0.0337,-0.0337 -1.9119,-0.31224 -2.10573,-0.31224 -0.0187,0 -0.009,-0.0804 0.0227,-0.17857 0.0518,-0.16326 0.016,-0.17859 -0.41809,-0.17887 -0.26112,-1.6e-4 -1.11762,-0.0206 -1.90334,-0.0454 -0.78571,-0.0248 -1.37295,-0.0195 -1.30496,0.0117 0.14104,0.0649 4.98496,0.72009 5.44931,0.7371 0.16778,0.006 0.28485,-0.009 0.26015,-0.0337 z m 4.39015,-0.13366 c 0,-0.0491 -0.10282,-0.0893 -0.22849,-0.0893 -0.12958,0 -0.2046,0.0386 -0.1733,0.0893 0.0303,0.0491 0.13317,0.0893 0.22849,0.0893 0.0953,0 0.1733,-0.0402 0.1733,-0.0893 z m -0.78683,-0.15028 c -0.0645,-0.0258 -0.14147,-0.0226 -0.17113,0.007 -0.0297,0.0297 0.0231,0.0508 0.11718,0.0469 0.10402,-0.004 0.12517,-0.0254 0.0539,-0.0539 l 0,0 z m -4.0346,-0.20687 c 0,-0.0512 -0.2377,-0.0843 -0.55804,-0.0775 -0.47829,0.0101 -0.51338,0.0212 -0.24553,0.0775 0.47304,0.0996 0.80357,0.0996 0.80357,0 z m 0.91414,0.0261 c -0.11107,-0.0214 -0.27178,-0.0205 -0.35715,0.002 -0.0854,0.0224 0.006,0.0398 0.20194,0.0388 0.19643,-9.9e-4 0.26627,-0.0193 0.15521,-0.0406 l 0,0 z"
         style="opacity:0.5;fill:#000000;fill-opacity:1;fill-rule:nonzero;stroke:#000000;stroke-width:0.08928572;stroke-linecap:round;stroke-linejoin:round;stroke-miterlimit:4;stroke-opacity:1;stroke-dasharray:none" />
      <path
         inkscape:connector-curvature="0"
         id="path5748"
         d="m 359.68312,266.27996 c -0.16944,-0.12388 -0.17431,-0.36395 -0.21796,-10.73661 -0.0408,-9.69696 -0.0321,-10.6291 0.10069,-10.83311 0.1102,-0.16927 0.2073,-0.21598 0.40178,-0.19326 0.14105,0.0165 4.56169,0.0768 9.82363,0.13393 l 9.56717,0.10397 0.75687,0.51958 c 1.004,0.68923 1.264,0.96411 1.19016,1.25831 -0.0313,0.12486 -0.0665,4.59054 -0.0781,9.92373 -0.0207,9.48289 -0.0249,9.6995 -0.19444,9.82344 -0.26014,0.19022 -21.08962,0.19024 -21.3498,2e-5 l 0,0 z m 20.49005,-19.0474 c -0.006,-0.21757 -0.015,-0.2252 -0.083,-0.067 -0.10479,0.24387 -0.10479,0.3125 0,0.3125 0.0491,0 0.0865,-0.11049 0.083,-0.24554 z m -0.32481,-0.0282 0.19716,-0.18441 -0.25135,0.0951 c -0.13824,0.0523 -0.38936,0.0951 -0.55803,0.0951 -0.16868,0 -0.30669,0.0402 -0.30669,0.0893 0,0.17223 0.71186,0.0985 0.91891,-0.0951 z m -2.16891,-0.13337 c 0,-0.0217 -0.0402,-0.0394 -0.0893,-0.0394 -0.0491,0 -0.0893,0.0426 -0.0893,0.0945 0,0.052 0.0402,0.0697 0.0893,0.0394 0.0491,-0.0303 0.0893,-0.0729 0.0893,-0.0946 z m -1.33929,-0.17857 c 0,-0.0217 -0.0402,-0.0394 -0.0893,-0.0394 -0.0491,0 -0.0893,0.0425 -0.0893,0.0945 0,0.052 0.0402,0.0697 0.0893,0.0394 0.0491,-0.0303 0.0893,-0.0729 0.0893,-0.0945 z m -1.3901,-0.22793 c -0.0337,-0.0546 -0.02,-0.12491 0.0304,-0.15625 0.0505,-0.0313 0.10587,-0.13734 0.12305,-0.23555 0.0295,-0.16843 -0.0448,-0.18436 -1.30804,-0.28038 -2.75443,-0.20939 -7.77282,-0.43263 -7.56558,-0.33655 0.16627,0.0771 7.84866,1.0876 8.3521,1.09861 0.29417,0.006 0.41006,-0.0219 0.36802,-0.0899 l 0,0 z m 4.76685,-0.10162 c -0.0265,-0.18666 -0.0907,-0.20623 -0.9056,-0.27621 -0.48238,-0.0414 -0.9031,-0.0493 -0.93491,-0.0175 -0.10292,0.10292 0.16974,0.20473 0.7129,0.26618 0.29196,0.033 0.61852,0.0954 0.72567,0.13856 0.32925,0.13267 0.4325,0.10414 0.40194,-0.11106 z m -2.12675,-0.24554 c 0,-0.0491 -0.0904,-0.0887 -0.20089,-0.0879 -0.16245,0.001 -0.17526,0.0179 -0.067,0.0879 0.1731,0.11187 0.26785,0.11187 0.26785,0 z m -0.49107,-0.0893 c -0.0303,-0.0491 -0.33643,-0.0893 -0.68018,-0.0893 -0.39393,0 -0.6046,0.033 -0.56982,0.0893 0.0303,0.0491 0.33643,0.0893 0.68018,0.0893 0.39393,0 0.6046,-0.033 0.56982,-0.0893 z"
         style="opacity:0.5;fill:#000000;fill-opacity:1;fill-rule:nonzero;stroke:#000000;stroke-width:0.08928572;stroke-linecap:round;stroke-linejoin:round;stroke-miterlimit:4;stroke-opacity:1;stroke-dasharray:none" />
      <path
         inkscape:connector-curvature="0"
         id="path5750"
         d="m 364.0901,266.40667 c -3.40077,-0.0349 -4.37356,-0.0699 -4.46429,-0.16069 -0.0933,-0.0934 -0.12473,-2.18683 -0.16065,-10.71429 -0.0408,-9.68619 -0.0321,-10.61745 0.10069,-10.82145 0.10966,-0.16843 0.20826,-0.21626 0.40178,-0.19487 0.14105,0.0156 4.55164,0.0678 9.8013,0.11601 l 9.54485,0.0877 0.79003,0.54111 c 0.43452,0.29761 0.87234,0.6271 0.97293,0.7322 0.18214,0.19032 0.18286,0.23115 0.17664,10.03395 -0.004,5.93767 -0.0397,9.93079 -0.0905,10.06448 -0.0463,0.12188 -0.17608,0.24029 -0.28831,0.26313 -0.32152,0.0654 -11.98117,0.10206 -16.78447,0.0528 z m 16.08935,-19.27841 c 0,-0.19242 -0.0244,-0.4134 -0.0542,-0.49108 -0.0776,-0.20232 -0.30294,-0.17455 -0.30294,0.0373 0,0.0982 0.0435,0.17858 0.0967,0.17858 0.0532,0 0.0802,0.0502 0.06,0.1116 -0.0214,0.0651 -0.33128,0.15113 -0.74404,0.20651 l -0.70735,0.0949 0.58036,0.0946 c 1.05486,0.17197 1.07143,0.16837 1.07143,-0.23247 l 0,0 z m -1.88244,0.0483 c -0.0205,-0.0185 -0.31845,-0.0555 -0.6622,-0.0822 -0.40236,-0.0313 -0.51368,-0.0235 -0.3125,0.0219 0.3284,0.0741 1.03847,0.11801 0.9747,0.0603 z m -3.33922,-0.49954 c -0.0295,-0.0477 0.0127,-0.18794 0.0937,-0.31159 0.11953,-0.18243 0.12444,-0.23244 0.026,-0.26519 -0.28995,-0.0965 -8.7262,-0.53808 -8.80346,-0.46082 -0.0492,0.0492 0.26998,0.0952 3.49001,0.50274 1.56394,0.19794 3.19118,0.41422 3.61607,0.48061 0.95012,0.14847 1.65079,0.17256 1.57766,0.0542 l 0,0 z m 4.09323,-0.22574 c 0.035,-0.0911 -0.005,-0.13393 -0.12437,-0.13393 -0.17545,0 -0.22886,0.0957 -0.11625,0.20834 0.0964,0.0964 0.18566,0.0688 0.24062,-0.0744 z m 0.44643,0 c 0.031,-0.0808 4.5e-4,-0.13393 -0.0769,-0.13393 -0.0774,0 -0.10792,0.0532 -0.0769,0.13393 0.0283,0.0737 0.0629,0.13393 0.0769,0.13393 0.014,0 0.0487,-0.0603 0.0769,-0.13393 z m -1.5055,-0.13393 c 0.0331,-0.0535 -0.081,-0.0895 -0.28491,-0.0898 -0.18705,-2.9e-4 -0.68161,-0.0255 -1.09902,-0.0561 -0.5431,-0.0397 -0.73339,-0.028 -0.66914,0.0412 0.0494,0.0532 0.43108,0.11046 0.84821,0.1272 0.41714,0.0167 0.84646,0.0386 0.95405,0.0486 0.1076,0.01 0.22046,-0.022 0.25081,-0.0711 z"
         style="opacity:0.5;fill:#000000;fill-opacity:1;fill-rule:nonzero;stroke:#000000;stroke-width:0.08928572;stroke-linecap:round;stroke-linejoin:round;stroke-miterlimit:4;stroke-opacity:1;stroke-dasharray:none" />
      <path
         sodipodi:nodetypes="cccc"
         inkscape:connector-curvature="0"
         id="path5752"
         d="m 362.62091,244.54764 0,5.5398 15.40451,0 0,-5.5398"
         style="fill:#030000;fill-opacity:1;stroke:#ced2d5;stroke-width:0.29498708;stroke-linecap:round;stroke-linejoin:round;stroke-miterlimit:4;stroke-opacity:1;stroke-dasharray:none" />
      <path
         sodipodi:nodetypes="cccc"
         inkscape:connector-curvature="0"
         id="path5752-4"
         d="m 364.87323,250.12041 0,-5.53024 10.98229,0 0,5.53024"
         style="fill:#c5c6c5;fill-opacity:1;stroke:#ced2d5;stroke-width:0.2488573;stroke-linecap:round;stroke-linejoin:round;stroke-miterlimit:4;stroke-opacity:1;stroke-dasharray:none" />
      <g
         transform="matrix(1.2434075,0,0,1.0233741,-82.969619,26.240181)"
         id="g5778">
        <rect
           style="opacity:0.5;fill:#000000;fill-opacity:1;fill-rule:nonzero;stroke:#000000;stroke-width:0.285;stroke-linecap:round;stroke-linejoin:round;stroke-miterlimit:4;stroke-opacity:1;stroke-dasharray:none"
           id="rect5772"
           width="2.6785715"
           height="3.4821429"
           x="364.91071"
           y="214.23718" />
        <path
           style="opacity:0.5;fill:#000000;fill-opacity:1;fill-rule:nonzero;stroke:#000000;stroke-width:0.02544643;stroke-linecap:round;stroke-linejoin:round;stroke-miterlimit:4;stroke-opacity:1;stroke-dasharray:none"
           d="m 364.82231,216.00715 0,-1.83263 1.43042,0 1.43042,0 -0.0242,1.80804 -0.0242,1.80804 -1.40625,0.0246 -1.40625,0.0246 0,-1.83262 z"
           id="path5774"
           inkscape:connector-curvature="0" />
        <path
           style="opacity:0.5;fill:#000000;fill-opacity:1;fill-rule:nonzero;stroke:#000000;stroke-width:0.02544643;stroke-linecap:round;stroke-linejoin:round;stroke-miterlimit:4;stroke-opacity:1;stroke-dasharray:none"
           d="m 364.82231,215.98724 0,-1.81272 1.40625,-5e-5 1.40625,-6e-5 -0.0305,1.76345 c -0.0168,0.9699 -0.0369,1.76887 -0.0447,1.7755 -0.008,0.007 -0.62685,0.0288 -1.37574,0.0493 l -1.3616,0.0373 0,-1.81271 z"
           id="path5776"
           inkscape:connector-curvature="0" />
      </g>
      <path
         sodipodi:nodetypes="cccc"
         inkscape:connector-curvature="0"
         id="path5752-4-9"
         d="m 362.80518,266.29446 0,-12.06063 15.10394,0 0,12.06063"
         style="fill:#c5c6c5;fill-opacity:1;stroke:#ced2d5;stroke-width:0.43098494;stroke-linecap:round;stroke-linejoin:round;stroke-miterlimit:4;stroke-opacity:1;stroke-dasharray:none" />
      <path
         sodipodi:nodetypes="cccc"
         inkscape:connector-curvature="0"
         id="path5752-4-4"
         d="m 360.14668,264.9262 0,-1.6459 1.67094,0 0,1.6459"
         style="fill:#c5c6c5;fill-opacity:1;stroke:#ced2d5;stroke-width:0.0529562;stroke-linecap:round;stroke-linejoin:round;stroke-miterlimit:4;stroke-opacity:1;stroke-dasharray:none" />
      <path
         sodipodi:nodetypes="cccc"
         inkscape:connector-curvature="0"
         id="path5752-4-4-0"
         d="m 378.98596,264.97085 0,-1.6459 1.67094,0 0,1.6459"
         style="fill:#c5c6c5;fill-opacity:1;stroke:#ced2d5;stroke-width:0.0529562;stroke-linecap:round;stroke-linejoin:round;stroke-miterlimit:4;stroke-opacity:1;stroke-dasharray:none" />
      <path
         inkscape:connector-curvature="0"
         id="path5844"
         d="m 364.37501,257.00504 11.42857,0"
         style="fill:none;stroke:#000000;stroke-width:1px;stroke-linecap:butt;stroke-linejoin:miter;stroke-opacity:1" />
      <path
         inkscape:connector-curvature="0"
         id="path5844-3"
         d="m 364.28572,260.13003 11.42857,0"
         style="fill:none;stroke:#000000;stroke-width:1px;stroke-linecap:butt;stroke-linejoin:miter;stroke-opacity:1" />
      <path
         inkscape:connector-curvature="0"
         id="path5844-6"
         d="m 364.46429,263.88004 11.42857,0"
         style="fill:none;stroke:#000000;stroke-width:1px;stroke-linecap:butt;stroke-linejoin:miter;stroke-opacity:1" />
    </g>
  </g>
</svg>
