<?xml version="1.0" encoding="UTF-8" standalone="no"?>
<svg
   xmlns:dc="http://purl.org/dc/elements/1.1/"
   xmlns:cc="http://creativecommons.org/ns#"
   xmlns:rdf="http://www.w3.org/1999/02/22-rdf-syntax-ns#"
   xmlns:svg="http://www.w3.org/2000/svg"
   xmlns="http://www.w3.org/2000/svg"
   xmlns:xlink="http://www.w3.org/1999/xlink"
   xmlns:sodipodi="http://sodipodi.sourceforge.net/DTD/sodipodi-0.dtd"
   xmlns:inkscape="http://www.inkscape.org/namespaces/inkscape"
   width="27.299999"
   height="28.35"
   id="svg2"
   version="1.1"
   inkscape:version="0.48.2 r9819"
   sodipodi:docname="settings4.svg">
  <sodipodi:namedview
     pagecolor="#ffffff"
     bordercolor="#666666"
     borderopacity="1"
     objecttolerance="10"
     gridtolerance="10"
     guidetolerance="10"
     inkscape:pageopacity="0"
     inkscape:pageshadow="2"
     inkscape:window-width="1280"
     inkscape:window-height="974"
     id="namedview57"
     showgrid="false"
     fit-margin-top="0"
     fit-margin-left="0"
     fit-margin-right="0"
     fit-margin-bottom="0"
     inkscape:zoom="9.7823834"
     inkscape:cx="17.717048"
     inkscape:cy="5.1788842"
     inkscape:window-x="-8"
     inkscape:window-y="-8"
     inkscape:window-maximized="1"
     inkscape:current-layer="svg2" />
  <title
     id="title4">gear</title>
  <defs
     id="defs6">
    <linearGradient
       id="linearGradient3510">
      <stop
         stop-color="#9394b8"
         id="stop3512"
         offset="0" />
      <stop
         stop-color="#9394b8"
         stop-opacity="0"
         id="stop3514"
         offset="1" />
    </linearGradient>
    <linearGradient
       id="linearGradient4777">
      <stop
         stop-color="#7f7f7f"
         id="stop4779"
         offset="0" />
      <stop
         stop-color="#ffffff"
         offset="1"
         id="stop4809" />
    </linearGradient>
    <linearGradient
       id="linearGradient4771">
      <stop
         stop-color="#ffffff"
         offset="0"
         id="stop4773" />
      <stop
         stop-color="#ffffff"
         stop-opacity="0"
         offset="1"
         id="stop4775" />
    </linearGradient>
    <linearGradient
       id="linearGradient4763">
      <stop
         stop-color="#ffffff"
         id="stop4765"
         offset="0" />
      <stop
         stop-color="#ffffff"
         stop-opacity="0"
         id="stop4767"
         offset="1" />
    </linearGradient>
    <linearGradient
       id="linearGradient4568">
      <stop
         stop-color="#9394b8"
         id="stop4570"
         offset="0" />
      <stop
         stop-color="#ffffff"
         offset="1"
         id="stop4807" />
    </linearGradient>
    <linearGradient
       gradientUnits="userSpaceOnUse"
       y2="70.96875"
       x2="-676.28125"
       y1="-543.67883"
       x1="-1290.975"
       id="linearGradient4574"
       xlink:href="#linearGradient4568" />
    <linearGradient
       gradientUnits="userSpaceOnUse"
       y2="71.512238"
       x2="-989.94952"
       y1="-214.36911"
       x1="-989.94952"
       id="linearGradient4711"
       xlink:href="#linearGradient4568" />
    <linearGradient
       gradientTransform="translate(832.3657,771.75654)"
       gradientUnits="userSpaceOnUse"
       y2="-236.11523"
       x2="-979.84796"
       y1="66.4533"
       x1="-979.84796"
       id="linearGradient4769"
       xlink:href="#linearGradient4777" />
    <linearGradient
       gradientTransform="translate(832.3657,771.75654)"
       gradientUnits="userSpaceOnUse"
       y2="71.440598"
       x2="-982.85712"
       y1="-544.7807"
       x1="-982.85712"
       id="linearGradient4797"
       xlink:href="#linearGradient4568" />
    <linearGradient
       y2="71.440598"
       x2="-982.85712"
       y1="-544.7807"
       x1="-982.85712"
       gradientTransform="translate(832.3657,771.75654)"
       gradientUnits="userSpaceOnUse"
       id="linearGradient4817"
       xlink:href="#linearGradient4568" />
    <linearGradient
       y2="-236.11523"
       x2="-979.84796"
       y1="66.4533"
       x1="-979.84796"
       gradientTransform="translate(832.3657,771.75654)"
       gradientUnits="userSpaceOnUse"
       id="linearGradient4819"
       xlink:href="#linearGradient4777" />
    <linearGradient
       y2="-236.11523"
       x2="-979.84796"
       y1="66.4533"
       x1="-979.84796"
       gradientTransform="matrix(0.6445874,0,0,-0.6297777,1002.1094,322.38324)"
       gradientUnits="userSpaceOnUse"
       id="linearGradient4822"
       xlink:href="#linearGradient4777" />
    <linearGradient
       y2="71.440598"
       x2="-982.85712"
       y1="-544.7807"
       x1="-982.85712"
       gradientTransform="matrix(0.6445874,0,0,0.6297777,1002.1094,620.40148)"
       gradientUnits="userSpaceOnUse"
       id="linearGradient4827"
       xlink:href="#linearGradient4568" />
    <linearGradient
       y2="-236.11523"
       x2="-979.84796"
       y1="66.4533"
       x1="-979.84796"
       gradientTransform="matrix(0.6445874,0,0,-0.6297777,1001.6842,322.38324)"
       gradientUnits="userSpaceOnUse"
       id="linearGradient4842"
       xlink:href="#linearGradient4777" />
    <linearGradient
       y2="71.440598"
       x2="-982.85712"
       y1="-544.7807"
       x1="-982.85712"
       gradientTransform="matrix(0.6445874,0,0,-0.6297777,828.01495,44.991419)"
       gradientUnits="userSpaceOnUse"
       id="linearGradient4852"
       xlink:href="#linearGradient4568" />
    <linearGradient
       y2="-236.1319"
       x2="-987.5874"
       y1="74.615929"
       x1="-987.5874"
       gradientTransform="matrix(0.6445874,0,0,-0.6297777,1002.1094,322.33206)"
       gradientUnits="userSpaceOnUse"
       id="linearGradient4873"
       xlink:href="#linearGradient4568" />
    <linearGradient
       y2="71.440598"
       x2="-982.85712"
       y1="-544.7807"
       x1="-982.85712"
       gradientTransform="matrix(0.6445874,0,0,-0.6297777,946.39511,366.67006)"
       gradientUnits="userSpaceOnUse"
       id="linearGradient4886"
       xlink:href="#linearGradient4568" />
    <linearGradient
       gradientUnits="userSpaceOnUse"
       y2="277.38016"
       x2="371.2373"
       y1="663.96436"
       x1="371.2373"
       id="linearGradient4902"
       xlink:href="#linearGradient4568" />
    <linearGradient
       gradientUnits="userSpaceOnUse"
       y2="196.38329"
       x2="249.67178"
       y1="196.38329"
       x1="114.49531"
       id="linearGradient3516"
       xlink:href="#linearGradient3510" />
    <linearGradient
       gradientTransform="matrix(1.3338949,0,0,1.3338949,125.21415,189.43825)"
       y2="263.96893"
       x2="182.29773"
       y1="129.76848"
       x1="182.29773"
       gradientUnits="userSpaceOnUse"
       id="linearGradient3538"
       xlink:href="#linearGradient4568" />
    <linearGradient
       y2="-236.1319"
       x2="-987.5874"
       y1="74.615929"
       x1="-987.5874"
       gradientTransform="matrix(0.6445874,0,0,-0.6297777,1002.1094,304.33206)"
       gradientUnits="userSpaceOnUse"
       id="linearGradient3761"
       xlink:href="#linearGradient4568" />
    <linearGradient
       gradientTransform="translate(0,-20)"
       gradientUnits="userSpaceOnUse"
       y2="277.42972"
       x2="365.01328"
       y1="664.38275"
       x1="365.01328"
       id="linearGradient3785"
       xlink:href="#linearGradient4568" />
    <linearGradient
       y2="-236.1319"
       x2="-987.5874"
       y1="74.615929"
       x1="-987.5874"
       gradientTransform="matrix(0.6445874,0,0,-0.6297777,1002.1094,304.33206)"
       gradientUnits="userSpaceOnUse"
       id="linearGradient3799"
       xlink:href="#linearGradient4568" />
    <linearGradient
       y2="277.42972"
       x2="365.01328"
       y1="664.38275"
       x1="365.01328"
       gradientTransform="translate(0,-20)"
       gradientUnits="userSpaceOnUse"
       id="linearGradient3801"
       xlink:href="#linearGradient4568" />
    <linearGradient
       y2="263.96893"
       x2="182.29773"
       y1="129.76848"
       x1="182.29773"
       gradientTransform="matrix(1.3338949,0,0,1.3338949,125.21415,189.43825)"
       gradientUnits="userSpaceOnUse"
       id="linearGradient3803"
       xlink:href="#linearGradient4568" />
    <linearGradient
       y2="1.000002"
       x2="0.501625"
       y1="0.007303"
       x1="0.501625"
       id="linearGradient3806"
       xlink:href="#linearGradient4568" />
    <linearGradient
       y2="-1.0035779"
       x2="0.50747597"
       y1="0.99478298"
       x1="0.50747597"
       id="linearGradient3809"
       xlink:href="#linearGradient4568" />
    <linearGradient
       y2="1.000075"
       x2="0.49384099"
       y1="-0.010599"
       x1="0.49384099"
       id="linearGradient3813"
       xlink:href="#linearGradient4568" />
  </defs>
  <metadata
     id="metadata7">image/svg+xml<rdf:RDF>
  <cc:Work
     rdf:about="">
    <dc:format>image/svg+xml</dc:format>
    <dc:type
       rdf:resource="http://purl.org/dc/dcmitype/StillImage" />
  </cc:Work>
</rdf:RDF>
</metadata>
  <g
     id="g47"
     transform="matrix(0.06991636,0,0,0.06735754,0.11900012,1.8905663)">
    <title
       id="title49">Layer 1</title>
    <g
       externalResourcesRequired="false"
       id="layer1">
      <g
         id="g2290">
        <path
           stroke-miterlimit="4"
           d="m 62.8125,48.072693 16.4375,45.1875 c -0.03551,0.03839 -0.05829,0.08658 -0.09375,0.125 l 0.125,0.375 c -6.91243,7.533907 -13.130524,15.847417 -18.5,24.906247 l -49.5,-1.34375 c -0.981583,2.22409 -1.985153,4.44559 -2.875,6.6875 -1.21228,3.05432 -2.330963,6.10505 -3.375,9.1875 -1.043655,3.08258 -2.02916,6.20716 -2.90625,9.3125 -0.785675,2.78211 -1.472458,5.5499 -2.125,8.34375 l 40.5,27.09375 c -0.04924,0.44422 -0.0174,0.89896 -0.0625,1.34375 l 0.28125,0.1875 c -0.465698,4.72357 -0.621506,9.44803 -0.625,14.15625 l 88.9375,0 c 0.0178,-2.83725 0.25076,-5.67804 0.65625,-8.46875 0.40546,-2.79071 1.00079,-5.54474 1.78125,-8.25 0.78046,-2.70526 1.73221,-5.35653 2.875,-7.9375 1.14279,-2.58096 2.47629,-5.08221 3.96875,-7.5 1.49246,-2.41778 3.13928,-4.75302 4.96875,-6.96875 1.82947,-2.21573 3.84616,-4.30645 6,-6.28125 2.15384,-1.97476 4.4407,-3.83627 6.90625,-5.53125 2.46555,-1.69494 5.11041,-3.24875 7.875,-4.625 1.9729,-0.98214 3.94766,-1.82794 5.96875,-2.59375 2.02109,-0.7658 4.07019,-1.44589 6.125,-2 2.05481,-0.55411 4.11346,-0.99676 6.1875,-1.34375 0.97446,-0.16302 1.96115,-0.2257 2.9375,-0.34375 0.33383,-0.043 0.66531,-0.0871 1,-0.125 0.76926,-0.081 1.54321,-0.22778 2.3125,-0.28125 0.75201,-0.0522 1.49866,-0.005 2.25,-0.0312 0.85345,-0.0369 1.70621,-0.059 2.5625,-0.0625 0.46866,0.002 0.93835,-0.0433 1.40625,-0.0312 0.34445,0.009 0.68732,0.0482 1.03125,0.0625 1.71768,0.0572 3.43722,0.21198 5.15625,0.40625 7.37845,0.83384 14.74649,2.85727 21.75,6.34375 22.11658,11.01007 34.82608,32.86463 34.96875,55.5625 l 89.03122,0 c -9.8e-4,-4.72622 -0.21802,-9.47732 -0.6875,-14.21875 l 41,-27.4375 c -0.012,-0.0529 -0.0504,-0.10336 -0.0625,-0.15625 -0.7121,-3.12265 -1.49799,-6.23837 -2.375,-9.34375 -0.87695,-3.10534 -1.83124,-6.19867 -2.875,-9.28125 -1.0437,-3.08258 -2.16272,-6.13318 -3.375,-9.1875 -0.88007,-2.21737 -1.84046,-4.42917 -2.8125,-6.625 l -49.12497,1.34375 c -0.32849,-0.5552 -0.72672,-1.07364 -1.0625,-1.625 l -0.3125,0 c -2.40787,-3.95306 -4.96716,-7.77523 -7.6875,-11.4375 -2.72034,-3.66226 -5.58698,-7.169858 -8.59375,-10.531247 l 16.6875,-45.8125 c -1.45001,-1.264618 -2.89124,-2.530914 -4.375,-3.75 -2.46719,-2.02713 -4.97525,-4.006409 -7.53125,-5.90625 -2.55603,-1.899841 -5.17328,-3.729248 -7.8125,-5.5 -2.63925,-1.770752 -5.31439,-3.485077 -8.03125,-5.125 -0.77728,-0.469177 -1.55521,-0.927673 -2.34375,-1.375 l -39,29.34375 c -0.56766,-0.248901 -1.14954,-0.414703 -1.71875,-0.65625 l -0.0937,0.0625 c -4.30518,-1.830902 -8.70319,-3.437378 -13.15625,-4.875 -4.45306,-1.437622 -8.95871,-2.680023 -13.53125,-3.71875 l -0.0625,-0.15625 c -0.0222,-0.0049 -0.0403,-0.02631 -0.0625,-0.03125 L 213.7188,1.072793 c -1.97339,-0.203613 -3.92493,-0.448456 -5.90625,-0.59375 -3.18457,-0.233521 -6.39328,-0.354401 -9.59375,-0.4375 -2.14056,-0.055573 -4.28888,-0.0383 -6.4375,-0.03125 -1.07559,0.011414 -2.14496,-0.027863 -3.21875,0 -3.20038,0.083099 -6.37793,0.235229 -9.5625,0.46875 -1.01263,0.074219 -2.02094,0.223022 -3.03125,0.3125 l -14,46.375 c -10.15869,2.096832 -20.0712,5.180359 -29.59375,9.21875 L 93,26.791443 c -1.315674,0.753784 -2.638794,1.465942 -3.9375,2.25 -2.716919,1.639893 -5.391724,3.35434 -8.03125,5.125 -2.639267,1.770782 -5.256516,3.600128 -7.8125,5.5 -2.556046,1.899811 -5.063965,3.87912 -7.53125,5.90625 -0.980408,0.805634 -1.911575,1.671356 -2.875,2.5 z m 181.78125,39.28125 c 1.3598,0.09421 2.74118,0.451538 4.03125,1.09375 5.16028,2.568909 7.22305,8.770752 4.59375,13.812497 -2.62933,5.04172 -8.96472,7.03766 -14.125,4.46875 -5.16028,-2.56887 -7.22308,-8.739499 -4.59375,-13.781247 1.97195,-3.781311 6.01437,-5.876373 10.09375,-5.59375 z m -148.875,47.281247 c 1.359772,0.0942 2.74118,0.45154 4.03125,1.09375 5.16037,2.56894 7.22308,8.73957 4.59375,13.78125 -2.6294,5.04172 -8.964691,7.03766 -14.125,4.46875 -5.160309,-2.56888 -7.223145,-8.73953 -4.59375,-13.78125 1.972015,-3.78128 6.014404,-5.84512 10.09375,-5.5625 z"
           id="path4850"
           inkscape:connector-curvature="0"
           style="fill:#000000;fill-rule:nonzero;stroke-width:33.80530548;stroke-linecap:round;stroke-miterlimit:4;stroke-dashoffset:0;marker-start:none;marker-mid:none;marker-end:none" />
        <path
           stroke-miterlimit="4"
           d="m 324.25,337.92725 -16.4375,-45.1875 c 0.0355,-0.0384 0.0583,-0.0866 0.0937,-0.125 l -0.125,-0.375 c 6.91241,-7.53388 13.13052,-15.84742 18.5,-24.90625 l 49.49997,1.34375 c 0.98163,-2.22413 1.98517,-4.44562 2.875,-6.6875 1.21228,-3.05433 2.33099,-6.10505 3.375,-9.1875 1.0437,-3.08258 2.02917,-6.20719 2.90625,-9.3125 0.78571,-2.78211 1.47247,-5.5499 2.125,-8.34375 l -40.5,-27.09375 c 0.0492,-0.44422 0.0174,-0.89896 0.0625,-1.34375 l -0.28125,-0.1875 c 0.4657,-4.72358 0.62152,-9.44806 0.625,-14.15625 l -88.93747,0 c -0.0178,2.83725 -0.25079,5.67804 -0.65625,8.46875 -0.40549,2.79068 -1.00079,5.5447 -1.78125,8.25 -0.78046,2.70526 -1.73221,5.35653 -2.875,7.9375 -1.14279,2.58096 -2.47629,5.08221 -3.96875,7.5 -1.49246,2.41775 -3.13928,4.75302 -4.96875,6.96875 -1.82947,2.21569 -3.84616,4.30645 -6,6.28125 -2.15384,1.97476 -4.4407,3.83627 -6.90625,5.53125 -2.46555,1.69494 -5.11041,3.24871 -7.875,4.625 -1.9729,0.98211 -3.94766,1.82791 -5.96875,2.59375 -2.02109,0.7658 -4.07019,1.44589 -6.125,2 -2.05481,0.55407 -4.11346,0.99676 -6.1875,1.34375 -0.97446,0.16302 -1.96115,0.2257 -2.9375,0.34375 -0.33383,0.043 -0.66531,0.0872 -1,0.125 -0.76929,0.081 -1.54321,0.22778 -2.3125,0.28125 -0.75201,0.0522 -1.49866,0.005 -2.25,0.0312 -0.85346,0.0369 -1.70621,0.059 -2.5625,0.0625 -0.46866,-0.002 -0.93835,0.0433 -1.40625,0.0312 -0.34445,-0.009 -0.68732,-0.0482 -1.03125,-0.0625 -1.71768,-0.0572 -3.43723,-0.21198 -5.15625,-0.40625 -7.37845,-0.83387 -14.74649,-2.85727 -21.75,-6.34375 -22.11658,-11.01007 -34.82608,-32.86463 -34.96875,-55.5625 l -89.03125,0 c 0.001,4.72619 0.218063,9.47729 0.6875,14.21875 L 0,234.021 c 0.012024,0.0529 0.050446,0.10336 0.0625,0.15625 0.712112,3.12265 1.498016,6.23837 2.375,9.34375 0.876999,3.10531 1.831268,6.19867 2.875,9.28125 1.043732,3.08258 2.16275,6.13317 3.375,9.1875 0.880081,2.21734 1.840454,4.42919 2.8125,6.625 L 60.625,267.271 c 0.328491,0.55517 0.726715,1.07367 1.0625,1.625 l 0.3125,0 c 2.407852,3.95306 4.967163,7.7752 7.6875,11.4375 2.720322,3.66223 5.58696,7.16986 8.59375,10.53125 l -16.6875,45.8125 c 1.450012,1.26458 2.891235,2.53088 4.375,3.75 2.467194,2.0271 4.97525,4.00641 7.53125,5.90618 2.556046,1.89991 5.173264,3.72931 7.8125,5.5 2.639252,1.77082 5.314392,3.48511 8.03125,5.125 0.777283,0.46924 1.555176,0.92774 2.34375,1.375 l 39,-29.34368 c 0.56766,0.2489 1.14954,0.41473 1.71875,0.65618 l 0.0937,-0.0625 c 4.30518,1.83094 8.70319,3.43744 13.15625,4.875 4.45306,1.43763 8.95871,2.68012 13.53125,3.71882 l 0.0625,0.15618 c 0.0222,0.005 0.0403,0.0263 0.0625,0.0313 l 14.03125,46.5625 c 1.97339,0.20361 3.9249,0.44842 5.90625,0.59368 3.18457,0.23365 6.39328,0.35444 9.59375,0.4375 2.14056,0.0556 4.28888,0.0383 6.4375,0.0313 1.07559,-0.0114 2.14496,0.0279 3.21875,0 3.20038,-0.0831 6.37793,-0.2353 9.5625,-0.46882 1.01263,-0.0742 2.0209,-0.22296 3.03125,-0.3125 l 14,-46.375 c 10.15869,-2.0968 20.0712,-5.18029 29.59375,-9.21868 l 39.375,29.59368 c 1.31567,-0.75366 2.63876,-1.46588 3.9375,-2.25 2.71692,-1.63989 5.39172,-3.3543 8.03125,-5.125 2.63928,-1.77069 5.25653,-3.60009 7.8125,-5.5 2.55606,-1.89978 5.06396,-3.87908 7.53125,-5.90618 0.98041,-0.80567 1.91156,-1.67139 2.875,-2.5 z M 142.46875,298.64593 c -1.3598,-0.0942 -2.74118,-0.45147 -4.03125,-1.09368 -5.16028,-2.56891 -7.22305,-8.77082 -4.59375,-13.8125 2.6293,-5.04175 8.96472,-7.03766 14.125,-4.46875 5.16028,2.56884 7.22305,8.73956 4.59375,13.78125 -1.97199,3.78131 -6.0144,5.8764 -10.09375,5.59368 z m 148.875,-47.28118 c -1.35977,-0.0942 -2.74118,-0.45154 -4.03125,-1.09375 -5.16037,-2.56894 -7.22308,-8.73957 -4.59375,-13.78125 2.62939,-5.04172 8.96469,-7.03766 14.125,-4.46875 5.16031,2.56887 7.22314,8.7395 4.59375,13.78125 -1.97202,3.78128 -6.01444,5.84512 -10.09375,5.5625 z"
           id="path3767"
           inkscape:connector-curvature="0"
           style="fill:#000000;fill-rule:nonzero;stroke-width:33.80530548;stroke-linecap:round;stroke-miterlimit:4;stroke-dashoffset:0;marker-start:none;marker-mid:none;marker-end:none" />
      </g>
      <path
         stroke-miterlimit="4"
         id="path2327"
         d="m 193.73236,98.699646 c -51.38983,0 -93.33093,41.899444 -93.33093,93.289274 0,51.38983 41.9411,93.33096 93.33093,93.33096 51.38986,0 93.28928,-41.94113 93.28928,-93.33096 0,-51.38983 -41.89942,-93.289274 -93.28928,-93.289274 z m 0,21.300634 c 39.86197,0 71.98865,32.12667 71.98865,71.98864 0,39.86194 -32.12668,72.03031 -71.98865,72.03031 -39.86194,0 -72.0303,-32.16837 -72.0303,-72.03031 0,-39.86197 32.16836,-71.98864 72.0303,-71.98864 z"
         inkscape:connector-curvature="0"
         style="fill:#ffffff;fill-rule:nonzero;stroke-width:15.9727726;stroke-linejoin:round;stroke-miterlimit:4;stroke-dashoffset:0" />
      <path
         stroke-miterlimit="4"
         id="path3500"
         d="m 193.73199,101.826 c -49.68299,0 -90.16299,40.47899 -90.16299,90.163 0,49.684 40.48,90.16301 90.16299,90.16301 49.68401,0 90.12201,-40.47901 90.12201,-90.16301 0,-49.68401 -40.438,-90.163 -90.122,-90.163 z m 0,15.006 c 41.56801,0 75.15702,33.589 75.15702,75.157 0,41.56801 -33.58901,75.157 -75.15702,75.157 -41.56799,0 -75.15599,-33.58899 -75.15599,-75.157 0,-41.56799 33.588,-75.157 75.15599,-75.157 z"
         inkscape:connector-curvature="0"
         style="fill:#000000;fill-rule:nonzero;stroke-width:11.24526405;stroke-linejoin:round;stroke-miterlimit:4;stroke-dashoffset:0" />
    </g>
  </g>
</svg>
