<?xml version="1.0" encoding="UTF-8" standalone="no"?>
<svg
   xmlns:dc="http://purl.org/dc/elements/1.1/"
   xmlns:cc="http://creativecommons.org/ns#"
   xmlns:rdf="http://www.w3.org/1999/02/22-rdf-syntax-ns#"
   xmlns:svg="http://www.w3.org/2000/svg"
   xmlns="http://www.w3.org/2000/svg"
   xmlns:xlink="http://www.w3.org/1999/xlink"
   xmlns:sodipodi="http://sodipodi.sourceforge.net/DTD/sodipodi-0.dtd"
   xmlns:inkscape="http://www.inkscape.org/namespaces/inkscape"
   width="27.299999"
   height="28.35"
   id="svg2"
   version="1.1"
   inkscape:version="0.48.2 r9819"
   sodipodi:docname="settings6.svg">
  <sodipodi:namedview
     pagecolor="#ffffff"
     bordercolor="#666666"
     borderopacity="1"
     objecttolerance="10"
     gridtolerance="10"
     guidetolerance="10"
     inkscape:pageopacity="0"
     inkscape:pageshadow="2"
     inkscape:window-width="1280"
     inkscape:window-height="974"
     id="namedview23"
     showgrid="false"
     fit-margin-top="0"
     fit-margin-left="0"
     fit-margin-right="0"
     fit-margin-bottom="0"
     inkscape:zoom="7.8666667"
     inkscape:cx="35.13493"
     inkscape:cy="39.015936"
     inkscape:window-x="-8"
     inkscape:window-y="-8"
     inkscape:window-maximized="1"
     inkscape:current-layer="svg2" />
  <metadata
     id="metadata7">image/svg+xml<rdf:RDF>
  <cc:Work
     rdf:about="">
    <dc:format>image/svg+xml</dc:format>
    <dc:type
       rdf:resource="http://purl.org/dc/dcmitype/StillImage" />
  </cc:Work>
</rdf:RDF>
</metadata>
  <defs
     id="defs5">
    <linearGradient
       id="linearGradient3703">
      <stop
         stop-color="white"
         offset="0"
         id="stop3705" />
      <stop
         stop-color="black"
         stop-opacity="0"
         offset="1"
         id="stop3707" />
    </linearGradient>
    <linearGradient
       id="linearGradient3693">
      <stop
         stop-color="black"
         id="stop3695"
         offset="0" />
      <stop
         stop-color="#c6d5e2"
         id="stop3697"
         offset="1" />
    </linearGradient>
    <linearGradient
       y2="62.257305"
       x2="11.692448"
       y1="106.54143"
       x1="55.531136"
       id="linearGradient6315"
       xlink:href="#linearGradient3703"
       gradientUnits="userSpaceOnUse" />
    <radialGradient
       r="70.871323"
       fy="151.10199"
       fx="257.43625"
       cy="151.10199"
       cx="257.43625"
       gradientTransform="matrix(0.53828,-0.621775,-0.312664,-0.270673,-52.68157,284.8531)"
       gradientUnits="userSpaceOnUse"
       id="radialGradient6318"
       xlink:href="#linearGradient3693" />
  </defs>
  <g
     id="g15"
     transform="matrix(0.43411593,0,0,0.44394243,-2.7866365,-23.239956)">
    <title
       id="title17">Layer 1</title>
    <g
       id="g2244">
      <path
         stroke-miterlimit="4"
         d="m 66.677429,87.548424 c -0.131172,1.394554 -0.353851,2.763153 -0.671516,4.094994 -2.621971,-0.173134 -4.999073,-0.327919 -7.083961,-0.447678 -0.367722,1.239899 -0.831833,2.439857 -1.395733,3.581467 1.623852,1.305367 3.483772,2.78891 5.543392,4.411034 -0.67857,1.214399 -1.441299,2.374419 -2.277931,3.476139 -2.327381,-1.22588 -4.439518,-2.32465 -6.293919,-3.278652 -0.822441,0.973372 -1.726421,1.876262 -2.69928,2.699282 0.954147,1.85233 2.05455,3.95672 3.278629,6.28076 -1.106709,0.84158 -2.268742,1.60914 -3.489311,2.29109 -1.622108,-2.05962 -3.094917,-3.91954 -4.397839,-5.54339 -1.14254,0.5648 -2.340431,1.02747 -3.581482,1.39572 0.117363,2.08651 0.261353,4.46131 0.434513,7.08396 -1.335743,0.31865 -2.69619,0.55365 -4.095001,0.68469 -0.642151,-2.53376 -1.232849,-4.8304 -1.7644,-6.84695 -0.344021,0.0155 -0.692379,0.0263 -1.040211,0.0263 -0.965839,0 -1.90987,-0.0672 -2.844109,-0.18434 -0.741119,1.96025 -1.581692,4.18712 -2.488611,6.64944 -1.369709,-0.24908 -2.705429,-0.5835 -4.002829,-1.01388 0.44311,-2.57023 0.836309,-4.91019 1.171888,-6.97861 -1.2547,-0.4842 -2.45875,-1.06205 -3.594648,-1.75124 -1.481482,1.4971 -3.141081,3.19585 -4.964041,5.06936 -1.13242,-0.77422 -2.20042,-1.62169 -3.21279,-2.54127 1.445129,-2.15994 2.757969,-4.12777 3.91066,-5.88574 -0.965441,-0.962265 -1.83947,-2.011581 -2.62027,-3.133789 -1.972481,0.77124 -4.184331,1.650719 -6.609941,2.620269 -0.71468,-1.15644 -1.34295,-2.366408 -1.89607,-3.620978 2.19234,-1.381233 4.18662,-2.652122 5.96474,-3.792152 -0.49532,-1.285629 -0.88976,-2.63015 -1.14554,-4.015999 -2.11958,-0.09844 -4.49037,-0.189621 -7.08396,-0.28968 -0.16355,-1.26049 -0.25017,-2.540009 -0.25017,-3.844841 0,-0.06617 -4.4e-4,-0.131416 0,-0.197487 2.553,-0.368301 4.88648,-0.708977 6.97861,-1.027046 0.07669,-1.44577 0.29702,-2.851646 0.63203,-4.213501 -1.90098,-0.954399 -4.02352,-2.003494 -6.34659,-3.146965 0.39098,-1.293999 0.86566,-2.55294 1.42206,-3.765831 2.48771,0.703621 4.77005,1.334732 6.820609,1.89608 0.663031,-1.27494 1.447191,-2.47538 2.330601,-3.59465 -1.34889,-1.646713 -2.85973,-3.475548 -4.51635,-5.464378 0.88137,-1.008369 1.835569,-1.949787 2.84412,-2.830948 1.98365,1.65229 3.80669,3.156021 5.45122,4.503189 1.12291,-0.885941 2.328331,-1.666489 3.607811,-2.330597 -0.563372,-2.051842 -1.20574,-4.333313 -1.909231,-6.820614 1.21306,-0.55648 2.471611,-1.031048 3.76582,-1.422047 1.145512,2.327229 2.202581,4.457077 3.16012,6.359756 1.362822,-0.33461 2.76676,-0.556087 4.213511,-0.632027 0.31855,-2.09494 0.657959,-4.433342 1.027039,-6.991783 0.06165,-3.78e-4 0.122612,0 0.184341,0 1.307289,0 2.595211,0.09918 3.85799,0.263351 0.10022,2.59697 0.19101,4.963661 0.28968,7.08395 1.39378,0.257309 2.736839,0.632858 4.02916,1.132381 1.141541,-1.776993 2.410671,-3.77195 3.79216,-5.964741 1.244518,0.549721 2.446781,1.18729 3.59465,1.89608 -0.968121,2.422009 -1.838989,4.637333 -2.607121,6.609936 1.113689,0.77565 2.164539,1.64946 3.120628,2.607117 1.755363,-1.154854 3.727093,-2.453239 5.885742,-3.897507 0.922138,1.014526 1.778339,2.090805 2.55444,3.225975 -1.87603,1.825378 -3.571671,3.495102 -5.069382,4.977196 0.681473,1.126396 1.271072,2.325356 1.751244,3.568321 2.064587,-0.337746 4.397968,-0.729248 6.96545,-1.171875 0.430328,1.296074 0.777649,2.634514 1.027039,4.002823 -2.46492,0.907867 -4.69873,1.74456 -6.662609,2.488602 0.117188,0.934235 0.184338,1.891441 0.184338,2.857269 0,0.351791 -0.01049,0.692329 -0.02633,1.040222 2.016521,0.53154 4.312973,1.1222 6.846939,1.764404 z M 42.0811,84.743798 c 0,-2.721397 -2.21629,-4.937698 -4.937702,-4.937698 -2.721397,0 -4.924538,2.216278 -4.924538,4.937698 0,2.72139 2.203129,4.92453 4.92453,4.92453 2.721409,0 4.93771,-2.203117 4.93771,-4.92453 z"
         id="path4774"
         inkscape:connector-curvature="0"
         style="fill:#000000;stroke:#000000;stroke-width:1.26868606;stroke-linecap:round;stroke-linejoin:round;stroke-miterlimit:4;stroke-opacity:0.26666703;stroke-dashoffset:0" />
      <path
         stroke-miterlimit="4"
         id="path4782"
         d="m 68.247147,86.763573 c -0.131157,1.394547 -0.353844,2.763161 -0.671524,4.094994 -2.621964,-0.173149 -4.999062,-0.327927 -7.083954,-0.447693 -0.367718,1.239906 -0.831829,2.439865 -1.395729,3.58149 1.623852,1.305344 3.483768,2.788895 5.543404,4.411011 -0.678585,1.214394 -1.441315,2.374425 -2.277943,3.476145 -2.327381,-1.22588 -4.439522,-2.324648 -6.293922,-3.278635 -0.822437,0.973343 -1.726418,1.876245 -2.69928,2.699265 0.954151,1.85233 2.05455,3.95672 3.278641,6.28076 -1.10672,0.84158 -2.268749,1.60914 -3.489319,2.29109 -1.622108,-2.05962 -3.094921,-3.91954 -4.397839,-5.54338 -1.14254,0.56479 -2.340443,1.02746 -3.581482,1.39571 0.117359,2.08651 0.261349,4.46131 0.434509,7.08396 -1.335739,0.31865 -2.69619,0.55365 -4.09499,0.68469 -0.64217,-2.53376 -1.232861,-4.83041 -1.764408,-6.84695 -0.344021,0.0155 -0.692383,0.0263 -1.040211,0.0263 -0.965839,0 -1.90987,-0.0672 -2.844109,-0.18435 -0.741123,1.96024 -1.581692,4.18712 -2.488613,6.64944 -1.369709,-0.24908 -2.705429,-0.58349 -4.002819,-1.01388 0.44311,-2.57024 0.836309,-4.91018 1.171881,-6.9786 -1.2547,-0.48421 -2.45875,-1.06206 -3.59465,-1.75125 -1.48148,1.4971 -3.141081,3.19585 -4.964041,5.06937 -1.13242,-0.77422 -2.200418,-1.6217 -3.21279,-2.54128 1.445129,-2.15993 2.757971,-4.12777 3.91066,-5.88573 -0.965439,-0.962281 -1.83947,-2.01159 -2.62027,-3.133798 -1.972481,0.77124 -4.18433,1.650719 -6.60994,2.62027 -0.714681,-1.156441 -1.34295,-2.366417 -1.89607,-3.620979 2.19234,-1.381218 4.18662,-2.652122 5.964741,-3.792152 -0.495321,-1.285629 -0.889761,-2.630142 -1.14554,-4.015999 -2.11958,-0.09844 -4.49036,-0.189613 -7.083961,-0.28968 -0.163549,-1.26049 -0.25017,-2.540009 -0.25017,-3.844826 0,-0.06617 -4.4e-4,-0.131447 0,-0.19751 2.553,-0.368294 4.88647,-0.708977 6.97861,-1.027031 0.07669,-1.445786 0.29702,-2.851646 0.63203,-4.213516 -1.900981,-0.954376 -4.02352,-2.003487 -6.346591,-3.146957 0.390981,-1.293999 0.865661,-2.55294 1.422071,-3.765816 2.4877,0.703606 4.770041,1.334717 6.820601,1.89608 0.663029,-1.274956 1.447189,-2.475395 2.330599,-3.59465 -1.34889,-1.646736 -2.85973,-3.475563 -4.51635,-5.464394 0.881361,-1.008369 1.835571,-1.94978 2.84412,-2.830948 1.98365,1.652298 3.80669,3.156021 5.45122,4.503189 1.122911,-0.885941 2.328331,-1.666489 3.607811,-2.330589 -0.56337,-2.051853 -1.20573,-4.333321 -1.909229,-6.820621 1.213058,-0.55648 2.471609,-1.03104 3.76582,-1.42205 1.14551,2.327232 2.202579,4.457081 3.160118,6.35976 1.36282,-0.33461 2.766762,-0.556091 4.213512,-0.63203 0.31855,-2.09494 0.657959,-4.433338 1.027039,-6.991779 0.06165,-3.81e-4 0.122601,0 0.184341,0 1.307289,0 2.595207,0.09919 3.85799,0.263351 0.10022,2.59697 0.19101,4.963669 0.28968,7.083958 1.39378,0.257301 2.736839,0.632851 4.02916,1.13237 1.141541,-1.776989 2.410667,-3.77195 3.79216,-5.964741 1.244518,0.549721 2.446777,1.18729 3.59465,1.896091 -0.968121,2.422001 -1.838993,4.637329 -2.607121,6.609928 1.113678,0.775665 2.164539,1.64946 3.120628,2.607109 1.75536,-1.154846 3.727089,-2.453224 5.885742,-3.897484 0.922138,1.014503 1.778339,2.09079 2.55444,3.22596 -1.87603,1.825371 -3.571671,3.495094 -5.069382,4.977211 0.68148,1.126373 1.27108,2.325333 1.75124,3.568306 2.06459,-0.337753 4.397968,-0.729263 6.96545,-1.171883 0.430328,1.296089 0.777664,2.634529 1.027039,4.002831 -2.46492,0.907875 -4.698727,1.744576 -6.662609,2.488602 0.117191,0.934227 0.184341,1.891441 0.184341,2.857277 0,0.351784 -0.01049,0.692322 -0.02633,1.040215 2.016518,0.53154 4.312969,1.1222 6.846935,1.764412 z M 43.650822,83.958939 c 0,-2.721405 -2.216301,-4.937698 -4.937702,-4.937698 -2.721401,0 -4.92453,2.216293 -4.924538,4.937698 0,2.721405 2.203129,4.924538 4.92453,4.92453 2.721409,0 4.93771,-2.203125 4.93771,-4.92453 z"
         inkscape:connector-curvature="0"
         style="fill:url(#radialGradient6318);stroke:#000000;stroke-width:1.26868606;stroke-linecap:round;stroke-linejoin:round;stroke-miterlimit:4;stroke-opacity:0.26666703;stroke-dashoffset:0" />
      <path
         stroke-miterlimit="4"
         id="path4784"
         d="m 54.790272,83.958946 c -1.1e-5,8.871391 -7.205772,16.063984 -16.07716,16.063984 -8.871391,-1e-5 -16.063982,-7.192623 -16.063982,-16.064007 0,-8.871384 7.19261,-16.077156 16.06399,-16.077141 8.871399,8e-6 16.07716,7.205765 16.077152,16.077164 z m -7.281464,-8e-6 c -8e-6,-4.854919 -3.940758,-8.795685 -8.795689,-8.795685 -4.854931,0 -8.795689,3.940742 -8.795689,8.79567 -1.1e-5,4.85495 3.94075,8.7957 8.795681,8.7957 4.854939,0 8.795696,-3.94075 8.795696,-8.795685 z"
         inkscape:connector-curvature="0"
         style="fill:url(#linearGradient6315);stroke:#ffffff;stroke-width:1.47936201;stroke-linecap:round;stroke-linejoin:round;stroke-miterlimit:4;stroke-opacity:0.18333297;stroke-dashoffset:0" />
    </g>
  </g>
</svg>
