<?xml version="1.0"?><svg width="510.44" height="554.89001" xmlns="http://www.w3.org/2000/svg" xmlns:xlink="http://www.w3.org/1999/xlink">
 <defs>
  <filter id="filter3340">
   <feGaussianBlur id="feGaussianBlur3342" stdDeviation="3.959091"/>
  </filter>
  <filter id="filter3390">
   <feGaussianBlur id="feGaussianBlur3392" stdDeviation="10.093933"/>
  </filter>
  <linearGradient id="linearGradient2254">
   <stop stop-color="#bedcdc" id="stop2256" offset="0"/>
   <stop stop-color="#8e9e9e" stop-opacity="0.741497" offset="0.5" id="stop2264"/>
   <stop stop-color="#404f5c" stop-opacity="0.839216" id="stop2258" offset="1"/>
  </linearGradient>
  <radialGradient r="148.85715" fy="389.50504" fx="380" cy="389.50504" cx="380" gradientTransform="matrix(-0.1055660992860794,-0.9309020042419434,0.9936313033103943,-0.11267989873886108,-134.6927490234375,638.0662841796875)" gradientUnits="userSpaceOnUse" id="radialGradient2340" xlink:href="#linearGradient2254"/>
  <radialGradient r="148.85715" fy="389.50504" fx="380" cy="389.50504" cx="380" gradientTransform="matrix(0.08685948699712753,-0.5807721018791199,0.6221042275428772,0.09357628971338272,81.3358154296875,598.422607421875)" gradientUnits="userSpaceOnUse" id="radialGradient3406" xlink:href="#linearGradient2254"/>
 </defs>
 <metadata id="metadata7">image/svg+xml</metadata>
 <g>
  <title>Layer 1</title>
  <g id="layer1">
   <path opacity="0.884849" fill="#000000" stroke-width="0" stroke-miterlimit="4" filter="url(#filter3390)" d="m248.462616,24.285717c-2.308517,18.204082 -17.173523,32.27261 -35.177246,32.27261c-17.088867,0.000015 -31.376663,-12.655418 -34.757751,-29.509974c-12.52153,2.824717 -24.597,6.881617 -36.136078,12.023745c6.323929,16.847412 0.131638,36.47982 -15.281425,45.803246c-14.311035,8.656792 -32.013451,5.707283 -43.087631,-6.090355c-7.766533,7.565834 -14.993797,15.762688 -21.543812,24.518387c13.789089,11.220146 17.903797,31.682999 8.92915,47.969406c-8.559708,15.533417 -26.214695,22.174515 -41.859121,16.764175c-3.749353,12.075516 -6.500004,24.627258 -8.120131,37.546722c17.970688,1.83374 32.031067,17.705063 32.031067,37.013046c0.000015,18.187943 -12.476597,33.313034 -28.944818,36.54213c1.225348,5.785522 2.645823,11.481659 4.314756,17.078125c3.221302,-0.888519 6.515381,-1.301239 9.768127,-1.224335c11.992718,0.283386 23.561363,6.943787 29.993538,18.616394c8.755028,15.887848 5.046982,35.742645 -7.940346,47.121765c7.246521,9.99353 15.320808,19.296692 24.120682,27.783325c6.691078,-8.492096 16.518768,-13.260101 26.637619,-13.499237c6.281906,-0.148438 12.651833,1.461517 18.487534,4.991577c16.180771,9.787811 22.217346,30.921631 14.262665,48.283356c11.002197,4.772491 22.486954,8.558594 34.368225,11.238892c3.381088,-16.854553 17.668884,-29.509979 34.757751,-29.509979c18.003693,0 32.868729,14.068512 35.177246,32.272614c10.758484,-1.536499 21.25235,-3.943146 31.401794,-7.189117c-5.30957,-16.453369 1.008423,-35.093567 15.910675,-44.108002c5.305206,-3.209137 11.084717,-4.80542 16.80957,-4.960205c11.509827,-0.311096 22.80603,5.277252 29.813751,15.571228c10.234863,-8.115356 19.708191,-17.241028 28.285614,-27.218231c-12.302673,-11.488403 -15.662872,-30.831696 -7.101349,-46.368317c6.432159,-11.672607 18.000793,-18.333008 29.99353,-18.616425c4.784058,-0.113068 9.643066,0.796021 14.262665,2.794037c4.145233,-10.752899 7.467773,-21.951843 9.88797,-33.496979c-15.434845,-4.04187 -26.877319,-18.682861 -26.877319,-36.102615c0,-18.526535 12.950409,-33.896454 29.873688,-36.730499c-2.347809,-18.923248 -7.092285,-37.051575 -13.903107,-54.059753c-16.566223,8.315765 -36.716675,2.001312 -46.054016,-14.943344c-8.729401,-15.841354 -5.049744,-35.632385 7.850464,-47.027603c-7.744232,-8.739464 -16.182434,-16.813454 -25.22934,-24.07888c-10.888763,13.434311 -29.713318,17.254211 -44.795532,8.130943c-14.174896,-8.574455 -20.578033,-25.863491 -16.599823,-41.690689c-10.810944,-3.596403 -22.015076,-6.266912 -33.529236,-7.911182zm-27.386719,134.364552c1.228683,0 2.442093,0.029678 3.655563,0.094177c4.853806,0.25827 9.592377,1.03183 14.142807,2.260345c1.13765,0.306915 2.270935,0.640991 3.38588,1.004593c2.229828,0.727692 4.402008,1.566376 6.532059,2.51149c1.065079,0.472244 2.109741,0.979889 3.146179,1.506897c0.518219,0.263504 1.047058,0.539841 1.558105,0.816223c0.071426,0.038361 0.138458,0.086945 0.209747,0.12558c0.69516,0.376511 1.385895,0.762024 2.06749,1.16156c0.750443,0.442032 1.483017,0.882309 2.2173,1.34993c1.957977,1.247742 3.864777,2.584595 5.693085,4.018372c0.685638,0.537369 1.370239,1.101685 2.037506,1.663864c0.409912,0.34613 0.826172,0.680634 1.228516,1.03598c0.543243,0.478516 1.058838,0.98056 1.588074,1.47551c0.991913,0.927643 1.967468,1.873001 2.906464,2.856812c0.604279,0.633484 1.185852,1.290695 1.767853,1.946411c0.009674,0.01091 0.020264,0.020447 0.029968,0.031387c0.269104,0.303574 0.544739,0.602173 0.809021,0.910416c0.678192,0.791 1.331879,1.596375 1.97757,2.417297c0.181244,0.230453 0.360748,0.457916 0.539337,0.690659c0.538239,0.699951 1.073792,1.414398 1.588074,2.134766c0.6409,0.899323 1.255188,1.80127 1.857758,2.731247c0.841766,1.299118 1.662506,2.630966 2.427032,3.986984c0.435699,0.772125 0.848877,1.564896 1.258484,2.354523c1.096954,2.114777 2.094879,4.266647 2.996338,6.498474c0.395172,0.977615 0.782745,1.952438 1.138641,2.950989c0.036346,0.101944 0.053955,0.211792 0.089874,0.313934c0.31604,0.898743 0.615417,1.816544 0.898926,2.731247c0.038971,0.12561 0.081512,0.250809 0.119843,0.376724c0.110321,0.362473 0.194519,0.733917 0.299622,1.09877c0.258209,0.896072 0.522552,1.789902 0.749115,2.69986c0.062378,0.250412 0.119843,0.502014 0.179779,0.753433c0.153503,0.643051 0.282074,1.29689 0.419495,1.946411c0.169586,0.801514 0.334686,1.606369 0.479401,2.417313c0.007538,0.042328 0.022461,0.083191 0.029968,0.125565c0.012878,0.072662 0.017334,0.147034 0.029968,0.219757c0.162933,0.937057 0.320343,1.876572 0.449432,2.825424c0.008606,0.063248 0.021545,0.125046 0.029968,0.188354c0.02774,0.207687 0.033844,0.419647 0.059937,0.627884c0.109894,0.876373 0.219116,1.751389 0.299622,2.637054c0.100037,1.100677 0.185822,2.213989 0.239716,3.327728c0.060638,1.261169 0.089905,2.553146 0.089905,3.830017c0,2.574631 -0.116241,5.089523 -0.359558,7.597244c-0.001007,0.0103 0.000977,0.021088 0,0.031387c-0.121155,1.243362 -0.270691,2.479889 -0.449463,3.704453c-0.001465,0.010208 0.001526,0.021179 0,0.031387c-0.179199,1.224411 -0.39386,2.437576 -0.629242,3.641663c-0.001923,0.010056 0.001984,0.021332 0,0.031387c-0.11792,0.60199 -0.253052,1.192993 -0.389526,1.789429c-0.131897,0.597809 -0.273926,1.19722 -0.419495,1.789444c-0.00238,0.009811 0.002472,0.021576 0,0.031387c-0.290955,1.181976 -0.614655,2.357498 -0.958832,3.516083c-0.002808,0.009567 0.002869,0.021835 0,0.031403c-0.692078,2.326431 -1.499237,4.621048 -2.397095,6.843796c-0.901459,2.231812 -1.899384,4.383698 -2.996338,6.498474c-0.004211,0.008118 0.004211,0.023254 0,0.031403c-1.093506,2.106293 -2.290039,4.144043 -3.565674,6.121735c-0.004669,0.007263 0.0047,0.024139 0,0.031403c-0.635895,0.985229 -1.298615,1.937195 -1.9776,2.888214c-0.004852,0.006836 0.004913,0.024536 0,0.031372c-0.679443,0.95105 -1.406403,1.878784 -2.127411,2.794067c-0.004974,0.006317 0.004974,0.025055 0,0.031372c-2.900208,3.679138 -6.135773,7.071228 -9.648254,10.108734c-3.518005,3.042236 -7.31955,5.738403 -11.356201,8.036774c-2.018448,1.149292 -4.102249,2.194855 -6.232422,3.139343c-2.130051,0.944397 -4.302231,1.784424 -6.532059,2.511505c-1.114944,0.363586 -2.24823,0.697632 -3.38588,1.004578c-4.55043,1.227478 -9.289001,2.002319 -14.142807,2.260345c-1.21347,0.064514 -2.42688,0.094177 -3.655563,0.094177c-1.228683,0 -2.442093,-0.029663 -3.655563,-0.094177c-4.853806,-0.25827 -9.592377,-1.03183 -14.142807,-2.260345c-1.13765,-0.306946 -2.270935,-0.640991 -3.38588,-1.004578c-2.229828,-0.727692 -4.402008,-1.566376 -6.532059,-2.511505c-2.130173,-0.944489 -4.213974,-1.990051 -6.232422,-3.139343c-1.009171,-0.575012 -1.987396,-1.19693 -2.9664,-1.820831c-0.978989,-0.623901 -1.956467,-1.277008 -2.906464,-1.946411c-0.947403,-0.670776 -1.872406,-1.355499 -2.786621,-2.07196c-1.828445,-1.433014 -3.586761,-2.945679 -5.27359,-4.552063c-0.838074,-0.798157 -1.656097,-1.641479 -2.457001,-2.480103c-0.811096,-0.849274 -1.595657,-1.685028 -2.367126,-2.57428c-0.005066,-0.005829 0.005066,-0.025574 0,-0.031403c-0.766556,-0.884094 -1.521362,-1.777893 -2.247269,-2.699829c-0.725983,-0.92157 -1.443573,-1.867615 -2.127411,-2.825439c-0.683777,-0.958282 -1.337448,-1.926605 -1.9776,-2.919617c-1.280411,-1.985199 -2.468719,-4.038361 -3.565674,-6.153137c-1.096939,-2.114777 -2.094864,-4.266663 -2.996353,-6.498474c-0.003601,-0.008911 0.003601,-0.022461 0,-0.031403c-0.447083,-1.1073 -0.891617,-2.225342 -1.288437,-3.3591c-0.00325,-0.009277 0.00325,-0.022125 0,-0.031403c-0.399582,-1.143097 -0.761673,-2.284882 -1.108643,-3.453293c-0.339523,-1.142914 -0.640884,-2.288269 -0.928879,-3.453293c-0.02063,-0.08345 -0.039581,-0.167603 -0.059921,-0.251144c-0.258347,-1.060486 -0.504639,-2.155762 -0.719131,-3.233551c-0.053787,-0.270889 -0.098846,-0.544296 -0.149811,-0.816223c-0.143448,-0.764053 -0.298553,-1.519531 -0.419495,-2.291733c-0.060516,-0.386749 -0.124969,-0.772827 -0.179779,-1.16156c-0.004303,-0.030563 0.004272,-0.063614 0,-0.094193c-0.142944,-1.021393 -0.256714,-2.041962 -0.359573,-3.076569c-0.017761,-0.178482 -0.043365,-0.354828 -0.059921,-0.533691c-0.097855,-1.058609 -0.154816,-2.130585 -0.209747,-3.202148c-0.004349,-0.084793 -0.025894,-0.166245 -0.029953,-0.251144c-0.061569,-1.271439 -0.089905,-2.542694 -0.089905,-3.830017c0,-1.287323 0.028336,-2.55864 0.089905,-3.830017c0.058716,-1.258774 0.14856,-2.518723 0.269669,-3.767227c0.000992,-0.010361 -0.000992,-0.021027 0,-0.031403c0.120636,-1.243469 0.271194,-2.479721 0.449448,-3.704437c0.001495,-0.010239 -0.001495,-0.021149 0,-0.031387c0.178726,-1.224533 0.394363,-2.437424 0.629242,-3.641663c0.001953,-0.009995 -0.001968,-0.021393 0,-0.031387c0.235352,-1.204117 0.518982,-2.396622 0.809006,-3.578873c0.002411,-0.009781 -0.002396,-0.021622 0,-0.031387c0.290482,-1.182144 0.615143,-2.357346 0.958847,-3.516083c0.002808,-0.009476 -0.002808,-0.021927 0,-0.031403c0.34697,-1.168121 0.709061,-2.310516 1.108643,-3.453293c0.299408,-0.856216 0.630646,-1.70166 0.958832,-2.542877c0.037292,-0.095474 0.08223,-0.187286 0.119858,-0.282547c0.161346,-0.408661 0.311401,-0.819382 0.479416,-1.22435c0.25914,-0.623856 0.534134,-1.237411 0.809021,-1.852219c0.188293,-0.421631 0.373749,-0.838425 0.569305,-1.255737c0.430756,-0.918213 0.882492,-1.833099 1.348358,-2.731247c0.004166,-0.00798 -0.00415,-0.023422 0,-0.031403c0.548416,-1.057312 1.1129,-2.082245 1.707932,-3.107956c0.599365,-1.033112 1.212616,-2.045731 1.857742,-3.045181c0.63559,-0.985428 1.298996,-1.937027 1.9776,-2.888214c0.004669,-0.006561 -0.004684,-0.024826 0,-0.031387c0.679092,-0.951218 1.406754,-1.878616 2.127411,-2.794037c0.004791,-0.006058 -0.004807,-0.025314 0,-0.031387c0.725906,-0.921478 1.480713,-1.816254 2.247269,-2.699844c2.29985,-2.650986 4.762299,-5.126999 7.401001,-7.40889c3.518005,-3.042236 7.319534,-5.738434 11.356201,-8.036758c2.018448,-1.149307 4.102249,-2.194855 6.232422,-3.139359c2.130051,-0.944382 4.302231,-1.784409 6.532059,-2.51149c1.114944,-0.363602 2.24823,-0.697678 3.38588,-1.004593c4.55043,-1.227478 9.289001,-2.002319 14.142807,-2.260345c1.21347,-0.064499 2.42688,-0.094177 3.655563,-0.094177z" id="path3344"/>
   <path fill="#c0c0c0" stroke-width="0" stroke-miterlimit="4" id="path2274" d="m249.638397,25.241638c-2.407593,18.120819 -17.910828,32.125 -36.6875,32.125c-17.82254,0.000015 -32.723724,-12.597519 -36.25,-29.375c-13.059113,2.811798 -25.653015,6.850143 -37.6875,11.96875c6.595428,16.770355 0.137299,36.312973 -15.9375,45.59375c-14.925446,8.617218 -33.387878,5.681183 -44.9375,-6.0625c-8.09996,7.531219 -15.637527,15.690613 -22.46875,24.40625c14.381088,11.168823 18.672455,31.538086 9.3125,47.75c-8.9272,15.462372 -27.340164,22.07309 -43.65625,16.6875c-3.910324,12.020294 -6.779068,24.514648 -8.46875,37.375c18.742218,1.825348 33.40625,17.624084 33.40625,36.84375c0.000015,18.104767 -13.012253,33.160675 -30.1875,36.375c1.277954,5.759033 2.759415,11.429169 4.5,17c3.359619,-0.88443 6.79512,-1.295258 10.1875,-1.21875c12.507599,0.282135 24.572922,6.912079 31.28125,18.53125c9.130905,15.815216 5.263657,35.579224 -8.28125,46.90625c7.557648,9.947815 15.978577,19.208435 25.15625,27.65625c6.978363,-8.453186 17.227966,-13.199463 27.78125,-13.4375c6.551605,-0.147766 13.195038,1.454834 19.28125,4.96875c16.875458,9.743042 23.171204,30.780212 14.875,48.0625c11.474548,4.750671 23.452393,8.51947 35.84375,11.1875c3.526276,-16.777466 18.42746,-29.375 36.25,-29.375c18.776642,0 34.279877,14.00415 36.6875,32.125c11.220398,-1.52948 22.164825,-3.92511 32.75,-7.15625c-5.537567,-16.378113 1.051727,-34.933044 16.59375,-43.90625c5.532928,-3.194458 11.560608,-4.783447 17.53125,-4.9375c12.003967,-0.309692 23.785126,5.253113 31.093781,15.5c10.674255,-8.078247 20.554321,-17.16217 29.5,-27.09375c-12.830872,-11.435852 -16.335327,-30.690674 -7.40625,-46.15625c6.708313,-11.619171 18.773621,-18.249115 31.28125,-18.53125c4.98938,-0.112549 10.057068,0.792389 14.875,2.78125c4.323181,-10.703735 7.788391,-21.85141 10.3125,-33.34375c-16.097595,-4.023407 -28.03125,-18.597382 -28.03125,-35.9375c0,-18.441772 13.506348,-33.741425 31.15625,-36.5625c-2.448608,-18.8367 -7.396851,-36.882111 -14.5,-53.8125c-17.277466,8.27774 -38.29303,1.992157 -48.03125,-14.875c-9.104187,-15.76889 -5.266541,-35.469391 8.1875,-46.8125c-8.076782,-8.699493 -16.877197,-16.736557 -26.3125,-23.96875c-11.356323,13.372879 -30.989044,17.175293 -46.718781,8.09375c-14.783478,-8.535233 -21.461487,-25.745178 -17.3125,-41.5c-11.275085,-3.579941 -22.960236,-6.238251 -34.96875,-7.875zm-28.5625,133.75c1.281433,0 2.546936,0.029541 3.8125,0.09375c5.062195,0.25708 10.004211,1.0271 14.75,2.25c1.186493,0.305511 2.368439,0.638062 3.53125,1c2.325562,0.724365 4.591003,1.559204 6.8125,2.5c1.110809,0.470093 2.200317,0.975403 3.28125,1.5c0.540466,0.262299 1.09201,0.537384 1.625,0.8125c0.074493,0.038208 0.144409,0.086578 0.21875,0.125c0.725006,0.374786 1.445404,0.758545 2.15625,1.15625c0.782654,0.440002 1.546692,0.878265 2.3125,1.34375c2.042053,1.242035 4.030701,2.572784 5.9375,4c0.715088,0.534912 1.429108,1.09668 2.125,1.65625c0.42749,0.344543 0.861633,0.677521 1.28125,1.03125c0.566559,0.476318 1.104279,0.976074 1.65625,1.46875c1.034485,0.923401 2.051941,1.864441 3.03125,2.84375c0.630219,0.630585 1.236755,1.28479 1.84375,1.9375c0.010101,0.010864 0.021149,0.020386 0.03125,0.03125c0.28067,0.302185 0.568146,0.599457 0.84375,0.90625c0.707367,0.787384 1.389099,1.589081 2.0625,2.40625c0.189026,0.229401 0.37619,0.455811 0.5625,0.6875c0.56134,0.696747 1.119873,1.407928 1.65625,2.125c0.668396,0.895203 1.309052,1.79303 1.9375,2.71875c0.877899,1.293182 1.733856,2.618927 2.53125,3.96875c0.454407,0.768585 0.885345,1.557739 1.3125,2.34375c1.144043,2.105103 2.184814,4.247131 3.125,6.46875c0.412109,0.973145 0.816345,1.943512 1.1875,2.9375c0.037903,0.101471 0.056274,0.210815 0.09375,0.3125c0.32959,0.894623 0.641815,1.808258 0.9375,2.71875c0.040619,0.125031 0.085022,0.249664 0.125,0.375c0.115051,0.360809 0.20285,0.73056 0.3125,1.09375c0.269318,0.891998 0.544952,1.781708 0.78125,2.6875c0.065033,0.249268 0.125,0.499725 0.1875,0.75c0.160065,0.640106 0.294159,1.290955 0.4375,1.9375c0.17688,0.797852 0.34903,1.59903 0.5,2.40625c0.007874,0.042145 0.023468,0.082825 0.03125,0.125c0.013397,0.072327 0.018066,0.146362 0.03125,0.21875c0.169891,0.93277 0.334106,1.867981 0.46875,2.8125c0.008972,0.062988 0.02243,0.124481 0.03125,0.1875c0.028931,0.206757 0.035278,0.417725 0.0625,0.625c0.114594,0.872406 0.228516,1.743408 0.3125,2.625c0.104279,1.095642 0.193756,2.203857 0.25,3.3125c0.063202,1.255402 0.09375,2.541473 0.09375,3.8125c0,2.562866 -0.121246,5.066254 -0.375,7.5625c-0.001038,0.010254 0.001038,0.020996 0,0.03125c-0.126343,1.237671 -0.282318,2.468536 -0.46875,3.6875c-0.001556,0.010162 0.001556,0.021088 0,0.03125c-0.18692,1.218811 -0.410767,2.426422 -0.65625,3.625c-0.002045,0.01001 0.002045,0.02124 0,0.03125c-0.122986,0.599243 -0.263916,1.187531 -0.40625,1.78125c-0.137573,0.595062 -0.285706,1.191742 -0.4375,1.78125c-0.002502,0.009796 0.002533,0.021484 0,0.03125c-0.303467,1.176575 -0.641052,2.34671 -1,3.5c-0.00296,0.009521 0.00296,0.021729 0,0.03125c-0.721802,2.315826 -1.563629,4.599915 -2.5,6.8125c-0.940186,2.221619 -1.980957,4.363647 -3.125,6.46875c-0.004395,0.008087 0.004395,0.023163 0,0.03125c-1.140442,2.09668 -2.388397,4.125092 -3.71875,6.09375c-0.004883,0.007233 0.004883,0.024017 0,0.03125c-0.663239,0.980743 -1.354401,1.928345 -2.0625,2.875c-0.005096,0.006836 0.005096,0.024445 0,0.03125c-0.708618,0.946716 -1.466797,1.870209 -2.21875,2.78125c-0.005188,0.006287 0.005188,0.024963 0,0.03125c-3.02475,3.662292 -6.399231,7.03891 -10.0625,10.0625c-3.669037,3.02832 -7.633789,5.712189 -11.84375,8c-2.105103,1.144043 -4.278381,2.184814 -6.5,3.125c-2.221497,0.940063 -4.486938,1.776245 -6.8125,2.5c-1.162811,0.361938 -2.344757,0.694519 -3.53125,1c-4.745789,1.221863 -9.687805,1.993164 -14.75,2.25c-1.265564,0.06424 -2.531067,0.09375 -3.8125,0.09375c-1.281433,0 -2.546936,-0.02951 -3.8125,-0.09375c-5.062195,-0.25708 -10.004211,-1.0271 -14.75,-2.25c-1.186493,-0.305481 -2.368439,-0.638062 -3.53125,-1c-2.325562,-0.724365 -4.591003,-1.559174 -6.8125,-2.5c-2.221619,-0.940186 -4.394897,-1.980957 -6.5,-3.125c-1.05249,-0.572357 -2.072723,-1.191467 -3.09375,-1.8125c-1.021027,-0.621002 -2.040466,-1.271149 -3.03125,-1.9375c-0.988068,-0.667694 -1.952789,-1.349304 -2.90625,-2.0625c-1.906952,-1.426392 -3.740753,-2.93219 -5.5,-4.53125c-0.874054,-0.794464 -1.727203,-1.633942 -2.5625,-2.46875c-0.845917,-0.845398 -1.664154,-1.677307 -2.46875,-2.5625c-0.00528,-0.005798 0.00528,-0.025452 0,-0.03125c-0.799469,-0.880035 -1.58667,-1.769745 -2.34375,-2.6875c-0.757141,-0.917328 -1.505554,-1.859039 -2.21875,-2.8125c-0.713135,-0.953888 -1.394867,-1.917786 -2.0625,-2.90625c-1.335388,-1.976105 -2.574707,-4.019897 -3.71875,-6.125c-1.144012,-2.105103 -2.184814,-4.247131 -3.125,-6.46875c-0.003754,-0.008881 0.003754,-0.022369 0,-0.03125c-0.466278,-1.102234 -0.929901,-2.215179 -1.34375,-3.34375c-0.003387,-0.009216 0.003387,-0.022003 0,-0.03125c-0.416748,-1.137878 -0.794373,-2.274414 -1.15625,-3.4375c-0.354095,-1.137695 -0.668396,-2.277802 -0.96875,-3.4375c-0.021515,-0.083069 -0.04129,-0.16684 -0.0625,-0.25c-0.26944,-1.055634 -0.526306,-2.145874 -0.75,-3.21875c-0.056091,-0.269623 -0.103088,-0.541809 -0.15625,-0.8125c-0.149597,-0.760559 -0.311371,-1.512573 -0.4375,-2.28125c-0.06311,-0.384979 -0.130341,-0.769287 -0.1875,-1.15625c-0.004486,-0.030426 0.004456,-0.063324 0,-0.09375c-0.149078,-1.016693 -0.267731,-2.032623 -0.375,-3.0625c-0.018524,-0.177643 -0.045227,-0.35321 -0.0625,-0.53125c-0.102051,-1.053772 -0.161469,-2.12085 -0.21875,-3.1875c-0.004547,-0.084412 -0.027008,-0.165497 -0.03125,-0.25c-0.064209,-1.265594 -0.09375,-2.531067 -0.09375,-3.8125c0,-1.281433 0.029541,-2.546936 0.09375,-3.8125c0.061249,-1.252991 0.154938,-2.507202 0.28125,-3.75c0.001038,-0.010315 -0.001038,-0.020935 0,-0.03125c0.125824,-1.237793 0.282837,-2.468384 0.46875,-3.6875c0.001556,-0.010162 -0.001556,-0.021057 0,-0.03125c0.186401,-1.218933 0.411285,-2.42627 0.65625,-3.625c0.002045,-0.009949 -0.002045,-0.021271 0,-0.03125c0.245453,-1.198608 0.54126,-2.385651 0.84375,-3.5625c0.002502,-0.009705 -0.002502,-0.021515 0,-0.03125c0.302948,-1.176727 0.641541,-2.346558 1,-3.5c0.00293,-0.00943 -0.00293,-0.02182 0,-0.03125c0.361877,-1.162781 0.739502,-2.299957 1.15625,-3.4375c0.312256,-0.852295 0.657715,-1.693878 1,-2.53125c0.038879,-0.095032 0.085754,-0.186401 0.125,-0.28125c0.168274,-0.406799 0.324768,-0.815613 0.5,-1.21875c0.270264,-0.620972 0.557068,-1.23175 0.84375,-1.84375c0.196381,-0.419708 0.389801,-0.834595 0.59375,-1.25c0.449249,-0.914001 0.92038,-1.824707 1.40625,-2.71875c0.004333,-0.007935 -0.004303,-0.023315 0,-0.03125c0.57196,-1.05249 1.160675,-2.072723 1.78125,-3.09375c0.625092,-1.028381 1.264679,-2.036377 1.9375,-3.03125c0.662872,-0.980927 1.354797,-1.928162 2.0625,-2.875c0.004883,-0.006531 -0.004883,-0.024719 0,-0.03125c0.708252,-0.946869 1.467163,-1.870026 2.21875,-2.78125c0.005005,-0.006042 -0.004974,-0.025208 0,-0.03125c0.75708,-0.917267 1.544281,-1.807953 2.34375,-2.6875c2.39859,-2.638855 4.966766,-5.103546 7.71875,-7.375c3.669037,-3.02832 7.633789,-5.712189 11.84375,-8c2.105103,-1.144012 4.278381,-2.184814 6.5,-3.125c2.221497,-0.940063 4.486938,-1.776215 6.8125,-2.5c1.162811,-0.361938 2.344757,-0.694489 3.53125,-1c4.745789,-1.221863 9.687805,-1.993134 14.75,-2.25c1.265564,-0.064209 2.531067,-0.09375 3.8125,-0.09375z"/>
   <path opacity="0.793939" fill="#a9a9a9" stroke-width="0" stroke-miterlimit="4" id="path2249" d="m221.060272,62.147888c-94.470856,0.000015 -171.124985,76.685394 -171.124985,171.15625c0,94.470856 76.654129,171.125 171.124985,171.125c94.470856,0.000061 171.156219,-76.654144 171.156219,-171.125c0,-94.470856 -76.685364,-171.15625 -171.156219,-171.15625zm0.03125,96.84375c1.281433,0 2.546936,0.029541 3.8125,0.09375c5.062195,0.25708 10.004211,1.0271 14.75,2.25c1.186493,0.305511 2.368439,0.638062 3.53125,1c2.325562,0.724365 4.591003,1.559204 6.8125,2.5c3.332397,1.410278 6.530518,3.075592 9.59375,4.9375c2.042023,1.242035 4.030701,2.572784 5.9375,4c2.860413,2.139618 5.572693,4.478943 8.09375,7c5.041718,5.044647 9.349518,10.807556 12.78125,17.125c1.144043,2.105103 2.184814,4.247131 3.125,6.46875c3.296844,7.785065 5.300018,16.255768 5.75,25.125c0.063202,1.255402 0.09375,2.541473 0.09375,3.8125c0,2.562866 -0.121246,5.066254 -0.375,7.5625c-0.001038,0.010254 0.001038,0.020996 0,0.03125c-0.126343,1.237671 -0.282318,2.468536 -0.46875,3.6875c-0.001556,0.010162 0.001556,0.021088 0,0.03125c-0.18692,1.218811 -0.410767,2.426422 -0.65625,3.625c-0.002045,0.01001 0.002045,0.02124 0,0.03125c-0.245972,1.198456 -0.540741,2.385803 -0.84375,3.5625c-0.002502,0.009796 0.002533,0.021484 0,0.03125c-0.303467,1.176575 -0.641022,2.34671 -1,3.5c-0.00296,0.009521 0.00296,0.021729 0,0.03125c-1.446564,4.641052 -3.341583,9.07959 -5.625,13.28125c-0.004395,0.008087 0.004395,0.023163 0,0.03125c-1.140442,2.09668 -2.388397,4.125092 -3.71875,6.09375c-0.004883,0.007233 0.004883,0.024017 0,0.03125c-0.663239,0.980743 -1.354401,1.928345 -2.0625,2.875c-0.005096,0.006836 0.005096,0.024445 0,0.03125c-0.708618,0.946716 -1.466797,1.870209 -2.21875,2.78125c-0.005157,0.006287 0.005188,0.024963 0,0.03125c-1.509857,1.828125 -3.106079,3.574829 -4.78125,5.25c-0.845398,0.845917 -1.708557,1.664185 -2.59375,2.46875c-0.879608,0.79953 -1.770172,1.586609 -2.6875,2.34375c-3.669037,3.02832 -7.633789,5.712189 -11.84375,8c-2.105103,1.144043 -4.278381,2.184814 -6.5,3.125c-2.221497,0.940063 -4.486938,1.776245 -6.8125,2.5c-1.162811,0.361938 -2.344757,0.694519 -3.53125,1c-4.745789,1.221863 -9.687805,1.993164 -14.75,2.25c-1.265564,0.06424 -2.531067,0.09375 -3.8125,0.09375c-1.281433,0 -2.546936,-0.02951 -3.8125,-0.09375c-5.062195,-0.25708 -10.004211,-1.0271 -14.75,-2.25c-1.186493,-0.305481 -2.368408,-0.638062 -3.53125,-1c-2.325562,-0.724365 -4.591003,-1.559174 -6.8125,-2.5c-3.332397,-1.410278 -6.530487,-3.075592 -9.59375,-4.9375c-2.042023,-1.242035 -4.03067,-2.572784 -5.9375,-4c-3.82016,-2.857513 -7.328949,-6.068451 -10.53125,-9.59375c-0.799469,-0.880035 -1.58667,-1.769745 -2.34375,-2.6875c-3.028595,-3.669312 -5.711945,-7.633545 -8,-11.84375c-1.144012,-2.105103 -2.184814,-4.247131 -3.125,-6.46875c-0.003754,-0.008881 0.003754,-0.022369 0,-0.03125c-0.466278,-1.102234 -0.929901,-2.215179 -1.34375,-3.34375c-0.003387,-0.009216 0.003387,-0.022003 0,-0.03125c-0.416748,-1.137878 -0.794373,-2.274414 -1.15625,-3.4375c-1.812561,-5.823547 -2.930969,-11.942474 -3.25,-18.28125c-0.064209,-1.265594 -0.09375,-2.531067 -0.09375,-3.8125c0,-2.573456 0.119171,-5.087463 0.375,-7.59375c0.125824,-1.237793 0.282837,-2.468384 0.46875,-3.6875c0.001556,-0.010162 -0.001556,-0.021057 0,-0.03125c0.186401,-1.218933 0.411285,-2.42627 0.65625,-3.625c0.002045,-0.009949 -0.002045,-0.021271 0,-0.03125c0.245453,-1.198608 0.54126,-2.385651 0.84375,-3.5625c0.002502,-0.009705 -0.002502,-0.021515 0,-0.03125c0.302948,-1.176727 0.641541,-2.346558 1,-3.5c0.00293,-0.00943 -0.00293,-0.02182 0,-0.03125c0.361877,-1.162781 0.739502,-2.299957 1.15625,-3.4375c1.25351,-3.421356 2.747284,-6.710083 4.46875,-9.875c0.57196,-1.05249 1.160675,-2.072723 1.78125,-3.09375c0.625092,-1.028381 1.264679,-2.036377 1.9375,-3.03125c0.662872,-0.980927 1.354797,-1.928162 2.0625,-2.875c0.004883,-0.006531 -0.004883,-0.024719 0,-0.03125c0.708252,-0.946869 1.467163,-1.870026 2.21875,-2.78125c0.005005,-0.006042 -0.005005,-0.025208 0,-0.03125c0.75708,-0.917267 1.544281,-1.807953 2.34375,-2.6875c0.79953,-0.879608 1.597137,-1.722137 2.4375,-2.5625c0.845428,-0.845917 1.708588,-1.664154 2.59375,-2.46875c0.879608,-0.79953 1.770172,-1.586609 2.6875,-2.34375c3.669037,-3.02832 7.633789,-5.712189 11.84375,-8c2.105103,-1.144012 4.278412,-2.184814 6.5,-3.125c2.221497,-0.940063 4.486938,-1.776215 6.8125,-2.5c1.162842,-0.361938 2.344757,-0.694489 3.53125,-1c4.745789,-1.221863 9.687805,-1.993134 14.75,-2.25c1.265564,-0.064209 2.531067,-0.09375 3.8125,-0.09375z"/>
   <path opacity="0.793939" fill="url(#radialGradient2340)" stroke-width="0" stroke-miterlimit="4" id="path2252" d="m221.060272,84.429138c-82.169159,0 -148.84375,66.705841 -148.84375,148.875c0,82.169159 66.674622,148.84375 148.84375,148.84375c82.169159,0 148.875031,-66.674591 148.875031,-148.84375c0,-82.169159 -66.705872,-148.875 -148.875031,-148.875zm0.03125,74.5625c41.005707,0 74.28125,33.306793 74.28125,74.3125c0,41.005707 -33.275543,74.28125 -74.28125,74.28125c-41.005707,0 -74.28125,-33.306793 -74.28125,-74.3125c0,-41.005707 33.275543,-74.28125 74.28125,-74.28125z"/>
   <path opacity="0.587879" fill="#696969" stroke-width="0" stroke-miterlimit="4" filter="url(#filter3340)" d="m221.075897,142.291351c-50.30101,0 -91.125,40.757996 -91.125,90.981232c0,50.223206 40.82402,91.013184 91.125,91.013184c50.300995,0 91.124969,-40.758026 91.124969,-90.981247l0,-0.031937c0,-50.223236 -40.823975,-90.981232 -91.124969,-90.981232zm0,20.60495c38.981506,0 70.618683,31.542892 70.618683,70.408218c-0.000061,38.865311 -31.637207,70.376266 -70.618683,70.376266c-38.981491,0 -70.618683,-31.542877 -70.618683,-70.408203c0,-38.865341 31.637192,-70.376282 70.618683,-70.376282z" id="path3318"/>
   <path fill="#c0c0c0" stroke-width="0" stroke-miterlimit="4" id="path3313" d="m221.075897,144.272888c-49.05899,0 -88.875,39.870453 -88.875,89c0,49.129547 39.81601,89.03125 88.875,89.03125c49.05899,0 88.875,-39.870453 88.875,-89l0,-0.03125c0,-49.129547 -39.815979,-89 -88.875,-89zm0,20.15625c38.019012,0 68.875,30.856018 68.875,68.875c0,38.018982 -30.856018,68.84375 -68.875,68.84375c-38.018982,0 -68.875,-30.856018 -68.875,-68.875c0,-38.018982 30.856018,-68.84375 68.875,-68.84375z"/>
   <path opacity="0.884849" fill="#000000" stroke-width="0" stroke-miterlimit="4" filter="url(#filter3390)" id="path3394" d="m413.745422,289.219971c-4.355957,10.645142 -15.67157,16.741943 -26.612335,13.810364c-10.384827,-2.782593 -17.014496,-12.770874 -16.334991,-23.525452c-8.067505,-0.328766 -16.063843,0.161072 -23.910217,1.395294c1.110016,11.229401 -5.837799,22.106873 -16.716705,25.241699c-10.101044,2.910675 -20.380249,-1.757507 -25.196167,-10.703217c-5.947021,3.315826 -11.668701,7.101501 -17.069458,11.335815c6.559418,9.038116 5.740417,22.09668 -2.355438,30.495361c-7.721527,8.010376 -19.52771,9.156219 -28.157074,3.333313c-4.237366,6.700195 -7.945068,13.851318 -11.025421,21.409149c10.62323,4.036377 16.593018,15.934601 13.460846,27.623962c-2.950439,11.011261 -12.986023,18.136627 -23.517517,17.410034c-0.193878,3.702148 -0.2547,7.382019 -0.148361,11.041931c2.1017,-0.013367 4.170456,0.273132 6.134659,0.849335c7.241943,2.12439 13.191696,8.040436 15.20697,16.154541c2.743073,11.044342 -2.731171,22.460968 -12.469437,27.235321c2.782532,7.230194 6.180069,14.177216 10.151001,20.748077c5.443741,-4.051727 12.189438,-5.338104 18.377426,-3.835236c3.841553,0.933044 7.451355,2.944946 10.425049,6.032349c8.245178,8.560425 8.485229,22.338135 0.834778,31.553864c5.911804,4.680847 12.276855,8.84314 19.062225,12.400452c4.788849,-9.653442 15.524445,-14.988708 25.909271,-12.206116c10.940765,2.93158 17.691956,13.869324 16.141754,25.266296c6.78714,0.821594 13.554626,1.073303 20.248962,0.760803c-0.557526,-10.825745 6.305725,-21.082031 16.824066,-24.112915c3.744507,-1.079041 7.515686,-1.10437 11.019745,-0.265869c7.044922,1.685791 13.003052,6.908447 15.591705,14.281677c7.536163,-3.246582 14.773438,-7.228882 21.604401,-11.872559c-5.61261,-8.958496 -4.516724,-21.21637 3.206421,-29.228424c5.802338,-6.019409 13.912994,-8.167969 21.246918,-6.38678c2.925568,0.710541 5.730927,2.052094 8.214111,4.013977c4.263367,-5.835022 8.099152,-12.074005 11.44278,-18.669525c-8.72403,-4.960297 -13.30249,-15.687378 -10.476654,-26.233551c3.005402,-11.216278 13.368622,-18.41272 24.112549,-17.372864c1.642975,-11.838715 1.700562,-23.586456 0.32077,-34.992462c-11.416229,2.336975 -22.637207,-4.767029 -25.562714,-16.54599c-2.735016,-11.012024 2.711609,-22.394653 12.399536,-27.192932c-3.288422,-6.552032 -7.106506,-12.814148 -11.425659,-18.685883c-8.796387,6.360321 -20.855652,5.607727 -28.541046,-2.371521c-7.223083,-7.499207 -8.30957,-19.008911 -3.324554,-27.943146c-5.986328,-3.937683 -12.361816,-7.378845 -19.092194,-10.249176zm-38.439484,76.886993c0.746674,0.200043 1.479218,0.415588 2.206177,0.652252c2.907745,0.946686 5.661865,2.186615 8.227844,3.671326c0.641571,0.371063 1.276062,0.757843 1.894623,1.159515c1.23703,0.80365 2.42099,1.6651 3.562103,2.584137c0.570618,0.45932 1.123108,0.936768 1.66745,1.424591c0.272186,0.243896 0.548737,0.497314 0.814453,0.747864c0.03717,0.034851 0.070038,0.075195 0.107086,0.110168c0.361359,0.341156 0.718597,0.687012 1.067963,1.039886c0.384338,0.389801 0.758118,0.775635 1.128479,1.178314c0.987457,1.074219 1.929321,2.194061 2.8078,3.359802c0.329468,0.436981 0.653961,0.890106 0.968262,1.339111c0.192963,0.276276 0.391663,0.54657 0.578491,0.82724c0.252502,0.378143 0.484375,0.766052 0.725708,1.151886c0.452301,0.723114 0.891785,1.454315 1.302826,2.20282c0.264465,0.481903 0.511261,0.974487 0.758575,1.466248c0.00412,0.008179 0.009003,0.015656 0.013123,0.023865c0.114288,0.227631 0.233337,0.453278 0.343933,0.682922c0.283844,0.589325 0.550446,1.18335 0.809631,1.785492c0.072754,0.169037 0.144928,0.335968 0.215729,0.505951c0.213531,0.511414 0.423065,1.031158 0.618744,1.551025c0.243591,0.648804 0.470581,1.294891 0.685883,1.956024c0.300781,0.923584 0.583496,1.863525 0.828156,2.80899c0.139496,0.538391 0.261993,1.085632 0.382813,1.630371c0.323547,1.458923 0.580902,2.924194 0.766663,4.42218c0.081543,0.656189 0.158966,1.309479 0.213226,1.971985c0.005554,0.067627 -0.001556,0.136993 0.003693,0.204681c0.046265,0.595581 0.079315,1.199982 0.10321,1.799927c0.003296,0.082367 0.00885,0.1651 0.011719,0.247589c0.00824,0.237396 -0.000854,0.475983 0.003845,0.713989c0.011536,0.584534 0.027191,1.168732 0.017242,1.756531c-0.002716,0.161743 -0.008606,0.323425 -0.01297,0.485413c-0.011047,0.414307 -0.038971,0.831085 -0.060822,1.246674c-0.026947,0.512878 -0.05722,1.027039 -0.1008,1.541534c-0.002289,0.026886 0.000153,0.054047 -0.002167,0.080933c-0.003967,0.046082 -0.013306,0.091827 -0.017426,0.137909c-0.053009,0.593842 -0.109741,1.188263 -0.185211,1.783752c-0.005035,0.039673 -0.007233,0.079193 -0.01236,0.118896c-0.016815,0.130249 -0.047516,0.259583 -0.06543,0.389893c-0.075409,0.548462 -0.15097,1.095978 -0.245697,1.645294c-0.117798,0.682648 -0.246246,1.370636 -0.394165,2.05368c-0.167755,0.773407 -0.359528,1.560364 -0.566681,2.333405c-0.417664,1.558716 -0.896271,3.062347 -1.450928,4.540955c-0.002289,0.006073 -0.002808,0.012909 -0.005096,0.018982c-0.275299,0.733032 -0.566772,1.457306 -0.874054,2.169556c-0.002563,0.005951 -0.002533,0.013062 -0.005096,0.019012c-0.307556,0.712097 -0.634766,1.411621 -0.973145,2.102264c-0.002808,0.005768 -0.002258,0.013214 -0.005096,0.018982c-0.169312,0.345276 -0.34729,0.681061 -0.526978,1.019928c-0.177155,0.340454 -0.360687,0.680206 -0.545227,1.015045c-0.003052,0.005554 -0.002014,0.013458 -0.005096,0.019012c-0.368561,0.668213 -0.755951,1.327179 -1.153046,1.972565c-0.003265,0.005341 -0.001831,0.013672 -0.005096,0.019012c-0.797974,1.295746 -1.660706,2.553528 -2.566895,3.753021c-0.909882,1.204376 -1.865387,2.344666 -2.875061,3.446381c-0.003876,0.004211 -0.001221,0.014771 -0.005096,0.018982c-1.006195,1.097168 -2.063934,2.135986 -3.159912,3.12561c-0.004028,0.003632 -0.001068,0.015381 -0.005096,0.019012c-0.546295,0.49292 -1.103424,0.961365 -1.670288,1.426544c-0.004089,0.003357 -0.001038,0.015656 -0.005096,0.019012c-0.567169,0.465149 -1.159454,0.908447 -1.746063,1.345154c-0.004059,0.002991 -0.001068,0.015991 -0.005096,0.018982c-2.359283,1.755157 -4.875824,3.281952 -7.503052,4.54895c-2.631409,1.268982 -5.378967,2.282288 -8.204865,3.016449c-1.413025,0.367126 -2.848969,0.660797 -4.296661,0.885773c-1.447632,0.224915 -2.903931,0.379761 -4.376923,0.456879c-0.736542,0.038574 -1.479431,0.056305 -2.220551,0.056854c-2.964386,0.002197 -5.969696,-0.300293 -8.961212,-0.934448c-0.747864,-0.158539 -1.490051,-0.338165 -2.236725,-0.538208c-0.746674,-0.200073 -1.479248,-0.415619 -2.206177,-0.652283c-2.907745,-0.946686 -5.661865,-2.186615 -8.227844,-3.671326c-0.641571,-0.371063 -1.276062,-0.757843 -1.894623,-1.159515c-1.23703,-0.80365 -2.42099,-1.6651 -3.562103,-2.584137c-1.141266,-0.918671 -2.237976,-1.890961 -3.278137,-2.915436c-0.519989,-0.512451 -1.01358,-1.048279 -1.507294,-1.585388c-0.493744,-0.537109 -0.981781,-1.091675 -1.4505,-1.651642c-0.466919,-0.560364 -0.917969,-1.125519 -1.3573,-1.70816c-0.878662,-1.165283 -1.701813,-2.367401 -2.466278,-3.614594c-0.379822,-0.61969 -0.740143,-1.263458 -1.09082,-1.901581c-0.355103,-0.64624 -0.69632,-1.279938 -1.020874,-1.943939c-0.002136,-0.004364 0.007233,-0.014648 0.005096,-0.019012c-0.322418,-0.660034 -0.636108,-1.324066 -0.927673,-2.000458c-0.291687,-0.676117 -0.57431,-1.365723 -0.834503,-2.056946c-0.260071,-0.691498 -0.500214,-1.384186 -0.728149,-2.0896c-0.456055,-1.41037 -0.845123,-2.846863 -1.168671,-4.305817c-0.323547,-1.458923 -0.580902,-2.924194 -0.766693,-4.42218c-0.000732,-0.005981 0.005829,-0.013 0.005096,-0.019012c-0.092072,-0.743164 -0.180817,-1.492432 -0.238037,-2.243439c-0.000488,-0.006134 0.005554,-0.012878 0.005066,-0.019012c-0.057373,-0.757111 -0.092194,-1.507324 -0.113525,-2.27121c-0.020905,-0.747223 -0.01825,-1.489716 -0.004272,-2.241913c0.001007,-0.053894 0.003143,-0.10791 0.004333,-0.161804c0.015045,-0.684113 0.04303,-1.387329 0.087524,-2.074738c0.011261,-0.17276 0.028229,-0.345612 0.041382,-0.518555c0.036774,-0.485931 0.065063,-0.968567 0.116852,-1.45575c0.02594,-0.244019 0.049408,-0.488251 0.079163,-0.732513c0.00235,-0.019196 0.012909,-0.037811 0.015289,-0.057007c0.078827,-0.641663 0.175232,-1.278046 0.280579,-1.921173c0.018158,-0.110931 0.031189,-0.221863 0.05014,-0.332855c0.112274,-0.65683 0.251556,-1.315094 0.391998,-1.972778c0.011108,-0.052063 0.01123,-0.104889 0.022522,-0.156921c0.168854,-0.779785 0.35788,-1.554047 0.566711,-2.333405c0.208801,-0.779358 0.432251,-1.544434 0.675934,-2.304108c0.239868,-0.752533 0.49884,-1.500702 0.774994,-2.236847c0.002289,-0.006104 0.002808,-0.012878 0.005096,-0.018982c0.275024,-0.733185 0.567047,-1.457123 0.874054,-2.169556c0.002563,-0.005951 0.002533,-0.013062 0.005096,-0.019012c0.307251,-0.71225 0.63504,-1.411438 0.973145,-2.102234c0.002808,-0.005737 0.002258,-0.013275 0.005096,-0.019012c0.338348,-0.690674 0.704132,-1.366455 1.072174,-2.034973c0.003052,-0.005524 0.002075,-0.013489 0.005096,-0.019012c0.368286,-0.668396 0.756226,-1.326996 1.153076,-1.972565c0.003235,-0.00528 0.001831,-0.013733 0.005096,-0.019012c0.40033,-0.650696 0.805695,-1.283356 1.233917,-1.910156c0.320831,-0.469604 0.659271,-0.927521 0.995178,-1.383362c0.038147,-0.051727 0.080353,-0.100006 0.118683,-0.15155c0.164337,-0.22113 0.322144,-0.445343 0.489929,-0.663177c0.258698,-0.33548 0.52533,-0.66217 0.792114,-0.989624c0.182831,-0.224609 0.363129,-0.446716 0.549683,-0.667542c0.410706,-0.485748 0.833649,-0.966095 1.262451,-1.43399c0.003815,-0.00415 0.001282,-0.014832 0.005096,-0.018982c0.504791,-0.550842 1.014069,-1.079407 1.542053,-1.603516c0.53183,-0.527863 1.068787,-1.041077 1.622955,-1.541107c0.546082,-0.493103 1.103607,-0.961182 1.670288,-1.426544c0.003906,-0.003204 0.00119,-0.015808 0.005096,-0.019012c0.566986,-0.465302 1.159637,-0.908264 1.746063,-1.345123c0.003906,-0.002899 0.00119,-0.016113 0.005096,-0.019012c0.590637,-0.439697 1.194458,-0.85849 1.803619,-1.268616c1.827667,-1.230438 3.725739,-2.328491 5.699432,-3.280334c2.631378,-1.268982 5.378937,-2.282288 8.204834,-3.016418c1.413055,-0.367157 2.848999,-0.660828 4.296692,-0.885803c1.447632,-0.224884 2.903931,-0.379761 4.376923,-0.456848c0.736511,-0.038605 1.479431,-0.056305 2.220551,-0.056885c2.964386,-0.002167 5.969696,0.300293 8.961182,0.934448c0.747894,0.158539 1.490082,0.338165 2.236755,0.538239z"/>
   <path fill="#c0c0c0" stroke-width="0" stroke-miterlimit="4" d="m414.304871,289.990173c-4.402649,10.578583 -16.095642,16.532532 -27.506165,13.475098c-10.830627,-2.902069 -17.842468,-12.9552 -17.263733,-23.686707c-8.39209,-0.424133 -16.700439,-0.029938 -24.844055,1.109344c1.287476,11.226959 -5.807312,22.006805 -17.081421,25.008057c-10.468018,2.786652 -21.211243,-1.997131 -26.324829,-10.987579c-6.144043,3.24057 -12.048187,6.953033 -17.613373,11.11731c6.927521,9.103455 6.231049,22.134094 -2.086853,30.424957c-7.93335,7.907501 -20.195221,8.91153 -29.236786,2.994232c-4.326202,6.640564 -8.096375,13.737732 -11.209381,21.248474c11.093445,4.156921 17.441803,16.109436 14.323975,27.745361c-2.936951,10.960876 -13.286835,17.957153 -24.245575,17.106506c-0.157623,3.694702 -0.177155,7.368713 -0.023102,11.024841c2.185089,0.011597 4.339478,0.322266 6.388611,0.920959c7.555023,2.207458 13.811554,8.185913 16.003296,16.312683c2.983246,11.061584 -2.572968,22.397278 -12.641632,27.049316c2.979004,7.253174 6.594086,14.230957 10.800903,20.839783c5.61203,-3.981445 12.610596,-5.185913 19.062378,-3.611633c4.005371,0.977356 7.782562,3.029358 10.911102,6.147766c8.674622,8.646423 9.08786,22.407837 1.242737,31.519897c6.202393,4.744568 12.869873,8.976624 19.967255,12.609619c4.864532,-9.583191 15.963501,-14.783569 26.794189,-11.88147c11.410461,3.057373 18.559937,14.060181 17.083496,25.422852c7.06665,0.901062 14.106201,1.232788 21.062927,1.000244c-0.708313,-10.817261 6.305969,-20.977783 17.206421,-23.879578c3.880554,-1.03302 7.80127,-1.01355 11.454651,-0.134583c7.344971,1.767151 13.601929,7.053284 16.381104,14.44696c7.797119,-3.152527 15.27478,-7.043335 22.322144,-11.599426c-5.942139,-9.012756 -4.948242,-21.240479 2.986755,-29.149658c5.961487,-5.942139 14.36908,-7.991394 22.015625,-6.125549c3.050293,0.744263 5.983093,2.11731 8.588318,4.105896c4.363525,-5.776245 8.27771,-11.960999 11.675903,-18.507629c-9.129761,-5.057007 -14.017578,-15.823486 -11.204651,-26.321472c2.991638,-11.164917 13.681274,-18.228333 24.864685,-17.062317c1.567688,-11.802734 1.488037,-23.533447 -0.082092,-34.939941c-11.842285,2.19812 -23.593628,-5.029236 -26.77533,-16.826599c-2.974548,-11.029175 2.553406,-22.331238 12.569458,-27.007813c-3.496948,-6.58197 -7.541199,-12.880707 -12.101746,-18.795563c-9.070557,6.246979 -21.618103,5.352203 -29.703735,-2.707214c-7.599304,-7.574585 -8.865662,-19.081146 -3.788574,-27.943756c-6.271118,-4.003296 -12.940918,-7.515381 -19.9729,-10.46167zm-39.05426,76.323486c0.778687,0.208618 1.542969,0.432556 2.301575,0.677551c3.034607,0.979919 5.912903,2.250793 8.598511,3.763916c0.671509,0.378174 1.335815,0.771973 1.983704,1.18042c1.295715,0.8172 2.536987,1.691528 3.734375,2.622864c0.598816,0.465454 1.178894,0.948792 1.750671,1.442383c0.285889,0.246826 0.576416,0.503174 0.855713,0.756531c0.039063,0.035217 0.07373,0.075928 0.112671,0.111267c0.379761,0.344971 0.75531,0.69458 1.122742,1.051147c0.404297,0.393799 0.797485,0.783569 1.187317,1.190063c1.03949,1.084412 2.032104,2.213928 2.959351,3.388489c0.347778,0.440247 0.690552,0.896606 1.022644,1.348694c0.203918,0.278198 0.413696,0.550476 0.611328,0.833008c0.267029,0.380615 0.512756,0.770691 0.76825,1.158875c0.478821,0.727478 0.944458,1.462891 1.380737,2.21521c0.280701,0.484375 0.543152,0.979248 0.806152,1.473206c0.004395,0.00824 0.009521,0.015808 0.013916,0.024048c0.121521,0.228638 0.247986,0.455383 0.365723,0.686035c0.302124,0.591858 0.586365,1.188232 0.863037,1.792603c0.077637,0.169678 0.154663,0.337219 0.230286,0.507813c0.228088,0.513245 0.452148,1.034729 0.661804,1.556213c0.260925,0.650818 0.504639,1.298706 0.736328,1.961487c0.32373,0.925842 0.628845,1.867859 0.894409,2.81488c0.151489,0.539307 0.285339,1.087219 0.417419,1.63269c0.35376,1.460754 0.638733,2.927002 0.84967,4.42511c0.09259,0.65625 0.180847,1.30957 0.245117,1.971741c0.006592,0.067627 0,0.136841 0.006287,0.204468c0.055176,0.595276 0.09668,1.19928 0.128723,1.798645c0.004395,0.082336 0.011108,0.164978 0.015076,0.247375c0.011414,0.237183 0.004761,0.475342 0.012512,0.713074c0.018921,0.583862 0.042114,1.167419 0.038757,1.754272c-0.000916,0.161499 -0.005066,0.322876 -0.00769,0.484558c-0.006592,0.413635 -0.03064,0.829468 -0.048462,1.244263c-0.021912,0.511841 -0.047302,1.024902 -0.086487,1.538208c-0.002075,0.026794 0.000854,0.053955 -0.001282,0.08075c-0.003601,0.045959 -0.012756,0.091553 -0.016479,0.137512c-0.048096,0.592407 -0.099976,1.185303 -0.171387,1.779053c-0.004761,0.039612 -0.006592,0.079041 -0.011475,0.118652c-0.01593,0.129822 -0.046326,0.258606 -0.063354,0.38855c-0.071899,0.546814 -0.143982,1.092651 -0.235962,1.640076c-0.114319,0.680298 -0.239746,1.365784 -0.385437,2.046143c-0.165222,0.770325 -0.355286,1.553955 -0.561462,2.323425c-0.415771,1.551575 -0.895508,3.047424 -1.454712,4.517395c-0.002258,0.006042 -0.002747,0.012878 -0.005066,0.018921c-0.277527,0.728699 -0.57196,1.448486 -0.883057,2.156128c-0.002563,0.00592 -0.002441,0.013062 -0.005066,0.018921c-0.311279,0.707458 -0.643188,1.4021 -0.986816,2.087769c-0.002869,0.005737 -0.002197,0.013184 -0.005066,0.018921c-0.171936,0.342773 -0.353027,0.675964 -0.535828,1.012268c-0.180176,0.33783 -0.366943,0.674988 -0.55481,1.007141c-0.003174,0.005493 -0.001953,0.013428 -0.005127,0.018921c-0.375244,0.662903 -0.770203,1.316345 -1.175415,1.956116c-0.003357,0.00531 -0.00177,0.013672 -0.005066,0.018921c-0.814331,1.284485 -1.696411,2.530273 -2.62439,3.717346c-0.931763,1.191895 -1.911682,2.319214 -2.948425,3.40741c-0.003967,0.004211 -0.001099,0.014771 -0.005066,0.018921c-1.033142,1.083679 -2.120605,2.108459 -3.248413,3.08374c-0.00415,0.00354 -0.000916,0.01532 -0.005066,0.018921c-0.562134,0.485718 -1.135864,0.946899 -1.719727,1.404724c-0.004211,0.003296 -0.000854,0.015625 -0.005066,0.018921c-0.584229,0.457764 -1.194763,0.893433 -1.7995,1.32251c-0.004211,0.002991 -0.000916,0.015991 -0.005066,0.018921c-2.432251,1.72467 -5.03064,3.219482 -7.747314,4.453491c-2.720886,1.235962 -5.565613,2.215271 -8.495117,2.914795c-1.464844,0.349854 -2.954407,0.626099 -4.45697,0.833557c-1.502502,0.207397 -3.014832,0.344727 -4.545471,0.404236c-0.765381,0.029785 -1.537598,0.038635 -2.308167,0.030396c-3.082214,-0.03302 -6.210571,-0.370789 -9.328491,-1.039551c-0.779541,-0.167236 -1.553345,-0.355408 -2.332031,-0.564026c-0.778748,-0.208679 -1.54303,-0.432617 -2.301636,-0.677551c-3.034607,-0.97998 -5.912903,-2.250854 -8.598511,-3.763977c-0.671509,-0.378174 -1.335815,-0.771973 -1.983704,-1.18042c-1.295776,-0.8172 -2.536987,-1.691528 -3.734375,-2.622803c-1.197571,-0.930969 -2.349426,-1.914978 -3.443085,-2.950378c-0.546753,-0.517883 -1.066345,-1.058838 -1.58606,-1.601074c-0.519714,-0.542175 -1.033783,-1.101807 -1.527771,-1.666565c-0.492126,-0.565125 -0.967804,-1.134827 -1.431519,-1.721863c-0.92746,-1.174133 -1.797577,-2.384338 -2.607269,-3.638855c-0.402283,-0.623352 -0.784546,-1.270508 -1.156738,-1.911926c-0.376923,-0.649536 -0.739227,-1.286438 -1.084564,-1.953369c-0.002258,-0.004333 0.007355,-0.014526 0.005066,-0.018921c-0.343079,-0.662964 -0.677124,-1.329773 -0.988312,-2.008667c-0.31131,-0.67865 -0.613342,-1.370605 -0.892059,-2.064026c-0.278656,-0.693604 -0.53656,-1.388184 -0.781921,-2.095337c-0.490967,-1.413818 -0.912537,-2.852905 -1.266266,-4.31366c-0.35376,-1.460754 -0.638733,-2.927063 -0.849701,-4.425171c-0.000824,-0.005981 0.00592,-0.012939 0.005066,-0.018921c-0.104553,-0.743225 -0.20575,-1.492493 -0.27417,-2.243164c-0.000549,-0.006104 0.005646,-0.012756 0.005066,-0.018921c-0.068634,-0.756714 -0.11377,-1.506287 -0.144989,-2.269348c-0.03064,-0.74646 -0.036682,-1.487854 -0.031067,-2.238892c0.000397,-0.053772 0.001953,-0.107727 0.002563,-0.161499c0.007507,-0.682983 0.028259,-1.384888 0.066376,-2.070801c0.009644,-0.172424 0.025238,-0.344849 0.036835,-0.517395c0.032471,-0.484802 0.056152,-0.966431 0.104218,-1.452332c0.024078,-0.243347 0.045593,-0.486938 0.073639,-0.73053c0.002197,-0.019165 0.01297,-0.037598 0.015198,-0.056763c0.07431,-0.639771 0.167023,-1.27417 0.26889,-1.915161c0.017578,-0.110535 0.029816,-0.221191 0.048218,-0.331787c0.108917,-0.654602 0.245911,-1.310242 0.384155,-1.965393c0.010925,-0.051819 0.010437,-0.104553 0.021545,-0.156433c0.16629,-0.776672 0.353638,-1.547607 0.561493,-2.323425c0.207886,-0.775757 0.431122,-1.537109 0.675446,-2.292847c0.240479,-0.748657 0.500885,-1.492676 0.779236,-2.224548c0.002319,-0.006042 0.002777,-0.012817 0.005066,-0.018921c0.277252,-0.728882 0.572327,-1.448303 0.883057,-2.156128c0.002594,-0.00592 0.002472,-0.013 0.005066,-0.018921c0.311005,-0.707581 0.643524,-1.401917 0.986847,-2.087769c0.002869,-0.005676 0.002228,-0.013245 0.005096,-0.018921c0.343567,-0.685669 0.715912,-1.35614 1.090637,-2.019409c0.003113,-0.005493 0.001953,-0.013428 0.005066,-0.018921c0.375,-0.663086 0.770508,-1.316162 1.175476,-1.956116c0.003296,-0.005188 0.00174,-0.013672 0.005066,-0.018921c0.408539,-0.64502 0.822479,-1.272034 1.260284,-1.892822c0.328003,-0.465149 0.674469,-0.918396 1.018311,-1.369629c0.039032,-0.051208 0.082336,-0.098877 0.121582,-0.149902c0.168243,-0.218933 0.329651,-0.440918 0.501556,-0.656494c0.264954,-0.331909 0.538361,-0.654968 0.811829,-0.978821c0.187439,-0.222107 0.372253,-0.441772 0.563599,-0.660095c0.421265,-0.480164 0.855316,-0.954834 1.295624,-1.416992c0.003906,-0.004089 0.00116,-0.014832 0.005066,-0.018921c0.518311,-0.544067 1.041565,-1.065857 1.58432,-1.582947c0.546661,-0.520813 1.098907,-1.026917 1.669159,-1.519653c0.561951,-0.485962 1.136047,-0.946777 1.719727,-1.404785c0.004028,-0.003113 0.001038,-0.015747 0.005066,-0.018921c0.584045,-0.457886 1.194946,-0.893188 1.7995,-1.32251c0.004028,-0.002869 0.001099,-0.016052 0.005066,-0.018921c0.608887,-0.432007 1.23175,-0.843079 1.860291,-1.245422c1.885681,-1.207031 3.846191,-2.281006 5.887024,-3.208069c2.720886,-1.235962 5.565613,-2.21521 8.495178,-2.914795c1.464783,-0.349854 2.954346,-0.626038 4.456909,-0.833496c1.502502,-0.207397 3.014832,-0.344788 4.545471,-0.404297c0.765381,-0.029724 1.537598,-0.038635 2.308167,-0.030396c3.082214,0.03302 6.210571,0.370789 9.328491,1.039551c0.77948,0.167236 1.553345,0.355408 2.332092,0.564087z" id="path3396"/>
   <path opacity="0.793939" fill="#a9a9a9" stroke-width="0" stroke-miterlimit="4" d="m390.951111,307.680359c-57.409485,-15.382813 -116.431793,18.562012 -131.756927,75.756165c-15.325134,57.194092 18.822388,116.083435 76.231842,131.466309c57.409485,15.382813 116.445801,-18.538025 131.770874,-75.732178c15.325134,-57.194092 -18.836243,-116.107452 -76.245789,-131.490295zm-15.69104,58.635803c0.778748,0.208679 1.542969,0.432617 2.301636,0.677551c3.034546,0.979919 5.912903,2.250854 8.598511,3.763977c0.671448,0.378174 1.335754,0.771973 1.983704,1.18042c1.295715,0.8172 2.536987,1.691528 3.734375,2.622803c1.796326,1.396423 3.469604,2.925415 5.029114,4.551392c1.039429,1.084473 2.032043,2.213928 2.95929,3.388489c1.391174,1.761169 2.659912,3.619019 3.78302,5.555847c2.245483,3.875061 3.928406,8.06543 4.989075,12.448914c0.353699,1.460754 0.638733,2.927063 0.84967,4.425171c0.740601,5.25 0.583801,10.704468 -0.581543,16.147339c-0.165222,0.770325 -0.355286,1.553894 -0.561462,2.323425c-0.415771,1.551575 -0.895569,3.047424 -1.454712,4.517395c-0.002319,0.006042 -0.002747,0.012878 -0.005066,0.018921c-0.277588,0.728699 -0.572021,1.448486 -0.883057,2.156128c-0.002625,0.00592 -0.002502,0.013 -0.005066,0.018921c-0.311279,0.707458 -0.64325,1.4021 -0.986877,2.087769c-0.002869,0.005737 -0.002197,0.013184 -0.005066,0.018921c-0.343872,0.685486 -0.715637,1.356323 -1.090637,2.019409c-0.003113,0.005493 -0.001953,0.013428 -0.005066,0.018921c-0.375305,0.662903 -0.770203,1.316345 -1.175476,1.956116c-0.003357,0.00531 -0.001709,0.013611 -0.005066,0.018921c-1.631958,2.574219 -3.50354,4.95282 -5.572754,7.124756c-0.003967,0.00415 -0.001099,0.014709 -0.005066,0.018921c-1.033203,1.083679 -2.120605,2.108459 -3.248413,3.083679c-0.00415,0.003601 -0.000916,0.015381 -0.005066,0.018921c-0.562134,0.485779 -1.135864,0.94696 -1.719788,1.404785c-0.004211,0.003296 -0.000854,0.015564 -0.005066,0.018921c-0.584167,0.457703 -1.194702,0.893372 -1.7995,1.32251c-0.00415,0.00293 -0.000854,0.01593 -0.005066,0.018921c-1.214111,0.860901 -2.467468,1.658508 -3.757202,2.399902c-0.65094,0.374451 -1.308228,0.729309 -1.976685,1.072266c-0.664246,0.34082 -1.33313,0.672302 -2.013367,0.981323c-2.720947,1.235962 -5.565674,2.21521 -8.495178,2.914795c-1.464844,0.349854 -2.954346,0.626038 -4.45697,0.833496c-1.502441,0.207397 -3.014832,0.344727 -4.545471,0.404297c-0.76532,0.029724 -1.537537,0.038635 -2.308167,0.030396c-3.082153,-0.03302 -6.21051,-0.370789 -9.328491,-1.039612c-0.77948,-0.167175 -1.553284,-0.355347 -2.332031,-0.564026c-0.778687,-0.208618 -1.542969,-0.432617 -2.301636,-0.677551c-3.034546,-0.979919 -5.912903,-2.250793 -8.598511,-3.763916c-0.671448,-0.378174 -1.335754,-0.771973 -1.983704,-1.18042c-1.295715,-0.817261 -2.536987,-1.691528 -3.734375,-2.622864c-1.796326,-1.396423 -3.469635,-2.925354 -5.029114,-4.551392c-1.039429,-1.084473 -2.032074,-2.213928 -2.95929,-3.388489c-1.857941,-2.35199 -3.46933,-4.86731 -4.843506,-7.52301c-0.343048,-0.662964 -0.677094,-1.329773 -0.988312,-2.008667c-1.245239,-2.7146 -2.232788,-5.551575 -2.940247,-8.473083c-0.353729,-1.460754 -0.638733,-2.927002 -0.849701,-4.42511c-0.000824,-0.005981 0.00592,-0.012939 0.005096,-0.018921c-0.104553,-0.743225 -0.20578,-1.492493 -0.27417,-2.243164c-0.000549,-0.006104 0.005615,-0.012756 0.005066,-0.018921c-0.068665,-0.756775 -0.1138,-1.506348 -0.14502,-2.269409c-0.156799,-3.820801 0.156189,-7.707397 0.99057,-11.596924c0.16629,-0.776672 0.353638,-1.547607 0.561523,-2.323425c0.41745,-1.557983 0.897705,-3.060608 1.459747,-4.536316c0.277252,-0.728882 0.572296,-1.448364 0.883026,-2.156128c0.002594,-0.00592 0.002472,-0.013 0.005066,-0.018921c0.311005,-0.707642 0.643555,-1.401917 0.986847,-2.087769c0.002869,-0.005737 0.002228,-0.013245 0.005066,-0.018921c0.343628,-0.685669 0.715942,-1.356201 1.090668,-2.019409c0.003082,-0.005493 0.001953,-0.013428 0.005066,-0.018921c0.375,-0.663086 0.770508,-1.316162 1.175476,-1.956116c0.003296,-0.005249 0.00174,-0.013672 0.005066,-0.018921c0.408539,-0.645081 0.82251,-1.272034 1.260284,-1.892822c1.316772,-1.867249 2.758026,-3.615112 4.317566,-5.250854c0.518311,-0.544067 1.041565,-1.065857 1.58432,-1.582947c0.546692,-0.520813 1.098877,-1.026917 1.669128,-1.519714c0.561951,-0.485901 1.136108,-0.946716 1.719788,-1.404724c0.004028,-0.003174 0.001038,-0.015747 0.005066,-0.018921c0.583984,-0.457886 1.194946,-0.89325 1.7995,-1.32251c0.004028,-0.002869 0.001038,-0.016052 0.005066,-0.018921c0.608887,-0.432068 1.23175,-0.84314 1.860229,-1.245422c0.628601,-0.402344 1.249939,-0.782532 1.896973,-1.15448c0.651001,-0.374451 1.308228,-0.729309 1.976685,-1.072266c0.664246,-0.34082 1.33313,-0.672302 2.013367,-0.981323c2.720947,-1.235962 5.565674,-2.215271 8.495178,-2.914795c1.464844,-0.349854 2.954407,-0.626099 4.45697,-0.833557c1.502502,-0.207397 3.014832,-0.344727 4.545471,-0.404236c0.76532,-0.029785 1.537537,-0.038635 2.308105,-0.030396c3.082214,0.03302 6.210571,0.370789 9.328552,1.039551c0.77948,0.167236 1.553284,0.355408 2.332031,0.564026z" id="path3398"/>
   <path opacity="0.793939" fill="url(#radialGradient3406)" stroke-width="0" stroke-miterlimit="4" d="m387.33667,321.1698c-49.933838,-13.37973 -101.272736,16.148315 -114.602264,65.894775c-13.329529,49.746521 16.372314,100.969116 66.306122,114.348816c49.933777,13.379761 101.286682,-16.124329 114.616211,-65.870789c13.329529,-49.746521 -16.386292,-100.993073 -66.320068,-114.372803zm-12.076599,45.146362c24.919006,6.677063 39.737305,32.259827 33.085388,57.085327c-6.651978,24.8255 -32.271362,39.552734 -57.190369,32.875671c-24.918976,-6.677002 -39.737305,-32.259766 -33.085327,-57.085266c6.651947,-24.8255 32.271301,-39.552734 57.190308,-32.875732z" id="path3400"/>
   <path opacity="0.587879" fill="#696969" stroke-width="0" stroke-miterlimit="4" filter="url(#filter3340)" id="path3402" d="m377.959747,356.203033c-30.567688,-8.190582 -61.988037,9.837524 -70.135284,40.243439c-8.147247,30.405914 10.044342,61.74826 40.61203,69.938843c30.567688,8.190582 61.988037,-9.837524 70.135284,-40.243469l0.005157,-0.019318c8.147247,-30.405945 -10.0495,-61.728912 -40.617188,-69.919495zm-3.34256,12.474548c23.688873,6.347412 37.797729,30.59552 31.492981,54.125183c-6.304779,23.529663 -30.642273,37.455383 -54.331116,31.107971c-23.688873,-6.347412 -37.79776,-30.59552 -31.492981,-54.125183c6.304749,-23.529694 30.642242,-37.455383 54.331116,-31.107971z"/>
   <path fill="#c0c0c0" stroke-width="0" stroke-miterlimit="4" d="m377.638245,357.40271c-29.812927,-7.988342 -60.476715,9.666504 -68.446564,39.410339c-7.969818,29.743774 9.753326,60.384216 39.566254,68.372559c29.812927,7.988342 60.476746,-9.666565 68.446533,-39.410339l0.005066,-0.018921c7.969849,-29.743835 -9.758362,-60.365295 -39.571289,-68.353638zm-3.269714,12.202881c23.103943,6.190674 36.849487,29.895752 30.682068,52.913025c-6.16748,23.017273 -29.918945,36.654724 -53.022888,30.46405c-23.104004,-6.190674 -36.849579,-29.895691 -30.682098,-52.913025c6.16745,-23.017273 29.918915,-36.654724 53.022919,-30.46405z" id="path3404"/>
  </g>
 </g>
</svg>