<?xml version="1.0" encoding="UTF-8" standalone="no"?>
<!-- Created with Inkscape (http://www.inkscape.org/) -->
<svg
   xmlns:svg="http://www.w3.org/2000/svg"
   xmlns="http://www.w3.org/2000/svg"
   xmlns:xlink="http://www.w3.org/1999/xlink"
   version="1.0"
   width="256.375"
   height="261.75"
   id="svg2">
  <title
     id="title4">generated by pstoedit version:3.44 from c:/docume~1/steren/locals~1/temp/gsviewa05128</title>
  <defs
     id="defs293">
    <pattern
       patternTransform="translate(-50.07238,-102.2896)"
       id="pattern1980"
       xlink:href="#pattern1929" />
    <pattern
       patternTransform="translate(86.65527,-50.07244)"
       id="pattern1976"
       xlink:href="#pattern1929" />
    <pattern
       patternTransform="translate(34.43797,86.65526)"
       id="pattern1968"
       xlink:href="#pattern1929" />
    <pattern
       id="pattern1929"
       patternTransform="translate(34.43797,86.65526)"
       height="6.9721041"
       width="8.6623106"
       patternUnits="userSpaceOnUse">
      <rect
         style="fill:#4bffff;fill-opacity:1;stroke:none;stroke-width:3;stroke-linecap:round;stroke-linejoin:round;stroke-miterlimit:4;stroke-dasharray:none;stroke-opacity:1"
         id="rect1927"
         width="8.6623106"
         height="6.9721041"
         x="0"
         y="0" />
    </pattern>
  </defs>
  <path
     d="m 125.34376,1e-4 -1,0.15625 -1,0 -1,0 -1,0 -1,0.1875 -1,0 -1,0.15625 -1,0 -1,0.1875 -1.1875,0.15625 -1,0 -1,0.15625 -1,0.1875 -1.15625,0.15625 2,14.03125 -1.1875,0.15625 -1,0.15625 -1,0.15625 -1,0.1875 -0.84375,0.15625 -1,0.15625 -0.96875,0.1875 -0.84375,0.15625 -1,0.15625 -0.84375,0.34375 -1,0.15625 -0.84375,0.15625 -1,0.1875 -0.843747,0.15625 -0.8125,0.34375 -1.00001,0.15625 -0.84375,0.34375 -0.84375,0.15625 -1,0.34375 -0.84375,0.15625 -0.8125,0.34375 -1.03125,0.15625 -0.8125,0.34375 -0.8125,0.34375 -1.03125,0.3125 -0.8125,0.34375 -1.03125,0.34375 -0.8125,0.34375 -1,0.3125 -1,0.5 -1,0.34375 -0.84375,0.5 -5.6875,-13.1875 -1,0.5 -1,0.5 -1,0.3125 -1,0.53125 -1,0.5 -1,0.5 -1,0.5 -1,0.5 -1,0.5 -1,0.5 -0.84375,0.5 -1,0.65625 -1,0.5 -1,0.5 -0.84375,0.5 -1,0.6875 -1,0.5 -0.8125,0.65625 -1,0.5 -1,0.65625 -0.84375,0.6875 -1,0.5 -1,0.65625 -0.84375,0.6875 -1,0.65625 -0.84375,0.65625 -1,0.65625 -0.84375,0.6875 -1,0.84375 -1,0.65625 -0.8125,0.84375 -1,0.65625 8.84375,10.84375 -0.6875,0.5 -0.65625,0.5 -0.5,0.5 -0.6875,0.65625 -0.65625,0.53125 -0.65625,0.46875 -0.6875,0.6875 -0.5,0.5 -0.65625,0.65625 -0.65625,0.5 -0.6875,0.6875 -0.65625,0.5 -0.5,0.65625 -0.65625,0.65625 -0.6875,0.6875 -0.65625,0.5 -0.6875,0.65625 -0.46875,0.65625 -0.6875,0.6875 -0.65625,0.8125 -0.6875,0.6875 -0.65625,0.65625 -0.65625,0.84375 -0.5,0.65625 -0.6875,0.84375 -0.65625,0.65625 -0.65625,0.84375 -0.6875,0.8125 -0.65625,0.84375 -0.5,0.84375 -0.6875,0.84375 -0.65625,0.84375 -11.1875,-8.1875 -0.5,0.84375 -0.5,0.65625 -0.65625,0.84375 -0.5,0.8125 -0.5,0.65625 -0.53125,0.84375 -0.46875,0.84375 -0.6875,0.84375 -0.5,0.8125 -0.5,0.84375 -0.5,0.84375 -0.5,0.8125 -0.5,0.84375 -0.5,0.8125 -0.5,1.03125 -0.5,0.8125 -0.5,1.03125 -0.5,0.8125 -0.5,1 -0.5,0.84375 -0.5,1 -0.5,1 -0.5,1 -0.34375,1 -0.5,1 -0.5,1 -0.5,1 -0.5,1 -0.34375,1.1875 -0.46875,1 -0.5,1.15625 -0.53125,1.15625 12.84375,5 -0.3125,0.84375 -0.34375,0.84375 -0.34375,0.84375 -0.3125,0.8125 -0.34375,0.84375 -0.15625,0.84375 -0.34375,0.8125 -0.3125,0.84375 -0.34375,0.84375 -0.1875,1 -0.3125,0.8125 -0.1875,0.84375 -0.3125,1 -0.15625,0.84375 -0.34375,0.84375 -0.1875,0.96875 -0.15625,0.84375 -0.15625,1.03125 -0.34375,0.8125 -0.15625,1 -0.15625,1 -0.1875,1 -0.15625,1 -0.34375,1 -0.15625,1 -0.1875,1 -0.15625,1 -0.15625,1 -0.1875,1 -0.15625,1.1875 -0.15625,1 0,1.15625 -13.187503,-1.5 -0.1875,1 0,1 -0.15625,1 0,1 0,0.84375 -0.15625,1 0,1 0,0.8125 0,1.03125 0,0.8125 0,1 0,0.84375 0,1 0,0.84375 0,0.96875 0,0.0312 0,0.8125 0,0.1875 0,0.8125 0,0.0312 0,0.96875 0,0.84375 0,1 0,0.84375 0,1 0,0.8125 0,1.03125 0,0.8125 0,1 0.15625,1 0,0.84375 0,1 0.15625,1 0,1 0.1875,1 13.187503,-1.5 0,1.15625 0.15625,1 0.15625,1.1875 0.1875,1 0.15625,1 0.15625,1 0.1875,1 0.15625,1 0.34375,1 0.15625,1 0.1875,1 0.15625,1 0.15625,1 0.34375,0.8125 0.15625,1.03125 0.15625,0.84375 0.1875,0.96875 0.34375,0.84375 0.15625,0.84375 0.3125,1 0.1875,0.84375 0.3125,0.8125 0.1875,1 0.34375,0.84375 0.3125,0.84375 0.34375,0.8125 0.15625,0.84375 0.34375,0.84375 0.3125,0.8125 0.34375,0.84375 0.34375,0.84375 0.3125,0.84375 -12.84375,5 0.53125,1.15625 0.5,1.15625 0.46875,1 0.34375,1.1875 0.5,1 0.5,1 0.5,1 0.5,1 0.34375,1 0.5,1 0.5,1 0.5,1 0.5,0.84375 0.5,1 0.5,0.8125 0.5,1.03125 0.5,0.8125 0.5,1.03125 0.5,0.8125 0.5,0.84375 0.5,0.8125 0.5,0.84375 0.5,0.84374 0.5,0.8125 0.6875,0.84375 0.46875,0.84375 0.53125,0.84375 0.5,0.65625 0.5,0.8125 0.65625,0.84375 0.5,0.65625 0.5,0.84375 11.1875,-8.18749 0.65625,0.84375 0.6875,0.84374 0.5,0.84375 0.65625,0.84375 0.6875,0.8125 0.65625,0.84375 0.65625,0.65625 0.6875,0.84375 0.5,0.65625 0.65625,0.84375 0.65625,0.65625 0.6875,0.6875 0.65625,0.8125 0.6875,0.6875 0.46875,0.65625 0.6875,0.65625 0.65625,0.5 0.6875,0.6875 0.65625,0.65625 0.5,0.65625 0.65625,0.5 0.6875,0.6875 0.65625,0.5 0.65625,0.65625 0.5,0.5 0.6875,0.6875 0.65625,0.46875 0.65625,0.53125 0.6875,0.65625 0.5,0.5 0.65625,0.5 0.6875,0.5 -8.84375,10.84375 1,0.65625 0.8125,0.84375 1,0.65625 1,0.84375 0.84375,0.6875 1,0.65625 0.84375,0.65625 1,0.65625 0.84375,0.6875 1,0.65625 1,0.5 0.84375,0.6875 1,0.65625 1,0.5 0.8125,0.65625 1,0.5 1,0.6875 0.84375,0.5 1,0.5 1,0.5 1,0.65625 0.84375,0.5 1,0.5 1,0.5 1,0.5 1,0.5 1,0.5 1,0.5 1,0.53125 1,0.3125 1,0.5 1,0.5 5.6875,-13.1875 0.84375,0.5 1,0.34375 1,0.5 1,0.3125 0.8125,0.34375 1.03125,0.34375 0.8125,0.34375 1.03125,0.3125 0.8125,0.34375 0.8125,0.34375 1.03125,0.15625 0.8125,0.34375 0.84375,0.15625 1,0.34375 0.84375,0.15625 0.84375,0.34375 1.00001,0.15625 0.8125,0.34375 0.843747,0.15625 1,0.1875 0.84375,0.15625 1,0.15625 0.84375,0.34375 1,0.15625 0.84375,0.15625 0.96875,0.1875 1,0.15625 0.84375,0.15625 1,0.1875 1,0.15625 1,0.15625 1.1875,0.15625 -2,14.03125 1.15625,0.15625 1,0.1875 1,0.15625 1,0 1.1875,0.15625 1,0.1875 1,0 1,0.15625 1,0 1,0.1875 1,0 1,0 1,0 1,0.15625 1,0 0.84375,0 1,0 1,0 1,0 1,0 1,0 1,0 0.84375,-0.15625 0.96875,0 1.03125,0 1,-0.1875 1,0 1,-0.15625 1,0 1,-0.1875 1,-0.15625 1,0 -1.5,-14.53125 1,-0.15625 1.1875,-0.15625 1,-0.15625 1,0 1.15625,-0.1875 1,-0.3125 1.15625,-0.1875 1,-0.15625 1.1875,-0.15625 1,-0.15625 1,-0.34375 1.15625,-0.15625 1,-0.34375 1,-0.1875 1,-0.3125 1.1875,-0.34375 1,-0.15625 1,-0.34375 1,-0.34375 1,-0.3125 1,-0.34375 1,-0.34375 1.03125,-0.3125 0.96875,-0.34375 1,-0.34375 1,-0.5 1,-0.34375 0.84375,-0.3125 1,-0.5 1,-0.34375 0.84375,-0.5 1,-0.3125 5.6875,13.34375 1,-0.34375 1,-0.5 0.8125,-0.5 1,-0.34375 0.84375,-0.5 1,-0.5 0.84375,-0.3125 0.8125,-0.5 1,-0.53125 0.84375,-0.5 0.84375,-0.3125 0.8125,-0.5 0.875,-0.5 0.8125,-0.5 1,-0.5 0.84375,-0.5 0.65625,-0.5 0.84375,-0.5 0.8125,-0.5 0.84375,-0.53125 0.84375,-0.46875 0.84375,-0.5 0.65625,-0.53125 0.84375,-0.5 0.65625,-0.65625 0.84375,-0.5 0.65625,-0.5 0.84375,-0.5 0.6875,-0.65625 0.8125,-0.5 0.6875,-0.5 0.65625,-0.6875 -8.84375,-11.65625 0.84375,-0.5 0.65625,-0.6875 0.8125,-0.65625 0.84375,-0.5 0.84375,-0.65625 0.6875,-0.6875 0.8125,-0.8125 0.84375,-0.6875 0.8125,-0.65625 0.65625,-0.65625 0.84375,-0.84375 0.84375,-0.6875 0.8125,-0.8125 0.6875,-0.84375 0.84375,-0.65625 0.84375,-0.84375 0.65625,-0.84375 0.84375,-0.84375 0.65625,-0.65625 0.65625,-0.84375 0.84375,-0.8125 0.6875,-0.84375 0.65625,-0.84375 0.65625,-0.65625 0.65625,-0.8125 0.6875,-0.84375 0.5,-0.84375 0.65625,-0.65625 0.53125,-0.84375 0.65625,-0.68749 0.5,-0.8125 0.5,-0.65625 11.6875,8.65624 0.65625,-0.8125 0.5,-0.84375 0.6875,-0.6875 0.46875,-0.8125 0.53125,-0.84375 0.65625,-0.8125 0.5,-0.84375 0.5,-0.84375 0.65625,-0.99999 0.5,-0.84375 0.5,-0.8125 0.5,-1 0.5,-0.84375 0.5,-0.84375 0.5,-1 0.5,-0.84375 0.53125,-1 0.46875,-0.8125 0.53125,-1 0.5,-0.84375 0.46875,-1 0.34375,-0.84375 0.5,-1 0.34375,-0.8125 0.5,-1 0.34375,-0.84375 0.5,-0.84375 0.3125,-1 0.34375,-0.84375 0.3125,-0.8125 0.375,-0.84375 0.3125,-0.84375 -13.5,-5.46875 0.46875,-1.03125 0.34375,-1 0.34375,-1 0.34375,-1 0.3125,-1 0.34375,-1.15625 0.34375,-1 0.3125,-1 0.34375,-1 0.34375,-1 0.3125,-1 0.1875,-1.1875 0.3125,-1 0.34375,-1 0.15625,-1 0.34375,-1 0.15625,-1 0.15625,-1 0.34375,-1 0.1875,-1 0.15625,-1 0.15625,-1 0.1875,-1 0.125,-1 0.1875,-1 0,-1.03125 0.1875,-0.8125 0.15625,-1 0,-1 0.1875,-1 0,-0.84375 0,-1 14.34375,1.34375 0.15625,-1 0,-0.84375 0.1875,-1 0,-1 0.15625,-1 0,-1 0,-1 0,-1 0,-1 0,-1 0,-1 0,-1 0,-1 -0.0312,-0.25 0.0312,-0.25 0,-1 0,-1 0,-1 0,-1 0,-1 0,-1 0,-1 0,-1 -0.15625,-1 0,-1 -0.1875,-1 0,-0.84375 -0.15625,-1 -14.34375,1.34375 0,-1 0,-0.84375 -0.1875,-1 0,-1 -0.15625,-1 -0.1875,-0.8125 0,-1.03125 -0.1875,-1 -0.125,-1 -0.1875,-1 -0.15625,-1 -0.15625,-1 -0.1875,-1 -0.34375,-1 -0.15625,-1 -0.15625,-1 -0.34375,-1 -0.15625,-1 -0.34375,-1 -0.3125,-1 -0.1875,-1.1875 -0.3125,-1 -0.34375,-1 -0.34375,-1 -0.3125,-1 -0.34375,-1 -0.34375,-1.15625 -0.3125,-1 -0.34375,-1 -0.34375,-1 -0.34375,-1 -0.46875,-1.03125 13.5,-5.46875 -0.3125,-0.84375 -0.375,-0.84375 -0.3125,-0.8125 -0.34375,-0.84375 -0.3125,-1 -0.5,-0.84375 -0.34375,-0.84375 -0.5,-1 -0.34375,-0.8125 -0.5,-1 -0.34375,-0.84375 -0.46875,-1 -0.5,-0.84375 -0.53125,-1 -0.46875,-0.8125 -0.53125,-1 -0.5,-0.84375 -0.5,-1 -0.5,-0.84375 -0.5,-0.84375 -0.5,-1 -0.5,-0.8125 -0.5,-0.84375 -0.65625,-1 -0.5,-0.84375 -0.5,-0.84375 -0.65625,-0.8125 -0.53125,-0.84375 -0.46875,-0.8125 -0.6875,-0.6875 -0.5,-0.84375 -0.65625,-0.8125 -11.6875,8.65625 -0.5,-0.65625 -0.5,-0.8125 -0.65625,-0.6875 -0.53125,-0.84375 -0.65625,-0.65625 -0.5,-0.84375 -0.6875,-0.84375 -0.65625,-0.8125 -0.65625,-0.65625 -0.65625,-0.84375 -0.6875,-0.84375 -0.84375,-0.8125 -0.65625,-0.84375 -0.65625,-0.65625 -0.84375,-0.84375 -0.65625,-0.84375 -0.84375,-0.84375 -0.84375,-0.65625 -0.6875,-0.84375 -0.8125,-0.8125 -0.84375,-0.6875 -0.84375,-0.84375 -0.65625,-0.65625 -0.8125,-0.65625 -0.84375,-0.6875 -0.8125,-0.8125 -0.6875,-0.6875 -0.84375,-0.65625 -0.84375,-0.5 -0.8125,-0.65625 -0.65625,-0.6875 -0.84375,-0.5 8.84375,-11.65625 -0.65625,-0.6875 -0.6875,-0.5 -0.8125,-0.5 -0.6875,-0.65625 -0.84375,-0.5 -0.65625,-0.5 -0.84375,-0.5 -0.65625,-0.65625 -0.84375,-0.5 -0.65625,-0.53125 -0.84375,-0.5 -0.84375,-0.46875 -0.84375,-0.53125 -0.8125,-0.5 -0.84375,-0.5 -0.65625,-0.5 -0.84375,-0.5 -1,-0.5 -0.8125,-0.5 -0.875,-0.5 -0.8125,-0.5 -0.84375,-0.3125 -0.84375,-0.5 -1,-0.53125 -0.8125,-0.5 -0.84375,-0.3125 -1,-0.5 -0.84375,-0.5 -1,-0.34375 -0.8125,-0.5 -1,-0.5 -1,-0.34375 -5.6875,13.34375 -1,-0.3125 -0.84375,-0.5 -1,-0.34375 -1,-0.5 -0.84375,-0.3125 -1,-0.34375 -1,-0.5 -1,-0.34375 -0.96875,-0.34375 -1.03125,-0.3125 -1,-0.34375 -1,-0.34375 -1,-0.3125 -1,-0.34375 -1,-0.34375 -1,-0.15625 -1.1875,-0.34375 -1,-0.3125 -1,-0.1875 -1,-0.34375 -1.15625,-0.15625 -1,-0.34375 -1,-0.15625 -1.1875,-0.15625 -1,-0.15625 -1.15625,-0.1875 -1,-0.3125 -1.15625,-0.1875 -1,0 -1,-0.15625 -1.1875,-0.15625 -1,-0.15625 1.5,-14.53125 -1,0 -1,-0.15625 -1,-0.1875 -1,0 -1,-0.15625 -1,0 -1,-0.1875 -1.03125,0 -0.96875,0 L 133.18751,0 l -1,0 -1,0 -1,0 -1,0 -1,0 -1,0 -0.84375,0 -1,0 z m 2.6875,34.375 5.34375,0.15625 5.125,0.34375 5.21875,0.84375 5.15625,1 5.1875,1.34375 5,1.65625 5,1.8125 5,2.1875 4.6875,2.5 4.84375,2.84375 4.5,3 4.34375,3.5 4.34375,3.5 4.15625,4 3.84375,4.34375 3.84375,4.5 -0.34375,0 c 3.46505,4.47663 6.55186,9.25244 9.1875,14.3125 l 0,-0.125 0.53125,1.1875 c 6.28876,12.45232 9.90917,26.47041 10.15625,41.3125 l -0.0312,0 c 0.0228,0.75579 0.0524,1.51913 0.0625,2.28125 -0.0101,0.76212 -0.0397,1.52546 -0.0625,2.28125 l 0.0312,0 c -0.24708,14.8421 -3.86749,28.86018 -10.15625,41.3125 l -0.53125,1.1875 0,-0.125 c -2.63564,5.06006 -5.72245,9.83586 -9.1875,14.3125 l 0.34375,0 -3.84375,4.5 -3.84375,4.34375 -4.15625,3.99999 -4.34375,3.5 -4.34375,3.5 -4.5,3 -4.84375,2.84375 -4.6875,2.5 -5,2.1875 -5,1.8125 -5,1.65625 -5.1875,1.34375 -5.15625,1 -5.21875,0.84375 -5.125,0.34375 -5.34375,0.15625 -5.1875,-0.15625 -5.34375,-0.34375 -5.1875,-0.84375 -5.15625,-1 -5.1875,-1.34375 -5.000007,-1.65625 -5,-1.8125 -5.03125,-2.1875 -4.65625,-2.65625 -4.84375,-2.6875 -4.5,-3.15625 -4.5,-3.34375 -4.1875,-3.84375 -4.15625,-3.99999 -4.03125,-4.3125 -3.65625,-4.53125 0.1875,0 c -3.48913,-4.55056 -6.55255,-9.41683 -9.1875,-14.5625 l -0.0312,0.21875 -0.40625,-1.09375 c -6.16594,-12.35342 -9.75299,-26.22156 -10,-40.90625 l 0.0312,0 c -0.0228,-0.75579 -0.0524,-1.51913 -0.0625,-2.28125 0.0101,-0.76212 0.0397,-1.52546 0.0625,-2.28125 l -0.0312,0 c 0.24961,-14.67813 3.83654,-28.5578 10,-40.90625 l 0.40625,-1.09375 0.0312,0.21875 c 2.63495,-5.14567 5.69837,-10.01194 9.1875,-14.5625 l -0.1875,0 3.65625,-4.53125 4.03125,-4.3125 4.15625,-4 4.1875,-3.84375 4.5,-3.34375 4.5,-3.15625 4.84375,-2.6875 4.65625,-2.65625 5.03125,-2.1875 5,-1.8125 5.000007,-1.65625 5.1875,-1.34375 5.15625,-1 5.1875,-0.84375 5.34375,-0.34375 5.1875,-0.15625 z"
     id="path2125"
     style="fill:#000000;fill-opacity:1;fill-rule:nonzero;stroke-width:0;stroke-linecap:butt;stroke-linejoin:miter;stroke-miterlimit:4" />
  <g
     transform="translate(-92.371597,7.7758571)"
     id="layer2">
    <text
       x="386.8548"
       y="-108.7233"
       transform="matrix(1.41321,0,0,1.386414,-15.47082,-324.9714)"
       id="text5523"
       xml:space="preserve"
       style="font-size:12px;font-style:normal;font-variant:normal;font-weight:normal;font-stretch:normal;text-align:start;line-height:125%;writing-mode:lr-tb;text-anchor:start;fill:#ffffff;fill-opacity:1;stroke:none;font-family:Courier New"><tspan
   id="tspan5527"
   style="font-size:12px;font-style:normal;font-variant:normal;font-weight:normal;font-stretch:normal;text-align:start;line-height:125%;writing-mode:lr-tb;text-anchor:start;fill:#ffffff;fill-opacity:1;font-family:Courier New">CENTRALE LYON</tspan></text>
  </g>
  <g
     transform="translate(-92.371597,7.7758571)"
     id="layer1"
     style="display:inline" />
</svg>
