<?xml version="1.0" encoding="UTF-8" standalone="no"?>
<!-- Created with Inkscape (http://www.inkscape.org/) -->

<svg
   xmlns:dc="http://purl.org/dc/elements/1.1/"
   xmlns:cc="http://creativecommons.org/ns#"
   xmlns:rdf="http://www.w3.org/1999/02/22-rdf-syntax-ns#"
   xmlns:svg="http://www.w3.org/2000/svg"
   xmlns="http://www.w3.org/2000/svg"
   xmlns:xlink="http://www.w3.org/1999/xlink"
   xmlns:sodipodi="http://sodipodi.sourceforge.net/DTD/sodipodi-0.dtd"
   xmlns:inkscape="http://www.inkscape.org/namespaces/inkscape"
   id="svg3960"
   version="1.1"
   inkscape:version="0.48.2 r9819"
   sodipodi:docname="Setting.svg"
   width="435.78131"
   height="455.18143">
  <defs
     id="defs3962">
    <linearGradient
       id="linearGradient4836">
      <stop
         style="stop-color:#000000;stop-opacity:0.7927928;"
         offset="0"
         id="stop4838" />
      <stop
         style="stop-color:#364dae;stop-opacity:0;"
         offset="1"
         id="stop4840" />
    </linearGradient>
    <linearGradient
       inkscape:collect="always"
       id="linearGradient4824">
      <stop
         style="stop-color:#000000;stop-opacity:1;"
         offset="0"
         id="stop4826" />
      <stop
         style="stop-color:#000000;stop-opacity:0;"
         offset="1"
         id="stop4828" />
    </linearGradient>
    <linearGradient
       inkscape:collect="always"
       id="linearGradient4796">
      <stop
         style="stop-color:#989a98;stop-opacity:1"
         offset="0"
         id="stop4798" />
      <stop
         style="stop-color:#364dae;stop-opacity:0;"
         offset="1"
         id="stop4800" />
    </linearGradient>
    <linearGradient
       inkscape:collect="always"
       id="linearGradient4702">
      <stop
         style="stop-color:#ffffff;stop-opacity:0.76548673"
         offset="0"
         id="stop4704" />
      <stop
         style="stop-color:#ffffff;stop-opacity:0"
         offset="1"
         id="stop4706" />
    </linearGradient>
    <linearGradient
       inkscape:collect="always"
       id="linearGradient4653">
      <stop
         style="stop-color:#4e4e4e;stop-opacity:1;"
         offset="0"
         id="stop4655" />
      <stop
         style="stop-color:#bababa;stop-opacity:1"
         offset="1"
         id="stop4657" />
    </linearGradient>
    <linearGradient
       inkscape:collect="always"
       id="linearGradient4571">
      <stop
         style="stop-color:#063a5b;stop-opacity:1;"
         offset="0"
         id="stop4573" />
      <stop
         style="stop-color:#063a5b;stop-opacity:0;"
         offset="1"
         id="stop4575" />
    </linearGradient>
    <linearGradient
       inkscape:collect="always"
       id="linearGradient4559">
      <stop
         style="stop-color:#000000;stop-opacity:1"
         offset="0"
         id="stop4561" />
      <stop
         style="stop-color:#6facdb;stop-opacity:1"
         offset="1"
         id="stop4563" />
    </linearGradient>
    <linearGradient
       inkscape:collect="always"
       id="linearGradient4533">
      <stop
         style="stop-color:#ffffff;stop-opacity:0"
         offset="0"
         id="stop4535" />
      <stop
         style="stop-color:#ffffff;stop-opacity:0.75663717"
         offset="1"
         id="stop4537" />
    </linearGradient>
    <radialGradient
       r="218.88943"
       fy="151.18518"
       fx="776.68835"
       cy="151.18518"
       cx="776.68835"
       gradientTransform="matrix(1.2810894,0.03283386,-0.02854682,1.1138215,580.65222,-779.20921)"
       gradientUnits="userSpaceOnUse"
       id="radialGradient3922"
       xlink:href="#linearGradient3900-8"
       inkscape:collect="always" />
    <linearGradient
       id="linearGradient3900-8">
      <stop
         id="stop3902-2"
         offset="0"
         style="stop-color:#ffffff;stop-opacity:0.21578947" />
      <stop
         id="stop3904-7"
         offset="1"
         style="stop-color:#5b5b5b;stop-opacity:1" />
    </linearGradient>
    <radialGradient
       r="218.88943"
       fy="151.18518"
       fx="776.68835"
       cy="151.18518"
       cx="776.68835"
       gradientTransform="matrix(1.2810894,0.03283386,-0.02854682,1.1138215,-618.64419,280.35232)"
       gradientUnits="userSpaceOnUse"
       id="radialGradient3984"
       xlink:href="#linearGradient3900-8"
       inkscape:collect="always" />
    <linearGradient
       inkscape:collect="always"
       xlink:href="#linearGradient4533"
       id="linearGradient4539"
       x1="269.24487"
       y1="501.70724"
       x2="269.40817"
       y2="573.44794"
       gradientUnits="userSpaceOnUse" />
    <linearGradient
       inkscape:collect="always"
       xlink:href="#linearGradient4559"
       id="linearGradient4565"
       x1="1409.6571"
       y1="71.122002"
       x2="1407.767"
       y2="357.59198"
       gradientUnits="userSpaceOnUse" />
    <linearGradient
       inkscape:collect="always"
       xlink:href="#linearGradient4571"
       id="linearGradient4577"
       x1="1027.8571"
       y1="90.21933"
       x2="1024.2856"
       y2="194.1479"
       gradientUnits="userSpaceOnUse" />
    <linearGradient
       inkscape:collect="always"
       xlink:href="#linearGradient4571-0"
       id="linearGradient4577-6"
       x1="1027.8571"
       y1="90.21933"
       x2="1024.2856"
       y2="194.1479"
       gradientUnits="userSpaceOnUse" />
    <linearGradient
       inkscape:collect="always"
       id="linearGradient4571-0">
      <stop
         style="stop-color:#063a5b;stop-opacity:1;"
         offset="0"
         id="stop4573-3" />
      <stop
         style="stop-color:#063a5b;stop-opacity:0;"
         offset="1"
         id="stop4575-6" />
    </linearGradient>
    <linearGradient
       inkscape:collect="always"
       xlink:href="#linearGradient4653"
       id="linearGradient4659"
       x1="1025.9744"
       y1="267.53012"
       x2="1034.454"
       y2="87.887032"
       gradientUnits="userSpaceOnUse" />
    <radialGradient
       inkscape:collect="always"
       xlink:href="#linearGradient4702"
       id="radialGradient4742"
       gradientUnits="userSpaceOnUse"
       gradientTransform="matrix(1.1418433,0.02770913,-0.01071959,0.47408568,168.48575,350.78185)"
       cx="184.43954"
       cy="653.26831"
       fx="184.43954"
       fy="653.26831"
       r="42.857143" />
    <linearGradient
       inkscape:collect="always"
       xlink:href="#linearGradient4653-8"
       id="linearGradient4659-5"
       x1="1025.9744"
       y1="267.53012"
       x2="1034.454"
       y2="87.887032"
       gradientUnits="userSpaceOnUse" />
    <linearGradient
       inkscape:collect="always"
       id="linearGradient4653-8">
      <stop
         style="stop-color:#4e4e4e;stop-opacity:1;"
         offset="0"
         id="stop4655-8" />
      <stop
         style="stop-color:#bababa;stop-opacity:1"
         offset="1"
         id="stop4657-1" />
    </linearGradient>
    <linearGradient
       inkscape:collect="always"
       xlink:href="#linearGradient4796"
       id="linearGradient4802"
       x1="1029.9117"
       y1="267.66495"
       x2="1033.5103"
       y2="152.54602"
       gradientUnits="userSpaceOnUse" />
    <linearGradient
       inkscape:collect="always"
       xlink:href="#linearGradient4824"
       id="linearGradient4830"
       x1="1012.6479"
       y1="145.89957"
       x2="1011.7742"
       y2="189.63358"
       gradientUnits="userSpaceOnUse" />
    <radialGradient
       inkscape:collect="always"
       xlink:href="#linearGradient4836"
       id="radialGradient4842"
       cx="185"
       cy="892.00507"
       fx="185"
       fy="892.00507"
       r="5"
       gradientTransform="matrix(0.98454316,-0.50717992,0.00326999,10.228369,-0.05733182,-8137.9235)"
       gradientUnits="userSpaceOnUse" />
  </defs>
  <sodipodi:namedview
     id="base"
     pagecolor="#ffffff"
     bordercolor="#666666"
     borderopacity="1.0"
     inkscape:pageopacity="0.0"
     inkscape:pageshadow="2"
     inkscape:zoom="0.49497475"
     inkscape:cx="245.20046"
     inkscape:cy="269.52575"
     inkscape:document-units="px"
     inkscape:current-layer="layer4"
     showgrid="false"
     inkscape:window-width="1280"
     inkscape:window-height="748"
     inkscape:window-x="-8"
     inkscape:window-y="-8"
     inkscape:window-maximized="1"
     fit-margin-top="0"
     fit-margin-left="0"
     fit-margin-right="0"
     fit-margin-bottom="0" />
  <metadata
     id="metadata3965">
    <rdf:RDF>
      <cc:Work
         rdf:about="">
        <dc:format>image/svg+xml</dc:format>
        <dc:type
           rdf:resource="http://purl.org/dc/dcmitype/StillImage" />
        <dc:title />
      </cc:Work>
    </rdf:RDF>
  </metadata>
  <g
     inkscape:label="Layer 1"
     inkscape:groupmode="layer"
     id="layer1"
     transform="translate(-154.15659,-354.47155)">
    <path
       style="opacity:0.95;color:#000000;fill:url(#radialGradient3984);fill-opacity:1;stroke:none;stroke-width:1.99758601;marker:none;visibility:visible;display:inline;overflow:visible;enable-background:accumulate"
       d="m 391.87529,354.47155 -37.0624,0.8125 -10.3438,40.25 c -12.0223,1.85906 -23.6436,4.90455 -34.75,9.03125 l -29.4375,-30.84375 -31.6875,19.25 11.1562,40.0625 c -9.3191,7.52155 -17.8889,15.97104 -25.5312,25.18751 l -40.9688,-12.00001 -17.8124,32.50001 29.6562,29.09375 c -4.2735,11.04513 -7.4811,22.61437 -9.5,34.59375 l -41.4375,10.09375 0.8125,37.0625 40.25,10.375 c 1.8606,12.03224 4.8994,23.66656 9.0312,34.78125 l -30.8124,29.40624 19.2187,31.6875 40.0313,-11.15625 c 7.5246,9.32504 15.9972,17.88474 25.2187,25.53125 l -12,40.93751 32.5,17.8125 29.0625,-29.625 c 11.0628,4.28245 22.6561,7.47976 34.6562,9.5 l 10.0626,41.4375 37.0624,-0.8125 10.375,-40.25 c 12.0323,-1.86059 23.6666,-4.89938 34.7813,-9.03125 l 29.4063,30.8125 31.6874,-19.25 -11.1562,-40.00001 c 9.3303,-7.52888 17.9127,-15.9912 25.5625,-25.21875 l 40.9063,11.96875 17.8124,-32.5 -29.625,-29.06249 c 4.2809,-11.06391 7.4818,-22.65514 9.5,-34.65625 l 41.4376,-10.0625 -0.8126,-37.0625 -40.25,-10.34375 c -1.8605,-12.03224 -4.8993,-23.66656 -9.0312,-34.78125 l 30.8125,-29.4375 -19.2187,-31.65626 -40.0626,11.15626 c -7.5307,-9.33054 -15.989,-17.91304 -25.2187,-25.56251 l 12,-40.9375 -32.5,-17.8125 -29.0625,29.65625 c -11.0639,-4.28081 -22.6551,-7.48174 -34.6562,-9.5 l -10.0626,-41.4375 z"
       id="path3055-9"
       inkscape:connector-curvature="0" />
    <path
       sodipodi:type="arc"
       style="color:#000000;fill:#0e73c2;fill-opacity:1;stroke:none;stroke-width:1.99899995;marker:none;visibility:visible;display:inline;overflow:visible;enable-background:accumulate"
       id="path3084"
       sodipodi:cx="1413.0813"
       sodipodi:cy="215.83365"
       sodipodi:rx="139.37241"
       sodipodi:ry="141.30814"
       d="m 1552.4537,215.83365 a 139.37241,141.30814 0 1 1 -278.7448,0 139.37241,141.30814 0 1 1 278.7448,0 z"
       transform="matrix(1.0403781,0,0,1.0261263,-1098.0916,350.8896)" />
    <path
       sodipodi:type="arc"
       style="color:#000000;fill:none;stroke:url(#linearGradient4565);stroke-width:9.67840958;stroke-miterlimit:4;stroke-opacity:1;stroke-dasharray:none;marker:none;visibility:visible;display:inline;overflow:visible;enable-background:accumulate"
       id="path3084-7"
       sodipodi:cx="1413.0813"
       sodipodi:cy="215.83365"
       sodipodi:rx="139.37241"
       sodipodi:ry="141.30814"
       d="m 1552.4537,215.83365 a 139.37241,141.30814 0 1 1 -278.7448,0 139.37241,141.30814 0 1 1 278.7448,0 z"
       transform="matrix(1.0403781,0,0,1.0261263,-1098.0916,350.8896)" />
    <path
       sodipodi:type="arc"
       style="color:#000000;fill:none;stroke:url(#linearGradient4577);stroke-width:5;stroke-miterlimit:4;stroke-opacity:1;stroke-dasharray:none;marker:none;visibility:visible;display:inline;overflow:visible;enable-background:accumulate"
       id="path4569"
       sodipodi:cx="1033.2142"
       sodipodi:cy="178.79076"
       sodipodi:rx="89.285713"
       sodipodi:ry="88.571426"
       d="m 1122.4999,178.79076 a 89.285713,88.571426 0 1 1 -178.57138,0 89.285713,88.571426 0 1 1 178.57138,0 z"
       transform="matrix(0.98043729,0,0,0.98834406,-640.95452,395.6554)" />
    <path
       sodipodi:type="arc"
       style="color:#000000;fill:none;stroke:url(#linearGradient4659);stroke-width:5;stroke-miterlimit:4;stroke-opacity:1;stroke-dasharray:none;marker:none;visibility:visible;display:inline;overflow:visible;enable-background:accumulate"
       id="path4569-2"
       sodipodi:cx="1033.2142"
       sodipodi:cy="178.79076"
       sodipodi:rx="89.285713"
       sodipodi:ry="88.571426"
       d="m 1122.4999,178.79076 a 89.285713,88.571426 0 1 1 -178.57138,0 89.285713,88.571426 0 1 1 178.57138,0 z"
       transform="matrix(0.92596856,0,0,0.93343606,-584.67665,405.47244)" />
    <path
       sodipodi:type="arc"
       style="color:#000000;fill:#ffffff;fill-opacity:1;stroke:none;stroke-width:5;marker:none;visibility:visible;display:inline;overflow:visible;enable-background:accumulate"
       id="path4569-2-2"
       sodipodi:cx="1033.2142"
       sodipodi:cy="178.79076"
       sodipodi:rx="89.285713"
       sodipodi:ry="88.571426"
       d="m 1122.4999,178.79076 a 89.285713,88.571426 0 1 1 -178.57138,0 89.285713,88.571426 0 1 1 178.57138,0 z"
       transform="matrix(0.90160001,0,0,0.90887098,-559.49872,409.86445)" />
    <path
       sodipodi:type="arc"
       style="color:#000000;fill:url(#linearGradient4802);fill-opacity:1;stroke:none;stroke-width:5;marker:none;visibility:visible;display:inline;overflow:visible;enable-background:accumulate"
       id="path4569-2-2-1"
       sodipodi:cx="1033.2142"
       sodipodi:cy="178.79076"
       sodipodi:rx="89.285713"
       sodipodi:ry="88.571426"
       d="m 1122.4999,178.79076 a 89.285713,88.571426 0 1 1 -178.57138,0 89.285713,88.571426 0 1 1 178.57138,0 z"
       transform="matrix(0.84000001,0,0,0.84677421,-495.85273,420.96678)" />
    <path
       sodipodi:type="arc"
       style="opacity:0.76548671;color:#000000;fill:#f9fafd;fill-opacity:1;fill-rule:nonzero;stroke:none;stroke-width:5;marker:none;visibility:visible;display:inline;overflow:visible;enable-background:accumulate"
       id="path4804"
       sodipodi:cx="1012.8571"
       sodipodi:cy="163.79076"
       sodipodi:rx="18.571428"
       sodipodi:ry="14.285714"
       d="m 1031.4285,163.79076 a 18.571428,14.285714 0 1 1 -37.14281,0 18.571428,14.285714 0 1 1 37.14281,0 z"
       transform="matrix(2.0192308,0,0,2.625,-1673.145,142.41144)" />
    <path
       sodipodi:type="arc"
       style="opacity:0.76548671;color:#000000;fill:none;stroke:url(#linearGradient4830);stroke-width:2.32688856;stroke-miterlimit:4;stroke-opacity:0.69411765;stroke-dasharray:none;marker:none;visibility:visible;display:inline;overflow:visible;enable-background:accumulate"
       id="path4804-4"
       sodipodi:cx="1012.8571"
       sodipodi:cy="163.79076"
       sodipodi:rx="18.571428"
       sodipodi:ry="14.285714"
       d="m 1031.4285,163.79076 a 18.571428,14.285714 0 1 1 -37.14281,0 18.571428,14.285714 0 1 1 37.14281,0 z"
       transform="matrix(1.6333334,0,0,2.1233333,-1282.2861,224.57981)" />
    <path
       sodipodi:type="arc"
       style="color:#000000;fill:url(#radialGradient4842);fill-opacity:1;fill-rule:nonzero;stroke:none;stroke-width:5;marker:none;visibility:visible;display:inline;overflow:visible;enable-background:accumulate"
       id="path4834"
       sodipodi:cx="185"
       sodipodi:cy="892.00507"
       sodipodi:rx="5"
       sodipodi:ry="41.07143"
       d="m 190,892.00507 a 5,41.07143 0 1 1 -10,0 5,41.07143 0 1 1 10,0 z"
       transform="matrix(37,0,0,0.44615316,-6472.9528,393.35796)" />
  </g>
  <g
     inkscape:groupmode="layer"
     id="layer4"
     inkscape:label="Layer2"
     transform="translate(-154.15659,-354.47155)">
    <path
       sodipodi:type="arc"
       style="color:#000000;fill:url(#linearGradient4539);fill-opacity:1;fill-rule:nonzero;stroke:none;stroke-width:1.99899995;marker:none;visibility:visible;display:inline;overflow:visible;enable-background:accumulate"
       id="path4023"
       sodipodi:cx="270"
       sodipodi:cy="518.07648"
       sodipodi:rx="52.857143"
       sodipodi:ry="54.285713"
       d="m 322.85714,518.07648 a 52.857143,54.285713 0 1 1 -105.71428,0 52.857143,54.285713 0 1 1 105.71428,0 z"
       transform="matrix(1.8918919,0,0,-1.3157895,-138.76357,1193.5516)" />
    <path
       style="opacity:0.86283133;color:#000000;fill:url(#radialGradient4742);fill-opacity:1;fill-rule:nonzero;stroke:none;stroke-width:5;marker:none;visibility:visible;display:inline;overflow:visible;enable-background:accumulate"
       d="m 422.15279,651.25893 c -2.52912,0.0649 -5.06938,0.33268 -7.53665,0.83208 -6.09308,1.23333 -11.46201,5.00301 -17.42144,6.81517 -4.6065,1.40075 -9.32515,2.53681 -14.08863,3.13022 -7.19541,0.89637 -14.54048,1.50329 -21.73893,0.63397 -7.54671,-0.91139 -14.66174,-4.2172 -22.04189,-6.10195 -4.97721,-1.2711 -9.87672,-3.32022 -14.99758,-3.48683 -1.74263,-0.0567 -3.51379,0.0653 -5.22643,0.47548 -2.07617,3.26111 -3.21917,6.76411 -3.21917,10.42086 0,17.25019 25.14899,31.22296 56.16517,31.22296 31.01618,0 56.16518,-13.97277 56.16518,-31.22296 0,-4.5312 -1.76511,-8.83277 -4.88558,-12.719 -0.39208,-2.3e-4 -0.78202,-0.0101 -1.17405,0 z"
       id="path4700"
       inkscape:connector-curvature="0" />
  </g>
  <g
     inkscape:groupmode="layer"
     id="layer3"
     inkscape:label="Layer"
     transform="translate(-154.15659,-354.47155)" />
</svg>
